<svg width="322" height="231" viewBox="0 0 322 231" fill="none" xmlns="http://www.w3.org/2000/svg">
<g clip-path="url(#clip0_13_3242)">
<g filter="url(#filter0_d_13_3242)">
<path d="M145.931 38.5103L183.785 180.008C184.686 183.379 182.67 186.81 179.348 187.702L67.2594 217.784C63.8927 218.688 60.4659 216.669 59.576 213.342L16.2154 51.2589C15.3135 47.8878 17.3303 44.456 20.6521 43.5645L112.181 19L145.931 38.5103Z" fill="white"/>
<path d="M145.931 38.5103L183.785 180.008C184.686 183.379 182.67 186.81 179.348 187.702L170.684 190.027C174.051 189.124 176.011 185.659 175.121 182.333L137.267 40.8354L103.518 21.3252L112.181 19L145.931 38.5103Z" fill="#E5E5E5"/>
<path d="M145.931 38.5103L125.372 44.0279C122.005 44.9315 118.578 42.9125 117.689 39.5863L112.181 19L145.931 38.5103Z" fill="#CECECE"/>
<path d="M130.332 81.5083L92.3166 91.7107C90.1871 92.2822 87.9401 90.8343 87.3119 88.4858C86.6836 86.1373 87.9068 83.758 90.0362 83.1865L128.051 72.9841C130.181 72.4126 132.428 73.8605 133.056 76.209C133.684 78.5575 132.461 80.9368 130.332 81.5083Z" fill="#E9E9E9"/>
<path d="M136.052 104.272L63.8698 123.644C61.4457 124.294 58.9416 122.847 58.2922 120.419C57.6429 117.992 59.0889 115.484 61.5129 114.834L133.695 95.4617C136.119 94.8111 138.623 96.2588 139.272 98.686C139.922 101.113 138.476 103.621 136.052 104.272Z" fill="#E9E9E9"/>
<path d="M141.896 126.116L69.7137 145.489C67.2897 146.139 64.7855 144.691 64.1362 142.264C63.4869 139.837 64.9329 137.329 67.3569 136.679L139.539 117.307C141.963 116.656 144.467 118.104 145.116 120.531C145.766 122.958 144.32 125.466 141.896 126.116Z" fill="#E9E9E9"/>
<path d="M146.881 144.752L74.6992 164.125C72.2752 164.775 69.771 163.327 69.1217 160.9C68.4724 158.473 69.9184 155.965 72.3424 155.315L144.524 135.943C146.948 135.292 149.453 136.74 150.102 139.167C150.751 141.594 149.305 144.102 146.881 144.752Z" fill="#E9E9E9"/>
<path d="M152.012 163.932L79.8301 183.304C77.4061 183.954 74.9019 182.507 74.2526 180.08C73.6033 177.652 75.0493 175.145 77.4733 174.494L149.655 155.122C152.079 154.471 154.583 155.919 155.233 158.346C155.882 160.773 154.436 163.281 152.012 163.932Z" fill="#E9E9E9"/>
<path d="M79.4273 80.3236C81.6313 88.5622 76.75 97.0305 68.5245 99.238C60.2991 101.446 51.8444 96.5564 49.6404 88.3178C47.4364 80.0792 52.3177 71.6109 60.5432 69.4034C68.7686 67.1958 77.2233 72.085 79.4273 80.3236Z" fill="#CECECE"/>
</g>
<g filter="url(#filter1_d_13_3242)">
<path d="M306 69.088L265.645 219.065C264.684 222.638 260.995 224.717 257.454 223.772L137.958 191.888C134.369 190.93 132.28 187.258 133.228 183.732L179.454 11.9354C180.416 8.36229 184.104 6.2827 187.646 7.22762L285.223 33.2641L306 69.088Z" fill="white"/>
<path d="M306 69.088L265.645 219.065C264.684 222.638 260.995 224.717 257.454 223.772L248.218 221.308C251.807 222.266 255.46 220.126 256.409 216.6L296.764 66.6235L275.987 30.7996L285.223 33.2641L306 69.088Z" fill="#E5E5E5"/>
<path d="M306 69.088L284.082 63.2396C280.493 62.2819 278.404 58.6096 279.352 55.0841L285.223 33.2641L306 69.088Z" fill="#CECECE"/>
<path d="M265.817 99.9488L194.009 80.7885C189.987 79.7152 187.25 76.8338 187.912 74.3708C188.575 71.9077 192.393 70.7754 196.415 71.8487L268.223 91.009C272.245 92.0823 274.983 94.9637 274.32 97.4268C273.657 99.8898 269.84 101.022 265.817 99.9488Z" fill="#E9E9E9"/>
<path d="M271.229 79.8342L199.422 60.6738C195.399 59.6005 192.662 56.7191 193.325 54.2561C193.987 51.7931 197.805 50.6607 201.827 51.734L273.635 70.8943C277.657 71.9676 280.395 74.849 279.732 77.3121C279.069 79.7751 275.252 80.9075 271.229 79.8342Z" fill="#E9E9E9"/>
<path d="M261.881 124.208L184.929 103.675C182.345 102.985 180.804 100.327 181.496 97.7543C182.188 95.1816 184.858 93.6472 187.442 94.3368L264.394 114.87C266.978 115.559 268.52 118.217 267.827 120.79C267.135 123.363 264.465 124.897 261.881 124.208Z" fill="#E9E9E9"/>
<path d="M255.651 147.361L178.699 126.829C176.115 126.139 174.573 123.481 175.266 120.908C175.958 118.336 178.628 116.801 181.212 117.491L258.164 138.024C260.748 138.713 262.29 141.371 261.597 143.944C260.905 146.517 258.235 148.051 255.651 147.361Z" fill="#E9E9E9"/>
<path d="M250.336 167.114L173.384 146.581C170.8 145.892 169.258 143.234 169.951 140.661C170.643 138.088 173.313 136.554 175.897 137.243L252.849 157.776C255.433 158.466 256.975 161.124 256.282 163.697C255.59 166.269 252.92 167.804 250.336 167.114Z" fill="#E9E9E9"/>
<path d="M244.866 187.443L167.914 166.91C165.33 166.221 163.788 163.562 164.481 160.99C165.173 158.417 167.843 156.883 170.427 157.572L247.379 178.105C249.963 178.795 251.505 181.453 250.812 184.026C250.12 186.598 247.45 188.133 244.866 187.443Z" fill="#E9E9E9"/>
<path d="M272.012 43.8778L269.696 52.4858C269.07 54.8096 268.97 57.1552 269.325 59.3944L204.405 42.072C200.899 41.1365 197.041 41.0232 193.472 42.0818C190.107 43.08 185.246 45.7924 183.668 51.6577C182.412 56.3275 183.957 60.3108 185.862 63.0302C182.854 64.4282 179.513 67.0998 178.256 71.7724L187.912 74.3708L178.256 71.7724C176.707 77.5301 179.417 82.2442 181.808 84.8324C177.106 86.2857 173.217 90.0374 171.839 95.156C170.556 99.9255 171.755 104.758 174.625 108.316C170.356 109.959 166.892 113.541 165.609 118.31C164.576 122.147 165.151 126.026 166.91 129.249C163.77 131.157 161.327 134.226 160.294 138.063C159.222 142.046 159.882 146.073 161.8 149.365C158.488 151.254 155.896 154.409 154.824 158.391C152.685 166.341 157.444 174.466 165.336 176.572L242.288 197.105C245.421 197.941 248.6 197.709 251.427 196.627L247.615 210.797L143.758 183.085L188.249 17.7384L269.412 39.3951L272.012 43.8778ZM274.908 109.363L274.681 110.207C274.514 110.001 274.342 109.8 274.165 109.603C274.167 109.602 274.17 109.602 274.172 109.601C274.41 109.53 274.656 109.451 274.908 109.363ZM258.223 137.698C258.225 137.698 258.227 137.699 258.229 137.7L258.223 137.698ZM247.444 177.781L247.438 177.779C247.44 177.78 247.442 177.781 247.444 177.781Z" stroke="#662FFF" stroke-width="20"/>
</g>
<g filter="url(#filter2_d_13_3242)">
<path d="M300 71.6545L262.211 213.337C261.311 216.713 257.857 218.678 254.541 217.785L142.643 187.663C139.282 186.759 137.326 183.289 138.214 179.959L181.501 17.6625C182.401 14.287 185.855 12.3224 189.171 13.215L280.544 37.8118L300 71.6545Z" fill="white"/>
<path d="M300 71.6545L262.211 213.337C261.311 216.713 257.857 218.678 254.541 217.785L245.892 215.457C249.253 216.361 252.674 214.34 253.562 211.009L291.351 69.3263L271.895 35.4835L280.544 37.8118L300 71.6545Z" fill="#E5E5E5"/>
<path d="M300 71.6545L279.476 66.1296C276.115 65.2249 274.158 61.7556 275.047 58.4251L280.544 37.8118L300 71.6545Z" fill="#CECECE"/>
<path d="M262.372 100.809L195.13 82.708C191.364 81.6941 188.8 78.972 189.421 76.6452C190.041 74.3184 193.616 73.2486 197.383 74.2626L264.625 92.3633C268.391 93.3773 270.955 96.0994 270.334 98.4262C269.714 100.753 266.139 101.823 262.372 100.809Z" fill="#E9E9E9"/>
<path d="M267.44 81.8065L200.198 63.7057C196.432 62.6918 193.868 59.9697 194.489 57.6428C195.11 55.316 198.684 54.2463 202.451 55.2602L269.693 73.361C273.46 74.3749 276.023 77.097 275.402 79.4238C274.782 81.7507 271.207 82.8204 267.44 81.8065Z" fill="#E9E9E9"/>
<path d="M258.686 123.726L186.627 104.329C184.208 103.677 182.764 101.166 183.412 98.7356C184.06 96.3052 186.56 94.8557 188.98 95.5071L261.039 114.905C263.459 115.556 264.903 118.067 264.255 120.498C263.606 122.928 261.106 124.377 258.686 123.726Z" fill="#E9E9E9"/>
<path d="M252.852 145.6L180.793 126.202C178.374 125.551 176.93 123.04 177.578 120.609C178.226 118.179 180.726 116.729 183.146 117.381L255.205 136.778C257.625 137.43 259.069 139.941 258.421 142.371C257.772 144.801 255.272 146.251 252.852 145.6Z" fill="#E9E9E9"/>
<path d="M247.875 164.26L175.816 144.863C173.397 144.211 171.953 141.7 172.601 139.27C173.249 136.839 175.749 135.39 178.169 136.041L250.228 155.439C252.648 156.09 254.092 158.601 253.444 161.032C252.795 163.462 250.295 164.911 247.875 164.26Z" fill="#E9E9E9"/>
<path d="M242.753 183.465L170.694 164.067C168.274 163.416 166.831 160.905 167.479 158.474C168.127 156.044 170.627 154.594 173.047 155.246L245.106 174.643C247.526 175.295 248.97 177.806 248.321 180.236C247.673 182.666 245.173 184.116 242.753 183.465Z" fill="#E9E9E9"/>
</g>
</g>
<defs>
<filter id="filter0_d_13_3242" x="-16" y="-13" width="232" height="263" filterUnits="userSpaceOnUse" color-interpolation-filters="sRGB">
<feFlood flood-opacity="0" result="BackgroundImageFix"/>
<feColorMatrix in="SourceAlpha" type="matrix" values="0 0 0 0 0 0 0 0 0 0 0 0 0 0 0 0 0 0 127 0" result="hardAlpha"/>
<feOffset/>
<feGaussianBlur stdDeviation="16"/>
<feComposite in2="hardAlpha" operator="out"/>
<feColorMatrix type="matrix" values="0 0 0 0 0.4 0 0 0 0 0.184314 0 0 0 0 1 0 0 0 0.12 0"/>
<feBlend mode="normal" in2="BackgroundImageFix" result="effect1_dropShadow_13_3242"/>
<feBlend mode="normal" in="SourceGraphic" in2="effect1_dropShadow_13_3242" result="shape"/>
</filter>
<filter id="filter1_d_13_3242" x="101" y="-25" width="237" height="281" filterUnits="userSpaceOnUse" color-interpolation-filters="sRGB">
<feFlood flood-opacity="0" result="BackgroundImageFix"/>
<feColorMatrix in="SourceAlpha" type="matrix" values="0 0 0 0 0 0 0 0 0 0 0 0 0 0 0 0 0 0 127 0" result="hardAlpha"/>
<feOffset/>
<feGaussianBlur stdDeviation="16"/>
<feComposite in2="hardAlpha" operator="out"/>
<feColorMatrix type="matrix" values="0 0 0 0 0.4 0 0 0 0 0.184314 0 0 0 0 1 0 0 0 0.12 0"/>
<feBlend mode="normal" in2="BackgroundImageFix" result="effect1_dropShadow_13_3242"/>
<feBlend mode="normal" in="SourceGraphic" in2="effect1_dropShadow_13_3242" result="shape"/>
</filter>
<filter id="filter2_d_13_3242" x="106" y="-19" width="226" height="269" filterUnits="userSpaceOnUse" color-interpolation-filters="sRGB">
<feFlood flood-opacity="0" result="BackgroundImageFix"/>
<feColorMatrix in="SourceAlpha" type="matrix" values="0 0 0 0 0 0 0 0 0 0 0 0 0 0 0 0 0 0 127 0" result="hardAlpha"/>
<feOffset/>
<feGaussianBlur stdDeviation="16"/>
<feComposite in2="hardAlpha" operator="out"/>
<feColorMatrix type="matrix" values="0 0 0 0 0.4 0 0 0 0 0.184314 0 0 0 0 1 0 0 0 0.12 0"/>
<feBlend mode="normal" in2="BackgroundImageFix" result="effect1_dropShadow_13_3242"/>
<feBlend mode="normal" in="SourceGraphic" in2="effect1_dropShadow_13_3242" result="shape"/>
</filter>
<clipPath id="clip0_13_3242">
<rect width="322" height="231" rx="12" fill="white"/>
</clipPath>
</defs>
</svg>
