<svg width="322" height="285" viewBox="0 0 322 285" fill="none" xmlns="http://www.w3.org/2000/svg">
<g clip-path="url(#clip0_13_3252)">
<g filter="url(#filter0_d_13_3252)">
<path d="M237.164 59.0125L294.095 287.349C295.451 292.789 292.106 298.246 286.731 299.586L105.366 344.805C99.9181 346.163 94.457 342.825 93.1187 337.458L27.9053 75.9011C26.5489 70.461 29.8945 65.0043 35.2694 63.6642L183.369 26.739L237.164 59.0125Z" fill="white"/>
<path d="M237.164 59.0125L294.095 287.349C295.451 292.789 292.106 298.246 286.731 299.586L272.712 303.081C278.16 301.723 281.415 296.212 280.077 290.844L223.146 62.5077L169.35 30.2341L183.369 26.739L237.164 59.0125Z" fill="#E5E5E5"/>
<path d="M237.164 59.0125L203.898 67.3067C198.451 68.6649 192.99 65.3269 191.651 59.9594L183.369 26.739L237.164 59.0125Z" fill="#CECECE"/>
<path d="M210.818 127.649L149.308 142.985C145.862 143.844 142.285 141.456 141.34 137.667C140.395 133.877 142.433 130.089 145.878 129.23L207.389 113.893C210.834 113.034 214.412 115.422 215.357 119.212C216.301 123.002 214.264 126.79 210.818 127.649Z" fill="#E9E9E9"/>
<path d="M219.382 164.372L102.587 193.492C98.6653 194.47 94.6737 192.076 93.6971 188.159C92.7206 184.242 95.1207 180.254 99.0428 179.276L215.837 150.156C219.759 149.178 223.751 151.572 224.728 155.489C225.704 159.406 223.304 163.394 219.382 164.372Z" fill="#E9E9E9"/>
<path d="M228.171 199.624L111.377 228.744C107.454 229.722 103.463 227.327 102.486 223.41C101.51 219.493 103.91 215.505 107.832 214.527L224.626 185.407C228.548 184.429 232.54 186.824 233.517 190.741C234.493 194.657 232.093 198.646 228.171 199.624Z" fill="#E9E9E9"/>
<path d="M235.669 229.697L118.875 258.817C114.953 259.795 110.961 257.4 109.984 253.483C109.008 249.566 111.408 245.578 115.33 244.6L232.124 215.48C236.047 214.502 240.038 216.897 241.015 220.814C241.991 224.731 239.591 228.719 235.669 229.697Z" fill="#E9E9E9"/>
<path d="M243.386 260.647L126.591 289.767C122.669 290.745 118.678 288.35 117.701 284.433C116.725 280.517 119.125 276.528 123.047 275.55L239.841 246.43C243.763 245.452 247.755 247.847 248.732 251.764C249.708 255.681 247.308 259.669 243.386 260.647Z" fill="#E9E9E9"/>
<path d="M128.875 124.337C132.19 137.632 124.088 151.1 110.778 154.418C97.4693 157.736 83.9929 149.649 80.6782 136.354C77.3634 123.059 85.4655 109.592 98.7747 106.273C112.084 102.955 125.56 111.043 128.875 124.337Z" fill="#CECECE"/>
</g>
</g>
<defs>
<filter id="filter0_d_13_3252" x="-4.3967" y="-5.26104" width="330.794" height="382.369" filterUnits="userSpaceOnUse" color-interpolation-filters="sRGB">
<feFlood flood-opacity="0" result="BackgroundImageFix"/>
<feColorMatrix in="SourceAlpha" type="matrix" values="0 0 0 0 0 0 0 0 0 0 0 0 0 0 0 0 0 0 127 0" result="hardAlpha"/>
<feOffset/>
<feGaussianBlur stdDeviation="16"/>
<feComposite in2="hardAlpha" operator="out"/>
<feColorMatrix type="matrix" values="0 0 0 0 0.4 0 0 0 0 0.184314 0 0 0 0 1 0 0 0 0.12 0"/>
<feBlend mode="normal" in2="BackgroundImageFix" result="effect1_dropShadow_13_3252"/>
<feBlend mode="normal" in="SourceGraphic" in2="effect1_dropShadow_13_3252" result="shape"/>
</filter>
<clipPath id="clip0_13_3252">
<rect width="322" height="363.25" rx="12" fill="white"/>
</clipPath>
</defs>
</svg>
