<svg width="387" height="302" viewBox="0 0 387 302" fill="none" xmlns="http://www.w3.org/2000/svg">
<g filter="url(#filter0_d_13_3219)">
<rect x="32.5" y="32" width="322" height="368" rx="12" fill="white" shape-rendering="crispEdges"/>
<path d="M48.6016 66L52.7578 54.3594H55.3516L59.4922 66H57.2188L56.2891 63.2188H51.7734L50.8203 66H48.6016ZM52.3516 61.5234H55.7266L55.1797 59.8828C55.0078 59.3464 54.8307 58.7865 54.6484 58.2031C54.4714 57.6198 54.2734 56.9609 54.0547 56.2266C53.8359 56.9609 53.6354 57.6198 53.4531 58.2031C53.2708 58.7865 53.0911 59.3464 52.9141 59.8828L52.3516 61.5234ZM63.3125 66.1641C62.5938 66.1641 61.9661 65.9844 61.4297 65.625C60.8932 65.2656 60.4766 64.7656 60.1797 64.125C59.888 63.4792 59.7422 62.7266 59.7422 61.8672C59.7422 61.0234 59.8906 60.2812 60.1875 59.6406C60.4844 58.9948 60.901 58.4922 61.4375 58.1328C61.974 57.7682 62.5938 57.5859 63.2969 57.5859C63.8333 57.5859 64.3151 57.6953 64.7422 57.9141C65.1693 58.1328 65.5156 58.4688 65.7812 58.9219H65.7969V54.3594H67.7656V66H65.8281V64.7422H65.8125C65.5521 65.2214 65.2031 65.5781 64.7656 65.8125C64.3333 66.0469 63.849 66.1641 63.3125 66.1641ZM63.7734 64.5156C64.4193 64.5156 64.9349 64.276 65.3203 63.7969C65.7109 63.3125 65.9062 62.6693 65.9062 61.8672C65.9062 61.0651 65.7109 60.4245 65.3203 59.9453C64.9349 59.4609 64.4193 59.2188 63.7734 59.2188C63.1641 59.2188 62.6719 59.4479 62.2969 59.9062C61.9219 60.3646 61.7344 61.0182 61.7344 61.8672C61.7344 62.7214 61.9219 63.3776 62.2969 63.8359C62.6719 64.2891 63.1641 64.5156 63.7734 64.5156ZM72.7031 66.1641C71.9844 66.1641 71.3568 65.9844 70.8203 65.625C70.2839 65.2656 69.8672 64.7656 69.5703 64.125C69.2786 63.4792 69.1328 62.7266 69.1328 61.8672C69.1328 61.0234 69.2812 60.2812 69.5781 59.6406C69.875 58.9948 70.2917 58.4922 70.8281 58.1328C71.3646 57.7682 71.9844 57.5859 72.6875 57.5859C73.224 57.5859 73.7057 57.6953 74.1328 57.9141C74.5599 58.1328 74.9062 58.4688 75.1719 58.9219H75.1875V54.3594H77.1562V66H75.2188V64.7422H75.2031C74.9427 65.2214 74.5938 65.5781 74.1562 65.8125C73.724 66.0469 73.2396 66.1641 72.7031 66.1641ZM73.1641 64.5156C73.8099 64.5156 74.3255 64.276 74.7109 63.7969C75.1016 63.3125 75.2969 62.6693 75.2969 61.8672C75.2969 61.0651 75.1016 60.4245 74.7109 59.9453C74.3255 59.4609 73.8099 59.2188 73.1641 59.2188C72.5547 59.2188 72.0625 59.4479 71.6875 59.9062C71.3125 60.3646 71.125 61.0182 71.125 61.8672C71.125 62.7214 71.3125 63.3776 71.6875 63.8359C72.0625 64.2891 72.5547 64.5156 73.1641 64.5156ZM82.625 66V54.3594H87.0703C87.9245 54.3594 88.6615 54.5104 89.2812 54.8125C89.9062 55.1146 90.3854 55.5443 90.7188 56.1016C91.0573 56.6589 91.2266 57.3177 91.2266 58.0781C91.2266 58.8438 91.0547 59.5052 90.7109 60.0625C90.3672 60.6198 89.8802 61.0521 89.25 61.3594C88.625 61.6615 87.8854 61.8125 87.0312 61.8125H84.6875V66H82.625ZM84.6875 60.0469H86.9531C87.6458 60.0469 88.1927 59.8724 88.5938 59.5234C88.9948 59.1693 89.1953 58.6875 89.1953 58.0781C89.1953 57.474 88.9948 56.9974 88.5938 56.6484C88.1927 56.2995 87.6458 56.125 86.9531 56.125H84.6875V60.0469ZM94.6875 66.1328C93.8646 66.1328 93.1823 65.9271 92.6406 65.5156C92.1042 65.099 91.8359 64.4792 91.8359 63.6562C91.8359 63.0312 91.987 62.5495 92.2891 62.2109C92.5964 61.8672 92.9948 61.6172 93.4844 61.4609C93.9792 61.3047 94.5104 61.1979 95.0781 61.1406C95.8438 61.0521 96.3776 60.974 96.6797 60.9062C96.9818 60.8385 97.1328 60.6641 97.1328 60.3828V60.3203C97.1328 59.9661 96.9974 59.6771 96.7266 59.4531C96.4609 59.2292 96.0938 59.1172 95.625 59.1172C95.1458 59.1172 94.7552 59.2292 94.4531 59.4531C94.1562 59.6771 93.9948 59.9635 93.9688 60.3125H92.0703C92.1172 59.4948 92.4583 58.8359 93.0938 58.3359C93.7292 57.8359 94.5859 57.5859 95.6641 57.5859C96.737 57.5859 97.5755 57.8359 98.1797 58.3359C98.7839 58.8359 99.0859 59.5156 99.0859 60.375V66H97.1484V64.8359H97.1172C96.9193 65.2005 96.6328 65.5078 96.2578 65.7578C95.8828 66.0078 95.3594 66.1328 94.6875 66.1328ZM95.1719 64.6719C95.8177 64.6719 96.3073 64.5052 96.6406 64.1719C96.974 63.8333 97.1406 63.4245 97.1406 62.9453V62.0547C97.0208 62.1328 96.7891 62.2057 96.4453 62.2734C96.1016 62.3359 95.7266 62.3984 95.3203 62.4609C94.8984 62.5234 94.5312 62.6432 94.2188 62.8203C93.9115 62.9922 93.7578 63.2656 93.7578 63.6406C93.7578 63.9635 93.8854 64.2161 94.1406 64.3984C94.3958 64.5807 94.7396 64.6719 95.1719 64.6719ZM105.18 57.75V59.3359H103.5V63.6328C103.5 63.9297 103.56 64.1354 103.68 64.25C103.799 64.3594 104.018 64.4141 104.336 64.4141H105.18V66H103.992C103.154 66 102.531 65.8307 102.125 65.4922C101.724 65.1536 101.523 64.6302 101.523 63.9219V59.3359H100.086V57.75H101.523V55.5H103.5V57.75H105.18ZM106.422 66V57.75H108.391V66H106.422ZM107.406 56.5234C107.068 56.5234 106.786 56.4167 106.562 56.2031C106.339 55.9844 106.227 55.7161 106.227 55.3984C106.227 55.0807 106.339 54.8151 106.562 54.6016C106.786 54.388 107.068 54.2812 107.406 54.2812C107.74 54.2812 108.018 54.388 108.242 54.6016C108.466 54.8151 108.578 55.0807 108.578 55.3984C108.578 55.7161 108.466 55.9844 108.242 56.2031C108.018 56.4167 107.74 56.5234 107.406 56.5234ZM113.781 66.1875C112.958 66.1875 112.245 66.0026 111.641 65.6328C111.036 65.263 110.57 64.7552 110.242 64.1094C109.919 63.4583 109.758 62.7161 109.758 61.8828C109.758 61.0443 109.924 60.3021 110.258 59.6562C110.596 59.0052 111.062 58.4948 111.656 58.125C112.25 57.75 112.932 57.5625 113.703 57.5625C114.495 57.5625 115.188 57.7448 115.781 58.1094C116.375 58.474 116.836 58.9792 117.164 59.625C117.492 60.2656 117.656 61.0078 117.656 61.8516V62.3906H111.688C111.714 63.0625 111.911 63.6042 112.281 64.0156C112.651 64.4271 113.167 64.6328 113.828 64.6328C114.323 64.6328 114.732 64.526 115.055 64.3125C115.378 64.0938 115.596 63.8073 115.711 63.4531H117.555C117.451 63.9896 117.221 64.4635 116.867 64.875C116.518 65.2865 116.078 65.6094 115.547 65.8438C115.016 66.0729 114.427 66.1875 113.781 66.1875ZM111.703 61.0312H115.766C115.703 60.4427 115.49 59.9792 115.125 59.6406C114.766 59.2969 114.302 59.125 113.734 59.125C113.161 59.125 112.695 59.2969 112.336 59.6406C111.982 59.9792 111.771 60.4427 111.703 61.0312ZM120.969 61.3359V66H119V57.75H120.938V59.0156C121.51 58.0625 122.354 57.5859 123.469 57.5859C124.333 57.5859 125.039 57.8646 125.586 58.4219C126.138 58.9792 126.414 59.7865 126.414 60.8438V66H124.438V61.1562C124.438 60.5521 124.292 60.0938 124 59.7812C123.708 59.4688 123.299 59.3125 122.773 59.3125C122.258 59.3125 121.828 59.474 121.484 59.7969C121.141 60.1198 120.969 60.6328 120.969 61.3359ZM132.523 57.75V59.3359H130.844V63.6328C130.844 63.9297 130.904 64.1354 131.023 64.25C131.143 64.3594 131.362 64.4141 131.68 64.4141H132.523V66H131.336C130.497 66 129.875 65.8307 129.469 65.4922C129.068 65.1536 128.867 64.6302 128.867 63.9219V59.3359H127.43V57.75H128.867V55.5H130.844V57.75H132.523Z" fill="#383540"/>
<path d="M49.4297 103V92.8145H56.0605V94.1475H50.9473V97.1963H55.6709V98.5088H50.9473V103H49.4297ZM57.2021 103V95.7812H58.6445V103H57.2021ZM57.9199 94.5371C57.6647 94.5371 57.4482 94.4528 57.2705 94.2842C57.0973 94.111 57.0107 93.9014 57.0107 93.6553C57.0107 93.4046 57.0973 93.195 57.2705 93.0264C57.4482 92.8532 57.6647 92.7666 57.9199 92.7666C58.1751 92.7666 58.3916 92.8532 58.5693 93.0264C58.7471 93.195 58.8359 93.4046 58.8359 93.6553C58.8359 93.9014 58.7471 94.111 58.5693 94.2842C58.3916 94.4528 58.1751 94.5371 57.9199 94.5371ZM60.2783 103V95.7812H61.6592V96.9502H61.6865C61.8187 96.5537 62.026 96.2461 62.3086 96.0273C62.5957 95.804 62.9694 95.6924 63.4297 95.6924C63.5391 95.6924 63.6393 95.6969 63.7305 95.7061C63.8216 95.7152 63.8968 95.722 63.9561 95.7266V97.0732C63.9014 97.0596 63.8034 97.0459 63.6621 97.0322C63.5208 97.014 63.3659 97.0049 63.1973 97.0049C62.7917 97.0049 62.443 97.1462 62.1514 97.4287C61.8643 97.7113 61.7207 98.1465 61.7207 98.7344V103H60.2783ZM67.709 103.171C67.1576 103.171 66.6608 103.082 66.2188 102.904C65.7767 102.727 65.4189 102.462 65.1455 102.111C64.8766 101.76 64.7262 101.325 64.6943 100.806H66.1162C66.1982 101.617 66.7201 102.022 67.6816 102.022C68.1374 102.022 68.4974 101.929 68.7617 101.742C69.0306 101.555 69.165 101.318 69.165 101.031C69.165 100.785 69.0693 100.589 68.8779 100.443C68.6865 100.293 68.4359 100.184 68.126 100.115L66.9297 99.8486C65.5488 99.5479 64.8584 98.8597 64.8584 97.7842C64.8584 97.1462 65.1113 96.6266 65.6172 96.2256C66.1276 95.8245 66.7952 95.624 67.6201 95.624C68.4359 95.624 69.1058 95.8359 69.6299 96.2598C70.1585 96.679 70.432 97.2533 70.4502 97.9824H69.0693C69.0648 97.6315 68.9326 97.3421 68.6729 97.1143C68.4131 96.8818 68.069 96.7656 67.6406 96.7656C67.2305 96.7656 66.9046 96.8613 66.6631 97.0527C66.4215 97.2441 66.3008 97.4788 66.3008 97.7568C66.3008 98.0029 66.3919 98.2012 66.5742 98.3516C66.7611 98.502 67.0163 98.6136 67.3398 98.6865L68.5703 98.96C69.2721 99.1149 69.7894 99.3542 70.1221 99.6777C70.4548 100.001 70.6211 100.425 70.6211 100.949C70.6211 101.41 70.4935 101.806 70.2383 102.139C69.9876 102.467 69.6436 102.722 69.2061 102.904C68.7686 103.082 68.2695 103.171 67.709 103.171ZM75.5156 95.7812V96.9707H74.0527V101.093C74.0527 101.362 74.1074 101.549 74.2168 101.653C74.3262 101.758 74.5244 101.811 74.8115 101.811H75.5156V103H74.6064C73.2712 103 72.6035 102.426 72.6035 101.277V96.9707H71.332V95.7812H72.6035V93.8125H74.0527V95.7812H75.5156ZM81.4355 98.8438V103H79.9932V95.7812H81.4082V96.8682C81.9004 96.0479 82.6273 95.6377 83.5889 95.6377C84.0856 95.6377 84.5299 95.7471 84.9219 95.9658C85.3184 96.18 85.6305 96.499 85.8584 96.9229C86.0863 97.3467 86.2002 97.873 86.2002 98.502V103H84.7578V98.6797C84.7578 98.1009 84.6188 97.6657 84.3408 97.374C84.0628 97.0778 83.6755 96.9297 83.1787 96.9297C82.6865 96.9297 82.2718 97.0824 81.9346 97.3877C81.6019 97.6885 81.4355 98.1738 81.4355 98.8438ZM90.0283 103.116C89.3083 103.116 88.7113 102.934 88.2373 102.569C87.7633 102.2 87.5264 101.656 87.5264 100.936C87.5264 100.389 87.6608 99.9694 87.9297 99.6777C88.2031 99.3815 88.5563 99.1696 88.9893 99.042C89.4268 98.9144 89.8893 98.821 90.377 98.7617C90.8281 98.707 91.1859 98.6615 91.4502 98.625C91.7145 98.5885 91.9014 98.5339 92.0107 98.4609C92.1247 98.388 92.1816 98.2627 92.1816 98.085V98.0234C92.1816 97.6725 92.054 97.3854 91.7988 97.1621C91.5436 96.9342 91.1859 96.8203 90.7256 96.8203C90.2653 96.8203 89.8893 96.932 89.5977 97.1553C89.306 97.374 89.1465 97.6497 89.1191 97.9824H87.7041C87.736 97.2943 88.0254 96.7314 88.5723 96.2939C89.1191 95.8564 89.8438 95.6377 90.7461 95.6377C91.6348 95.6377 92.3343 95.8564 92.8447 96.2939C93.3551 96.7314 93.6104 97.3171 93.6104 98.0508V103H92.1885V101.975H92.1611C92.0107 102.266 91.7715 102.531 91.4434 102.768C91.1198 103 90.6481 103.116 90.0283 103.116ZM90.3223 101.954C90.9603 101.954 91.4297 101.79 91.7305 101.462C92.0358 101.129 92.1885 100.742 92.1885 100.3V99.4521C92.0928 99.5296 91.8763 99.6003 91.5391 99.6641C91.2018 99.7233 90.8418 99.7803 90.459 99.835C90.0625 99.8942 89.7139 100.006 89.4131 100.17C89.1123 100.334 88.9619 100.598 88.9619 100.963C88.9619 101.273 89.0827 101.517 89.3242 101.694C89.5703 101.868 89.903 101.954 90.3223 101.954ZM95.2373 103V95.7812H96.6387V96.9912C96.862 96.5446 97.165 96.2074 97.5479 95.9795C97.9307 95.7516 98.3454 95.6377 98.792 95.6377C99.2842 95.6377 99.7148 95.763 100.084 96.0137C100.458 96.2643 100.72 96.5833 100.87 96.9707C101.066 96.5788 101.362 96.2598 101.759 96.0137C102.16 95.763 102.627 95.6377 103.16 95.6377C103.607 95.6377 104.012 95.7357 104.377 95.9316C104.742 96.1276 105.031 96.4193 105.245 96.8066C105.459 97.1895 105.566 97.6702 105.566 98.249V103H104.117V98.3721C104.117 97.8571 103.974 97.4834 103.687 97.251C103.399 97.0186 103.06 96.9023 102.668 96.9023C102.185 96.9023 101.804 97.0527 101.526 97.3535C101.248 97.6497 101.109 98.028 101.109 98.4883V103H99.6875V98.2764C99.6875 97.8617 99.5531 97.529 99.2842 97.2783C99.0199 97.0277 98.6826 96.9023 98.2725 96.9023C97.8532 96.9023 97.4818 97.0505 97.1582 97.3467C96.8392 97.6429 96.6797 98.0758 96.6797 98.6455V103H95.2373ZM110.283 103.164C109.568 103.164 108.952 103.002 108.438 102.679C107.927 102.355 107.533 101.911 107.255 101.346C106.981 100.776 106.845 100.129 106.845 99.4043C106.845 98.6706 106.988 98.0189 107.275 97.4492C107.562 96.8796 107.959 96.4329 108.465 96.1094C108.971 95.7812 109.552 95.6172 110.208 95.6172C110.892 95.6172 111.484 95.7767 111.985 96.0957C112.491 96.4147 112.883 96.859 113.161 97.4287C113.439 97.9938 113.578 98.6478 113.578 99.3906V99.7803H108.267C108.294 100.432 108.481 100.958 108.827 101.359C109.178 101.76 109.67 101.961 110.304 101.961C110.778 101.961 111.167 101.854 111.473 101.64C111.778 101.425 111.981 101.147 112.081 100.806H113.469C113.382 101.271 113.188 101.681 112.888 102.036C112.591 102.392 112.218 102.67 111.767 102.87C111.32 103.066 110.826 103.164 110.283 103.164ZM108.28 98.6865H112.17C112.111 98.1123 111.908 97.6589 111.562 97.3262C111.215 96.9889 110.769 96.8203 110.222 96.8203C109.675 96.8203 109.228 96.9889 108.882 97.3262C108.54 97.6589 108.34 98.1123 108.28 98.6865Z" fill="#383540"/>
<rect x="49" y="112.5" width="289" height="43" rx="7.5" stroke="#E5E7EB"/>
<path d="M64.6172 138L67.8398 129.27H69.0352L72.2227 138H71.0977L70.2422 135.551H66.5977L65.7188 138H64.6172ZM66.9316 134.613H69.9199L69.2637 132.738C69.1543 132.43 69.0352 132.086 68.9062 131.707C68.7812 131.324 68.625 130.842 68.4375 130.26C68.25 130.842 68.0918 131.324 67.9629 131.707C67.8379 132.086 67.7188 132.43 67.6055 132.738L66.9316 134.613ZM72.3047 140.449V139.57H72.9141C73.2812 139.57 73.5605 139.322 73.752 138.826L74.0918 137.947L71.6953 131.812H72.7734L74.1094 135.375C74.1953 135.605 74.2793 135.838 74.3613 136.072C74.4473 136.303 74.5293 136.533 74.6074 136.764C74.6895 136.533 74.7715 136.303 74.8535 136.072C74.9395 135.838 75.0254 135.605 75.1113 135.375L76.4238 131.812H77.4844L74.6309 139.148C74.4707 139.562 74.2422 139.883 73.9453 140.109C73.6484 140.336 73.3047 140.449 72.9141 140.449H72.3047ZM80.7188 138.141C80.1484 138.141 79.6465 138.004 79.2129 137.73C78.7832 137.453 78.4473 137.072 78.2051 136.588C77.9668 136.104 77.8477 135.547 77.8477 134.918C77.8477 134.285 77.9668 133.725 78.2051 133.236C78.4473 132.748 78.7832 132.365 79.2129 132.088C79.6465 131.811 80.1484 131.672 80.7188 131.672C81.293 131.672 81.7949 131.811 82.2246 132.088C82.6543 132.365 82.9883 132.748 83.2266 133.236C83.4688 133.725 83.5898 134.285 83.5898 134.918C83.5898 135.547 83.4688 136.104 83.2266 136.588C82.9883 137.072 82.6543 137.453 82.2246 137.73C81.7949 138.004 81.293 138.141 80.7188 138.141ZM80.7188 137.238C81.3047 137.238 81.7617 137.027 82.0898 136.605C82.418 136.18 82.582 135.617 82.582 134.918C82.582 134.211 82.416 133.645 82.084 133.219C81.7559 132.789 81.3008 132.574 80.7188 132.574C80.1367 132.574 79.6797 132.787 79.3477 133.213C79.0195 133.639 78.8555 134.207 78.8555 134.918C78.8555 135.621 79.0195 136.184 79.3477 136.605C79.6758 137.027 80.1328 137.238 80.7188 137.238ZM87.1172 138.117C86.582 138.117 86.1113 137.982 85.7051 137.713C85.3027 137.439 84.9902 137.062 84.7676 136.582C84.5449 136.098 84.4336 135.539 84.4336 134.906C84.4336 134.27 84.5449 133.711 84.7676 133.23C84.9902 132.746 85.3027 132.369 85.7051 132.1C86.1113 131.83 86.582 131.695 87.1172 131.695C87.5195 131.695 87.8926 131.781 88.2363 131.953C88.5801 132.121 88.8516 132.379 89.0508 132.727H89.0625V129.27H90.0586V138H89.0859V137.062H89.0742C88.8516 137.418 88.5703 137.684 88.2305 137.859C87.8906 138.031 87.5195 138.117 87.1172 138.117ZM87.2695 137.221C87.8438 137.221 88.2988 137.01 88.6348 136.588C88.9746 136.166 89.1445 135.605 89.1445 134.906C89.1445 134.207 88.9746 133.646 88.6348 133.225C88.2988 132.799 87.8438 132.586 87.2695 132.586C86.7344 132.586 86.2949 132.783 85.9512 133.178C85.6113 133.572 85.4414 134.148 85.4414 134.906C85.4414 135.664 85.6113 136.24 85.9512 136.635C86.2949 137.025 86.7344 137.221 87.2695 137.221ZM94.0898 138.141C93.4844 138.141 92.9668 138.002 92.5371 137.725C92.1113 137.447 91.7852 137.066 91.5586 136.582C91.332 136.094 91.2188 135.539 91.2188 134.918C91.2188 134.289 91.3379 133.73 91.5762 133.242C91.8145 132.754 92.1445 132.371 92.5664 132.094C92.9883 131.812 93.4727 131.672 94.0195 131.672C94.5938 131.672 95.0918 131.809 95.5137 132.082C95.9355 132.355 96.2598 132.736 96.4863 133.225C96.7168 133.713 96.832 134.277 96.832 134.918V135.193H92.2031C92.2266 135.799 92.4004 136.291 92.7246 136.67C93.0488 137.049 93.5039 137.238 94.0898 137.238C94.5312 137.238 94.8906 137.137 95.168 136.934C95.4492 136.73 95.6367 136.469 95.7305 136.148H96.7266C96.6484 136.543 96.4863 136.891 96.2402 137.191C95.9941 137.488 95.6855 137.721 95.3145 137.889C94.9473 138.057 94.5391 138.141 94.0898 138.141ZM92.2148 134.338H95.8359C95.7812 133.795 95.5918 133.363 95.2676 133.043C94.9434 132.723 94.5273 132.562 94.0195 132.562C93.5117 132.562 93.0977 132.723 92.7773 133.043C92.457 133.363 92.2695 133.795 92.2148 134.338ZM97.9688 131.812H98.9648V138.867C98.9648 139.316 98.8242 139.691 98.543 139.992C98.2617 140.297 97.8594 140.449 97.3359 140.449H96.9023V139.57H97.2422C97.4961 139.57 97.6797 139.502 97.793 139.365C97.9102 139.229 97.9688 139.012 97.9688 138.715V131.812ZM98.4668 130.605C98.2793 130.605 98.1191 130.539 97.9863 130.406C97.8535 130.273 97.7871 130.113 97.7871 129.926C97.7871 129.738 97.8535 129.578 97.9863 129.445C98.1191 129.312 98.2793 129.246 98.4668 129.246C98.6543 129.246 98.8145 129.312 98.9473 129.445C99.0801 129.578 99.1465 129.738 99.1465 129.926C99.1465 130.113 99.0801 130.273 98.9473 130.406C98.8145 130.539 98.6543 130.605 98.4668 130.605ZM100.441 138V131.812H101.438V138H100.441ZM100.939 130.605C100.752 130.605 100.592 130.539 100.459 130.406C100.326 130.273 100.26 130.113 100.26 129.926C100.26 129.738 100.326 129.578 100.459 129.445C100.592 129.312 100.752 129.246 100.939 129.246C101.127 129.246 101.287 129.312 101.42 129.445C101.553 129.578 101.619 129.738 101.619 129.926C101.619 130.113 101.553 130.273 101.42 130.406C101.287 130.539 101.127 130.605 100.939 130.605Z" fill="#D2D6DB"/>
<path d="M49.4297 179V168.814H50.9473V177.667H55.7666V179H49.4297ZM59.1162 179.116C58.3962 179.116 57.7992 178.934 57.3252 178.569C56.8512 178.2 56.6143 177.656 56.6143 176.936C56.6143 176.389 56.7487 175.969 57.0176 175.678C57.291 175.382 57.6442 175.17 58.0771 175.042C58.5146 174.914 58.9772 174.821 59.4648 174.762C59.916 174.707 60.2738 174.661 60.5381 174.625C60.8024 174.589 60.9893 174.534 61.0986 174.461C61.2126 174.388 61.2695 174.263 61.2695 174.085V174.023C61.2695 173.673 61.1419 173.385 60.8867 173.162C60.6315 172.934 60.2738 172.82 59.8135 172.82C59.3532 172.82 58.9772 172.932 58.6855 173.155C58.3939 173.374 58.2344 173.65 58.207 173.982H56.792C56.8239 173.294 57.1133 172.731 57.6602 172.294C58.207 171.856 58.9316 171.638 59.834 171.638C60.7227 171.638 61.4222 171.856 61.9326 172.294C62.443 172.731 62.6982 173.317 62.6982 174.051V179H61.2764V177.975H61.249C61.0986 178.266 60.8594 178.531 60.5312 178.768C60.2077 179 59.736 179.116 59.1162 179.116ZM59.4102 177.954C60.0482 177.954 60.5176 177.79 60.8184 177.462C61.1237 177.129 61.2764 176.742 61.2764 176.3V175.452C61.1807 175.53 60.9642 175.6 60.627 175.664C60.2897 175.723 59.9297 175.78 59.5469 175.835C59.1504 175.894 58.8018 176.006 58.501 176.17C58.2002 176.334 58.0498 176.598 58.0498 176.963C58.0498 177.273 58.1706 177.517 58.4121 177.694C58.6582 177.868 58.9909 177.954 59.4102 177.954ZM66.998 179.171C66.4466 179.171 65.9499 179.082 65.5078 178.904C65.0658 178.727 64.708 178.462 64.4346 178.111C64.1657 177.76 64.0153 177.325 63.9834 176.806H65.4053C65.4873 177.617 66.0091 178.022 66.9707 178.022C67.4264 178.022 67.7865 177.929 68.0508 177.742C68.3197 177.555 68.4541 177.318 68.4541 177.031C68.4541 176.785 68.3584 176.589 68.167 176.443C67.9756 176.293 67.7249 176.184 67.415 176.115L66.2188 175.849C64.8379 175.548 64.1475 174.86 64.1475 173.784C64.1475 173.146 64.4004 172.627 64.9062 172.226C65.4167 171.825 66.0843 171.624 66.9092 171.624C67.7249 171.624 68.3949 171.836 68.9189 172.26C69.4476 172.679 69.721 173.253 69.7393 173.982H68.3584C68.3538 173.632 68.2217 173.342 67.9619 173.114C67.7021 172.882 67.3581 172.766 66.9297 172.766C66.5195 172.766 66.1937 172.861 65.9521 173.053C65.7106 173.244 65.5898 173.479 65.5898 173.757C65.5898 174.003 65.681 174.201 65.8633 174.352C66.0501 174.502 66.3053 174.614 66.6289 174.687L67.8594 174.96C68.5612 175.115 69.0785 175.354 69.4111 175.678C69.7438 176.001 69.9102 176.425 69.9102 176.949C69.9102 177.41 69.7826 177.806 69.5273 178.139C69.2767 178.467 68.9326 178.722 68.4951 178.904C68.0576 179.082 67.5586 179.171 66.998 179.171ZM74.8047 171.781V172.971H73.3418V177.093C73.3418 177.362 73.3965 177.549 73.5059 177.653C73.6152 177.758 73.8135 177.811 74.1006 177.811H74.8047V179H73.8955C72.5602 179 71.8926 178.426 71.8926 177.277V172.971H70.6211V171.781H71.8926V169.812H73.3418V171.781H74.8047ZM80.7246 174.844V179H79.2822V171.781H80.6973V172.868C81.1895 172.048 81.9163 171.638 82.8779 171.638C83.3747 171.638 83.819 171.747 84.2109 171.966C84.6074 172.18 84.9196 172.499 85.1475 172.923C85.3753 173.347 85.4893 173.873 85.4893 174.502V179H84.0469V174.68C84.0469 174.101 83.9079 173.666 83.6299 173.374C83.3519 173.078 82.9645 172.93 82.4678 172.93C81.9756 172.93 81.5609 173.082 81.2236 173.388C80.891 173.688 80.7246 174.174 80.7246 174.844ZM89.3174 179.116C88.5973 179.116 88.0003 178.934 87.5264 178.569C87.0524 178.2 86.8154 177.656 86.8154 176.936C86.8154 176.389 86.9499 175.969 87.2188 175.678C87.4922 175.382 87.8454 175.17 88.2783 175.042C88.7158 174.914 89.1784 174.821 89.666 174.762C90.1172 174.707 90.4749 174.661 90.7393 174.625C91.0036 174.589 91.1904 174.534 91.2998 174.461C91.4137 174.388 91.4707 174.263 91.4707 174.085V174.023C91.4707 173.673 91.3431 173.385 91.0879 173.162C90.8327 172.934 90.4749 172.82 90.0146 172.82C89.5544 172.82 89.1784 172.932 88.8867 173.155C88.5951 173.374 88.4355 173.65 88.4082 173.982H86.9932C87.0251 173.294 87.3145 172.731 87.8613 172.294C88.4082 171.856 89.1328 171.638 90.0352 171.638C90.9238 171.638 91.6234 171.856 92.1338 172.294C92.6442 172.731 92.8994 173.317 92.8994 174.051V179H91.4775V177.975H91.4502C91.2998 178.266 91.0605 178.531 90.7324 178.768C90.4089 179 89.9372 179.116 89.3174 179.116ZM89.6113 177.954C90.2493 177.954 90.7188 177.79 91.0195 177.462C91.3249 177.129 91.4775 176.742 91.4775 176.3V175.452C91.3818 175.53 91.1654 175.6 90.8281 175.664C90.4909 175.723 90.1309 175.78 89.748 175.835C89.3516 175.894 89.0029 176.006 88.7021 176.17C88.4014 176.334 88.251 176.598 88.251 176.963C88.251 177.273 88.3717 177.517 88.6133 177.694C88.8594 177.868 89.1921 177.954 89.6113 177.954ZM94.5264 179V171.781H95.9277V172.991C96.151 172.545 96.4541 172.207 96.8369 171.979C97.2197 171.752 97.6344 171.638 98.0811 171.638C98.5732 171.638 99.0039 171.763 99.373 172.014C99.7467 172.264 100.009 172.583 100.159 172.971C100.355 172.579 100.651 172.26 101.048 172.014C101.449 171.763 101.916 171.638 102.449 171.638C102.896 171.638 103.301 171.736 103.666 171.932C104.031 172.128 104.32 172.419 104.534 172.807C104.748 173.189 104.855 173.67 104.855 174.249V179H103.406V174.372C103.406 173.857 103.263 173.483 102.976 173.251C102.688 173.019 102.349 172.902 101.957 172.902C101.474 172.902 101.093 173.053 100.815 173.354C100.537 173.65 100.398 174.028 100.398 174.488V179H98.9766V174.276C98.9766 173.862 98.8421 173.529 98.5732 173.278C98.3089 173.028 97.9717 172.902 97.5615 172.902C97.1423 172.902 96.7708 173.05 96.4473 173.347C96.1283 173.643 95.9688 174.076 95.9688 174.646V179H94.5264ZM109.572 179.164C108.857 179.164 108.242 179.002 107.727 178.679C107.216 178.355 106.822 177.911 106.544 177.346C106.271 176.776 106.134 176.129 106.134 175.404C106.134 174.671 106.277 174.019 106.564 173.449C106.852 172.88 107.248 172.433 107.754 172.109C108.26 171.781 108.841 171.617 109.497 171.617C110.181 171.617 110.773 171.777 111.274 172.096C111.78 172.415 112.172 172.859 112.45 173.429C112.728 173.994 112.867 174.648 112.867 175.391V175.78H107.556C107.583 176.432 107.77 176.958 108.116 177.359C108.467 177.76 108.959 177.961 109.593 177.961C110.067 177.961 110.456 177.854 110.762 177.64C111.067 177.425 111.27 177.147 111.37 176.806H112.758C112.671 177.271 112.478 177.681 112.177 178.036C111.881 178.392 111.507 178.67 111.056 178.87C110.609 179.066 110.115 179.164 109.572 179.164ZM107.569 174.687H111.459C111.4 174.112 111.197 173.659 110.851 173.326C110.504 172.989 110.058 172.82 109.511 172.82C108.964 172.82 108.517 172.989 108.171 173.326C107.829 173.659 107.629 174.112 107.569 174.687Z" fill="#383540"/>
<rect x="49" y="188.5" width="289" height="43" rx="7.5" stroke="#E5E7EB"/>
<path d="M65.3672 214V205.27H66.4219V213.062H70.6289V214H65.3672ZM73.5469 214.094C72.9336 214.094 72.4199 213.936 72.0059 213.619C71.5957 213.303 71.3906 212.836 71.3906 212.219C71.3906 211.863 71.459 211.574 71.5957 211.352C71.7363 211.129 71.9219 210.955 72.1523 210.83C72.3867 210.701 72.6504 210.604 72.9434 210.537C73.2402 210.471 73.543 210.418 73.8516 210.379C74.2461 210.324 74.5566 210.283 74.7832 210.256C75.0098 210.229 75.1699 210.184 75.2637 210.121C75.3613 210.059 75.4102 209.949 75.4102 209.793V209.734C75.4102 209.398 75.2891 209.121 75.0469 208.902C74.8086 208.684 74.4727 208.574 74.0391 208.574C73.6094 208.574 73.2559 208.68 72.9785 208.891C72.7051 209.098 72.5566 209.355 72.5332 209.664H71.5195C71.5391 209.285 71.6562 208.949 71.8711 208.656C72.0859 208.359 72.3789 208.125 72.75 207.953C73.1211 207.781 73.5508 207.695 74.0391 207.695C74.7617 207.695 75.334 207.883 75.7559 208.258C76.1816 208.629 76.3945 209.121 76.3945 209.734V214H75.4102V213.121H75.3867C75.3125 213.27 75.2031 213.42 75.0586 213.572C74.9141 213.721 74.7188 213.846 74.4727 213.947C74.2305 214.045 73.9219 214.094 73.5469 214.094ZM73.6875 213.203C74.0938 213.203 74.4238 213.131 74.6777 212.986C74.9316 212.838 75.1172 212.646 75.2344 212.412C75.3516 212.178 75.4102 211.926 75.4102 211.656V210.883C75.3359 210.953 75.1387 211.018 74.8184 211.076C74.498 211.131 74.1602 211.184 73.8047 211.234C73.5664 211.266 73.3398 211.32 73.125 211.398C72.9141 211.473 72.7422 211.58 72.6094 211.721C72.4766 211.857 72.4102 212.043 72.4102 212.277C72.4102 212.566 72.5234 212.793 72.75 212.957C72.9805 213.121 73.293 213.203 73.6875 213.203ZM79.2305 214L77.3086 207.812H78.3516L79.1309 210.531C79.2402 210.906 79.3438 211.289 79.4414 211.68C79.543 212.07 79.6445 212.457 79.7461 212.84C79.8477 212.457 79.9492 212.07 80.0508 211.68C80.1523 211.289 80.2578 210.906 80.3672 210.531L81.1523 207.812H82.1367L82.9102 210.531C83.0156 210.902 83.1172 211.281 83.2148 211.668C83.3164 212.055 83.418 212.436 83.5195 212.811C83.6211 212.436 83.7227 212.055 83.8242 211.668C83.9258 211.281 84.0312 210.902 84.1406 210.531L84.9375 207.812H85.9805L84.0586 214H83.0156L82.2012 211.188C82.1035 210.848 82.0098 210.502 81.9199 210.15C81.8301 209.795 81.7383 209.443 81.6445 209.096C81.5547 209.443 81.4629 209.795 81.3691 210.15C81.2754 210.502 81.1797 210.848 81.082 211.188L80.25 214H79.2305ZM88.7227 214.094C88.1094 214.094 87.5957 213.936 87.1816 213.619C86.7715 213.303 86.5664 212.836 86.5664 212.219C86.5664 211.863 86.6348 211.574 86.7715 211.352C86.9121 211.129 87.0977 210.955 87.3281 210.83C87.5625 210.701 87.8262 210.604 88.1191 210.537C88.416 210.471 88.7188 210.418 89.0273 210.379C89.4219 210.324 89.7324 210.283 89.959 210.256C90.1855 210.229 90.3457 210.184 90.4395 210.121C90.5371 210.059 90.5859 209.949 90.5859 209.793V209.734C90.5859 209.398 90.4648 209.121 90.2227 208.902C89.9844 208.684 89.6484 208.574 89.2148 208.574C88.7852 208.574 88.4316 208.68 88.1543 208.891C87.8809 209.098 87.7324 209.355 87.709 209.664H86.6953C86.7148 209.285 86.832 208.949 87.0469 208.656C87.2617 208.359 87.5547 208.125 87.9258 207.953C88.2969 207.781 88.7266 207.695 89.2148 207.695C89.9375 207.695 90.5098 207.883 90.9316 208.258C91.3574 208.629 91.5703 209.121 91.5703 209.734V214H90.5859V213.121H90.5625C90.4883 213.27 90.3789 213.42 90.2344 213.572C90.0898 213.721 89.8945 213.846 89.6484 213.947C89.4062 214.045 89.0977 214.094 88.7227 214.094ZM88.8633 213.203C89.2695 213.203 89.5996 213.131 89.8535 212.986C90.1074 212.838 90.293 212.646 90.4102 212.412C90.5273 212.178 90.5859 211.926 90.5859 211.656V210.883C90.5117 210.953 90.3145 211.018 89.9941 211.076C89.6738 211.131 89.3359 211.184 88.9805 211.234C88.7422 211.266 88.5156 211.32 88.3008 211.398C88.0898 211.473 87.918 211.58 87.7852 211.721C87.6523 211.857 87.5859 212.043 87.5859 212.277C87.5859 212.566 87.6992 212.793 87.9258 212.957C88.1562 213.121 88.4688 213.203 88.8633 213.203ZM94.043 205.27V214H93.0469V205.27H94.043Z" fill="#D2D6DB"/>
<path d="M52.7246 255H49.4297V244.814H52.8271C53.8252 244.814 54.6842 245.02 55.4043 245.43C56.1289 245.84 56.6849 246.425 57.0723 247.187C57.4596 247.943 57.6533 248.845 57.6533 249.894C57.6533 250.946 57.4574 251.855 57.0654 252.621C56.6781 253.382 56.1152 253.97 55.377 254.385C54.6432 254.795 53.7591 255 52.7246 255ZM50.9473 253.681H52.6289C53.8184 253.681 54.6979 253.346 55.2676 252.676C55.8418 252.006 56.1289 251.078 56.1289 249.894C56.1289 248.713 55.8464 247.793 55.2812 247.132C54.7161 246.466 53.8662 246.134 52.7314 246.134H50.9473V253.681ZM61.2217 255.116C60.5016 255.116 59.9046 254.934 59.4307 254.569C58.9567 254.2 58.7197 253.656 58.7197 252.936C58.7197 252.389 58.8542 251.969 59.123 251.678C59.3965 251.382 59.7497 251.17 60.1826 251.042C60.6201 250.914 61.0827 250.821 61.5703 250.762C62.0215 250.707 62.3792 250.661 62.6436 250.625C62.9079 250.589 63.0947 250.534 63.2041 250.461C63.318 250.388 63.375 250.263 63.375 250.085V250.023C63.375 249.673 63.2474 249.385 62.9922 249.162C62.737 248.934 62.3792 248.82 61.9189 248.82C61.4587 248.82 61.0827 248.932 60.791 249.155C60.4993 249.374 60.3398 249.65 60.3125 249.982H58.8975C58.9294 249.294 59.2188 248.731 59.7656 248.294C60.3125 247.856 61.0371 247.638 61.9395 247.638C62.8281 247.638 63.5277 247.856 64.0381 248.294C64.5485 248.731 64.8037 249.317 64.8037 250.051V255H63.3818V253.975H63.3545C63.2041 254.266 62.9648 254.531 62.6367 254.768C62.3132 255 61.8415 255.116 61.2217 255.116ZM61.5156 253.954C62.1536 253.954 62.623 253.79 62.9238 253.462C63.2292 253.129 63.3818 252.742 63.3818 252.3V251.452C63.2861 251.53 63.0697 251.6 62.7324 251.664C62.3952 251.723 62.0352 251.78 61.6523 251.835C61.2559 251.894 60.9072 252.006 60.6064 252.17C60.3057 252.334 60.1553 252.598 60.1553 252.963C60.1553 253.273 60.276 253.517 60.5176 253.694C60.7637 253.868 61.0964 253.954 61.5156 253.954ZM69.9102 247.781V248.971H68.4473V253.093C68.4473 253.362 68.502 253.549 68.6113 253.653C68.7207 253.758 68.9189 253.811 69.2061 253.811H69.9102V255H69.001C67.6657 255 66.998 254.426 66.998 253.277V248.971H65.7266V247.781H66.998V245.812H68.4473V247.781H69.9102ZM74.0117 255.164C73.2962 255.164 72.681 255.002 72.166 254.679C71.6556 254.355 71.2614 253.911 70.9834 253.346C70.71 252.776 70.5732 252.129 70.5732 251.404C70.5732 250.671 70.7168 250.019 71.0039 249.449C71.291 248.88 71.6875 248.433 72.1934 248.109C72.6992 247.781 73.2803 247.617 73.9365 247.617C74.6201 247.617 75.2126 247.777 75.7139 248.096C76.2197 248.415 76.6117 248.859 76.8896 249.429C77.1676 249.994 77.3066 250.648 77.3066 251.391V251.78H71.9951C72.0225 252.432 72.2093 252.958 72.5557 253.359C72.9066 253.76 73.3988 253.961 74.0322 253.961C74.5062 253.961 74.8958 253.854 75.2012 253.64C75.5065 253.425 75.7093 253.147 75.8096 252.806H77.1973C77.1107 253.271 76.917 253.681 76.6162 254.036C76.32 254.392 75.9463 254.67 75.4951 254.87C75.0485 255.066 74.554 255.164 74.0117 255.164ZM72.0088 250.687H75.8984C75.8392 250.112 75.6364 249.659 75.29 249.326C74.9437 248.989 74.4971 248.82 73.9502 248.82C73.4033 248.82 72.9567 248.989 72.6104 249.326C72.2686 249.659 72.068 250.112 72.0088 250.687ZM84.9971 255.164C84.3089 255.164 83.7051 255.005 83.1855 254.686C82.666 254.367 82.2604 253.924 81.9688 253.359C81.6816 252.794 81.5381 252.143 81.5381 251.404C81.5381 250.657 81.6816 250.001 81.9688 249.436C82.2604 248.866 82.666 248.422 83.1855 248.103C83.7051 247.779 84.3089 247.617 84.9971 247.617C85.6852 247.617 86.2868 247.779 86.8018 248.103C87.3213 248.422 87.7246 248.866 88.0117 249.436C88.3034 250.001 88.4492 250.657 88.4492 251.404C88.4492 252.143 88.3034 252.794 88.0117 253.359C87.7246 253.924 87.3213 254.367 86.8018 254.686C86.2868 255.005 85.6852 255.164 84.9971 255.164ZM84.9971 253.92C85.6169 253.92 86.1045 253.692 86.46 253.236C86.8154 252.781 86.9932 252.17 86.9932 251.404C86.9932 250.63 86.8132 250.012 86.4531 249.552C86.0977 249.091 85.6123 248.861 84.9971 248.861C84.3818 248.861 83.8942 249.091 83.5342 249.552C83.1787 250.007 83.001 250.625 83.001 251.404C83.001 252.174 83.1787 252.787 83.5342 253.243C83.8896 253.694 84.3773 253.92 84.9971 253.92ZM93.2275 247.781V248.971H91.7578V255H90.3154V248.971H89.0234V247.781H90.3154V246.612C90.3154 246.043 90.4932 245.601 90.8486 245.286C91.2087 244.972 91.7145 244.814 92.3662 244.814H93.2275V246.004H92.5918C92.2865 246.004 92.07 246.068 91.9424 246.195C91.8193 246.323 91.7578 246.539 91.7578 246.845V247.781H93.2275ZM101.321 255.144C100.852 255.144 100.421 255.041 100.029 254.836C99.6419 254.631 99.3275 254.319 99.0859 253.899H99.0723V255H97.6572V244.814H99.0996V248.827H99.1133C99.3457 248.426 99.6556 248.128 100.043 247.932C100.43 247.736 100.859 247.638 101.328 247.638C101.948 247.638 102.493 247.797 102.962 248.116C103.431 248.431 103.796 248.87 104.056 249.436C104.32 249.996 104.452 250.648 104.452 251.391C104.452 252.133 104.322 252.787 104.062 253.353C103.803 253.913 103.438 254.353 102.969 254.672C102.499 254.986 101.95 255.144 101.321 255.144ZM101.027 253.899C101.611 253.899 102.082 253.685 102.442 253.257C102.807 252.828 102.989 252.206 102.989 251.391C102.989 250.575 102.807 249.953 102.442 249.524C102.082 249.091 101.611 248.875 101.027 248.875C100.412 248.875 99.9199 249.105 99.5508 249.565C99.1862 250.021 99.0039 250.63 99.0039 251.391C99.0039 252.147 99.1862 252.756 99.5508 253.216C99.9199 253.672 100.412 253.899 101.027 253.899ZM105.724 255V247.781H107.166V255H105.724ZM106.441 246.537C106.186 246.537 105.97 246.453 105.792 246.284C105.619 246.111 105.532 245.901 105.532 245.655C105.532 245.405 105.619 245.195 105.792 245.026C105.97 244.853 106.186 244.767 106.441 244.767C106.697 244.767 106.913 244.853 107.091 245.026C107.269 245.195 107.357 245.405 107.357 245.655C107.357 245.901 107.269 246.111 107.091 246.284C106.913 246.453 106.697 246.537 106.441 246.537ZM108.8 255V247.781H110.181V248.95H110.208C110.34 248.554 110.548 248.246 110.83 248.027C111.117 247.804 111.491 247.692 111.951 247.692C112.061 247.692 112.161 247.697 112.252 247.706C112.343 247.715 112.418 247.722 112.478 247.727V249.073C112.423 249.06 112.325 249.046 112.184 249.032C112.042 249.014 111.887 249.005 111.719 249.005C111.313 249.005 110.965 249.146 110.673 249.429C110.386 249.711 110.242 250.146 110.242 250.734V255H108.8ZM117.283 247.781V248.971H115.82V253.093C115.82 253.362 115.875 253.549 115.984 253.653C116.094 253.758 116.292 253.811 116.579 253.811H117.283V255H116.374C115.039 255 114.371 254.426 114.371 253.277V248.971H113.1V247.781H114.371V245.812H115.82V247.781H117.283ZM119.867 250.844V255H118.425V244.814H119.867V248.82C120.364 248.032 121.082 247.638 122.021 247.638C122.517 247.638 122.962 247.747 123.354 247.966C123.75 248.18 124.062 248.499 124.29 248.923C124.518 249.347 124.632 249.873 124.632 250.502V255H123.189V250.68C123.189 250.101 123.05 249.666 122.772 249.374C122.494 249.078 122.107 248.93 121.61 248.93C121.118 248.93 120.703 249.082 120.366 249.388C120.034 249.688 119.867 250.174 119.867 250.844Z" fill="#383540"/>
<rect x="49" y="264.5" width="289" height="43" rx="7.5" stroke="#E5E7EB"/>
<path d="M68.5605 280.814V291H67.3711V282.086H67.3643L64.8281 283.768V282.51L67.3711 280.814H68.5605ZM70.1533 291V289.968L73.7764 286.659C74.2093 286.263 74.5602 285.914 74.8291 285.613C75.1025 285.312 75.3031 285.019 75.4307 284.731C75.5583 284.444 75.6221 284.128 75.6221 283.781C75.6221 283.152 75.4352 282.656 75.0615 282.291C74.6924 281.926 74.1842 281.744 73.5371 281.744C72.8398 281.744 72.2998 281.958 71.917 282.387C71.5342 282.811 71.3428 283.385 71.3428 284.109H70.1943C70.1943 283.43 70.3311 282.831 70.6045 282.312C70.8825 281.792 71.2721 281.386 71.7734 281.095C72.2747 280.799 72.8604 280.65 73.5303 280.65C74.1683 280.65 74.7311 280.783 75.2188 281.047C75.7064 281.307 76.0892 281.669 76.3672 282.134C76.6452 282.594 76.7842 283.127 76.7842 283.733C76.7842 284.39 76.6019 284.993 76.2373 285.545C75.8773 286.096 75.3236 286.712 74.5762 287.391L71.8213 289.893V289.906H76.8457V291H70.1533ZM81.8906 280.336L78.6094 292.531H77.5293L80.8105 280.336H81.8906ZM86.2793 291.164C85.5273 291.164 84.8757 290.95 84.3242 290.521C83.7773 290.089 83.3535 289.48 83.0527 288.696C82.752 287.912 82.6016 286.985 82.6016 285.914C82.6016 284.839 82.752 283.909 83.0527 283.125C83.3535 282.337 83.7773 281.728 84.3242 281.3C84.8757 280.867 85.5273 280.65 86.2793 280.65C87.0312 280.65 87.6829 280.867 88.2344 281.3C88.7858 281.728 89.2096 282.337 89.5059 283.125C89.8066 283.909 89.957 284.839 89.957 285.914C89.957 286.985 89.8066 287.912 89.5059 288.696C89.2096 289.48 88.7858 290.089 88.2344 290.521C87.6829 290.95 87.0312 291.164 86.2793 291.164ZM86.2793 290.07C87.0586 290.07 87.6715 289.701 88.1182 288.963C88.5693 288.22 88.7949 287.204 88.7949 285.914C88.7949 284.615 88.5693 283.597 88.1182 282.858C87.6715 282.116 87.0586 281.744 86.2793 281.744C85.5 281.744 84.8848 282.116 84.4336 282.858C83.987 283.597 83.7637 284.615 83.7637 285.914C83.7637 287.204 83.987 288.22 84.4336 288.963C84.8848 289.701 85.5 290.07 86.2793 290.07ZM94.626 291.137C93.9743 291.137 93.3887 291.002 92.8691 290.733C92.3496 290.46 91.9349 290.091 91.625 289.626C91.3151 289.161 91.1465 288.635 91.1191 288.047H92.3496C92.4043 288.626 92.6413 289.104 93.0605 289.482C93.4844 289.856 94.0062 290.043 94.626 290.043C95.068 290.043 95.4531 289.94 95.7812 289.735C96.1139 289.53 96.3737 289.25 96.5605 288.895C96.7474 288.535 96.8408 288.124 96.8408 287.664C96.8408 287.204 96.752 286.796 96.5742 286.44C96.3965 286.085 96.1481 285.807 95.8291 285.606C95.5101 285.401 95.1387 285.299 94.7148 285.299C94.1543 285.299 93.6735 285.413 93.2725 285.641C92.8714 285.864 92.5911 286.192 92.4316 286.625H91.249L91.5908 280.814H97.4697V281.908H92.7051L92.459 285.21H92.4727C93.1061 284.531 93.9036 284.191 94.8652 284.191C95.4896 284.191 96.0387 284.34 96.5127 284.636C96.9912 284.932 97.3626 285.34 97.627 285.859C97.8958 286.379 98.0303 286.976 98.0303 287.65C98.0303 288.334 97.8867 288.938 97.5996 289.462C97.3171 289.986 96.9206 290.396 96.4102 290.692C95.8997 290.989 95.305 291.137 94.626 291.137ZM103.109 280.336L99.8281 292.531H98.748L102.029 280.336H103.109ZM107.266 280.814V291H106.076V282.086H106.069L103.533 283.768V282.51L106.076 280.814H107.266ZM112.105 291.164C111.221 291.164 110.492 290.916 109.918 290.419C109.348 289.922 109.016 289.268 108.92 288.457H110.123C110.219 288.949 110.431 289.341 110.759 289.633C111.087 289.924 111.508 290.07 112.023 290.07C112.611 290.07 113.097 289.902 113.479 289.564C113.867 289.227 114.156 288.762 114.348 288.17C114.539 287.577 114.635 286.903 114.635 286.146H114.621C114.389 286.538 114.045 286.844 113.589 287.062C113.138 287.281 112.639 287.391 112.092 287.391C111.481 287.391 110.934 287.247 110.451 286.96C109.968 286.668 109.588 286.27 109.31 285.764C109.032 285.258 108.893 284.684 108.893 284.041C108.893 283.371 109.036 282.781 109.323 282.271C109.615 281.76 110.016 281.364 110.526 281.081C111.041 280.794 111.632 280.65 112.297 280.65C113.427 280.65 114.3 281.07 114.915 281.908C115.53 282.747 115.838 283.936 115.838 285.477C115.838 286.616 115.703 287.614 115.435 288.471C115.17 289.323 114.762 289.986 114.211 290.46C113.66 290.929 112.958 291.164 112.105 291.164ZM112.256 286.297C112.671 286.297 113.047 286.197 113.384 285.996C113.721 285.796 113.99 285.524 114.19 285.183C114.396 284.836 114.498 284.451 114.498 284.027C114.498 283.599 114.398 283.214 114.197 282.872C114.001 282.526 113.737 282.252 113.404 282.052C113.072 281.847 112.702 281.744 112.297 281.744C111.887 281.744 111.513 281.847 111.176 282.052C110.843 282.252 110.576 282.526 110.376 282.872C110.18 283.218 110.082 283.608 110.082 284.041C110.082 284.469 110.178 284.854 110.369 285.196C110.561 285.534 110.82 285.802 111.148 286.003C111.481 286.199 111.85 286.297 112.256 286.297ZM120.281 291.164C119.397 291.164 118.668 290.916 118.094 290.419C117.524 289.922 117.191 289.268 117.096 288.457H118.299C118.395 288.949 118.606 289.341 118.935 289.633C119.263 289.924 119.684 290.07 120.199 290.07C120.787 290.07 121.272 289.902 121.655 289.564C122.043 289.227 122.332 288.762 122.523 288.17C122.715 287.577 122.811 286.903 122.811 286.146H122.797C122.564 286.538 122.22 286.844 121.765 287.062C121.313 287.281 120.814 287.391 120.268 287.391C119.657 287.391 119.11 287.247 118.627 286.96C118.144 286.668 117.763 286.27 117.485 285.764C117.207 285.258 117.068 284.684 117.068 284.041C117.068 283.371 117.212 282.781 117.499 282.271C117.791 281.76 118.192 281.364 118.702 281.081C119.217 280.794 119.807 280.65 120.473 280.65C121.603 280.65 122.476 281.07 123.091 281.908C123.706 282.747 124.014 283.936 124.014 285.477C124.014 286.616 123.879 287.614 123.61 288.471C123.346 289.323 122.938 289.986 122.387 290.46C121.835 290.929 121.133 291.164 120.281 291.164ZM120.432 286.297C120.846 286.297 121.222 286.197 121.56 285.996C121.897 285.796 122.166 285.524 122.366 285.183C122.571 284.836 122.674 284.451 122.674 284.027C122.674 283.599 122.574 283.214 122.373 282.872C122.177 282.526 121.913 282.252 121.58 282.052C121.247 281.847 120.878 281.744 120.473 281.744C120.062 281.744 119.689 281.847 119.352 282.052C119.019 282.252 118.752 282.526 118.552 282.872C118.356 283.218 118.258 283.608 118.258 284.041C118.258 284.469 118.354 284.854 118.545 285.196C118.736 285.534 118.996 285.802 119.324 286.003C119.657 286.199 120.026 286.297 120.432 286.297ZM128.785 291.164C127.66 291.164 126.787 290.745 126.167 289.906C125.552 289.063 125.244 287.874 125.244 286.338C125.244 285.194 125.374 284.196 125.634 283.344C125.898 282.492 126.304 281.831 126.851 281.361C127.397 280.887 128.097 280.65 128.949 280.65C129.833 280.65 130.556 280.899 131.116 281.396C131.681 281.892 132.012 282.546 132.107 283.357H130.904C130.809 282.865 130.599 282.473 130.275 282.182C129.956 281.89 129.539 281.744 129.024 281.744C128.437 281.744 127.949 281.913 127.562 282.25C127.179 282.587 126.892 283.052 126.7 283.645C126.513 284.232 126.42 284.907 126.42 285.668H126.434C126.666 285.276 127.012 284.962 127.473 284.725C127.938 284.488 128.443 284.369 128.99 284.369C129.605 284.369 130.152 284.517 130.631 284.813C131.114 285.105 131.494 285.506 131.772 286.017C132.05 286.522 132.189 287.099 132.189 287.746C132.189 288.416 132.044 289.008 131.752 289.523C131.465 290.038 131.066 290.442 130.556 290.733C130.045 291.021 129.455 291.164 128.785 291.164ZM128.785 290.07C129.195 290.07 129.567 289.968 129.899 289.763C130.237 289.553 130.503 289.273 130.699 288.922C130.9 288.566 131 288.174 131 287.746C131 287.318 130.904 286.933 130.713 286.591C130.521 286.244 130.262 285.971 129.934 285.771C129.605 285.565 129.236 285.463 128.826 285.463C128.416 285.463 128.04 285.565 127.698 285.771C127.361 285.976 127.09 286.254 126.885 286.604C126.684 286.951 126.584 287.336 126.584 287.76C126.584 288.184 126.682 288.571 126.878 288.922C127.078 289.273 127.345 289.553 127.678 289.763C128.01 289.968 128.38 290.07 128.785 290.07Z" fill="#D2D6DB"/>
</g>
<defs>
<filter id="filter0_d_13_3219" x="0.5" y="0" width="386" height="432" filterUnits="userSpaceOnUse" color-interpolation-filters="sRGB">
<feFlood flood-opacity="0" result="BackgroundImageFix"/>
<feColorMatrix in="SourceAlpha" type="matrix" values="0 0 0 0 0 0 0 0 0 0 0 0 0 0 0 0 0 0 127 0" result="hardAlpha"/>
<feOffset/>
<feGaussianBlur stdDeviation="16"/>
<feComposite in2="hardAlpha" operator="out"/>
<feColorMatrix type="matrix" values="0 0 0 0 0.4 0 0 0 0 0.184314 0 0 0 0 1 0 0 0 0.1 0"/>
<feBlend mode="normal" in2="BackgroundImageFix" result="effect1_dropShadow_13_3219"/>
<feBlend mode="normal" in="SourceGraphic" in2="effect1_dropShadow_13_3219" result="shape"/>
</filter>
</defs>
</svg>
