<svg width="21" height="33" viewBox="0 0 21 33" fill="none" xmlns="http://www.w3.org/2000/svg">
<path d="M15.4654 32.2337C15.0638 32.2337 14.7316 31.912 14.7147 31.5027C14.6978 31.082 15.0206 30.7279 15.4354 30.7127C16.1223 30.6861 16.8504 30.629 17.526 30.41C17.9896 30.2597 18.6258 29.957 19.0312 29.384C19.3971 28.8682 19.5566 28.1372 19.4816 27.3263C19.444 26.9303 19.3333 26.3935 19.0105 26.089C18.7065 25.8015 18.6896 25.3199 18.973 25.0135C19.2564 24.7051 19.7312 24.6879 20.0333 24.9754C20.57 25.4817 20.8872 26.226 20.9754 27.1835C21.0843 28.3618 20.8272 29.4583 20.251 30.273C19.7405 30.9944 18.958 31.5427 17.9858 31.8587C17.1376 32.1366 16.2499 32.2051 15.4936 32.2356C15.4842 32.2356 15.4729 32.2356 15.4635 32.2356L15.4654 32.2337Z" fill="#363A44"/>
<g filter="url(#filter0_f_13_3097)">
<path d="M19.4508 25.3469C19.9087 25.7809 20.0982 26.4358 20.1564 27.0696C20.239 27.9662 20.087 28.9123 19.569 29.6433C19.1167 30.281 18.4205 30.7093 17.6829 30.9491C16.9454 31.189 16.1665 31.2575 15.3914 31.2879" stroke="white" stroke-width="0.130978" stroke-linecap="round" stroke-linejoin="round"/>
</g>
<g filter="url(#filter1_f_13_3097)">
<path d="M19.4508 25.3469C19.9087 25.7809 20.0982 26.4358 20.1564 27.0696C20.239 27.9662 20.087 28.9123 19.569 29.6433C19.1167 30.281 18.4205 30.7093 17.6829 30.9491C16.9454 31.189 16.1665 31.2575 15.3914 31.2879" stroke="white" stroke-opacity="0.6" stroke-width="0.130978" stroke-linecap="round" stroke-linejoin="round"/>
</g>
<path d="M19.5258 27.5485C19.5265 27.5573 19.5268 27.5642 19.5268 27.5691C19.5264 27.5622 19.5261 27.5554 19.5258 27.5485C19.5131 27.3849 19.383 26.5605 19.119 26.0326C18.8407 25.4761 19.6881 25.2027 20.1301 25.1157C20.2089 25.1833 20.3848 25.4487 20.3848 25.5071C20.2767 25.8642 19.4941 26.7675 19.5258 27.5485Z" fill="url(#paint0_linear_13_3097)"/>
<mask id="mask0_13_3097" style="mask-type:alpha" maskUnits="userSpaceOnUse" x="5" y="-1" width="8" height="13">
<path d="M5.50455 6.02478C5.50455 3.84242 6.89042 2.20043 7.87929 1.16501C8.18668 0.843599 8.43757 0.562811 8.61168 0.362301C8.69874 0.262034 8.76661 0.181822 8.81277 0.126617C8.81998 0.118002 8.82665 0.109996 8.83279 0.102618C8.83897 0.110022 8.8457 0.118059 8.85296 0.126711C8.89929 0.181907 8.96739 0.26211 9.05468 0.362366C9.22923 0.562858 9.48057 0.843623 9.78794 1.16501C10.7768 2.20043 12.1627 3.84242 12.1627 6.02478C12.1627 7.79259 11.3238 9.23824 10.4802 10.2448C10.0588 10.7477 9.63718 11.1396 9.32105 11.4058C9.16302 11.5389 9.03145 11.6404 8.93957 11.7085C8.89363 11.7426 8.85763 11.7683 8.83321 11.7854L8.83269 11.7858L8.83219 11.7854C8.80778 11.7683 8.7718 11.7426 8.72588 11.7085C8.63405 11.6404 8.50256 11.5389 8.34462 11.4058C8.02866 11.1397 7.60731 10.7477 7.18607 10.2448C6.34298 9.23826 5.50455 7.7926 5.50455 6.02478Z" fill="#4B4D53"/>
<path d="M5.50455 6.02478C5.50455 3.84242 6.89042 2.20043 7.87929 1.16501C8.18668 0.843599 8.43757 0.562811 8.61168 0.362301C8.69874 0.262034 8.76661 0.181822 8.81277 0.126617C8.81998 0.118002 8.82665 0.109996 8.83279 0.102618C8.83897 0.110022 8.8457 0.118059 8.85296 0.126711C8.89929 0.181907 8.96739 0.26211 9.05468 0.362366C9.22923 0.562858 9.48057 0.843623 9.78794 1.16501C10.7768 2.20043 12.1627 3.84242 12.1627 6.02478C12.1627 7.79259 11.3238 9.23824 10.4802 10.2448C10.0588 10.7477 9.63718 11.1396 9.32105 11.4058C9.16302 11.5389 9.03145 11.6404 8.93957 11.7085C8.89363 11.7426 8.85763 11.7683 8.83321 11.7854L8.83269 11.7858L8.83219 11.7854C8.80778 11.7683 8.7718 11.7426 8.72588 11.7085C8.63405 11.6404 8.50256 11.5389 8.34462 11.4058C8.02866 11.1397 7.60731 10.7477 7.18607 10.2448C6.34298 9.23826 5.50455 7.7926 5.50455 6.02478Z" fill="url(#paint1_angular_13_3097)"/>
<path d="M5.50455 6.02478C5.50455 3.84242 6.89042 2.20043 7.87929 1.16501C8.18668 0.843599 8.43757 0.562811 8.61168 0.362301C8.69874 0.262034 8.76661 0.181822 8.81277 0.126617C8.81998 0.118002 8.82665 0.109996 8.83279 0.102618C8.83897 0.110022 8.8457 0.118059 8.85296 0.126711C8.89929 0.181907 8.96739 0.26211 9.05468 0.362366C9.22923 0.562858 9.48057 0.843623 9.78794 1.16501C10.7768 2.20043 12.1627 3.84242 12.1627 6.02478C12.1627 7.79259 11.3238 9.23824 10.4802 10.2448C10.0588 10.7477 9.63718 11.1396 9.32105 11.4058C9.16302 11.5389 9.03145 11.6404 8.93957 11.7085C8.89363 11.7426 8.85763 11.7683 8.83321 11.7854L8.83269 11.7858L8.83219 11.7854C8.80778 11.7683 8.7718 11.7426 8.72588 11.7085C8.63405 11.6404 8.50256 11.5389 8.34462 11.4058C8.02866 11.1397 7.60731 10.7477 7.18607 10.2448C6.34298 9.23826 5.50455 7.7926 5.50455 6.02478Z" stroke="#32353E" stroke-width="0.130978"/>
</mask>
<g mask="url(#mask0_13_3097)">
<path d="M5.50417 6.02454C5.50417 3.84217 6.89004 2.20019 7.87891 1.16477C8.1863 0.843355 8.43719 0.562567 8.61129 0.362056C8.69835 0.26179 8.76623 0.181578 8.81239 0.126373C8.8196 0.117758 8.82627 0.109752 8.83241 0.102374C8.83859 0.109778 8.84531 0.117815 8.85258 0.126467C8.8989 0.181662 8.96701 0.261866 9.05429 0.362122C9.22885 0.562613 9.48018 0.843379 9.78756 1.16477C10.7764 2.20019 12.1623 3.84217 12.1623 6.02454C12.1623 7.79235 11.3234 9.238 10.4798 10.2445C10.0584 10.7474 9.6368 11.1394 9.32066 11.4056C9.16264 11.5386 9.03107 11.6401 8.93919 11.7083C8.89325 11.7423 8.85725 11.768 8.83283 11.7852L8.83231 11.7855L8.83181 11.7852C8.8074 11.7681 8.77141 11.7423 8.7255 11.7083C8.63367 11.6401 8.50218 11.5386 8.34424 11.4056C8.02828 11.1394 7.60693 10.7474 7.18569 10.2445C6.3426 9.23801 5.50417 7.79236 5.50417 6.02454Z" fill="#4B4D53"/>
<path d="M5.50417 6.02454C5.50417 3.84217 6.89004 2.20019 7.87891 1.16477C8.1863 0.843355 8.43719 0.562567 8.61129 0.362056C8.69835 0.26179 8.76623 0.181578 8.81239 0.126373C8.8196 0.117758 8.82627 0.109752 8.83241 0.102374C8.83859 0.109778 8.84531 0.117815 8.85258 0.126467C8.8989 0.181662 8.96701 0.261866 9.05429 0.362122C9.22885 0.562613 9.48018 0.843379 9.78756 1.16477C10.7764 2.20019 12.1623 3.84217 12.1623 6.02454C12.1623 7.79235 11.3234 9.238 10.4798 10.2445C10.0584 10.7474 9.6368 11.1394 9.32066 11.4056C9.16264 11.5386 9.03107 11.6401 8.93919 11.7083C8.89325 11.7423 8.85725 11.768 8.83283 11.7852L8.83231 11.7855L8.83181 11.7852C8.8074 11.7681 8.77141 11.7423 8.7255 11.7083C8.63367 11.6401 8.50218 11.5386 8.34424 11.4056C8.02828 11.1394 7.60693 10.7474 7.18569 10.2445C6.3426 9.23801 5.50417 7.79236 5.50417 6.02454Z" fill="url(#paint2_angular_13_3097)"/>
<path d="M5.50417 6.02454C5.50417 3.84217 6.89004 2.20019 7.87891 1.16477C8.1863 0.843355 8.43719 0.562567 8.61129 0.362056C8.69835 0.26179 8.76623 0.181578 8.81239 0.126373C8.8196 0.117758 8.82627 0.109752 8.83241 0.102374C8.83859 0.109778 8.84531 0.117815 8.85258 0.126467C8.8989 0.181662 8.96701 0.261866 9.05429 0.362122C9.22885 0.562613 9.48018 0.843379 9.78756 1.16477C10.7764 2.20019 12.1623 3.84217 12.1623 6.02454C12.1623 7.79235 11.3234 9.238 10.4798 10.2445C10.0584 10.7474 9.6368 11.1394 9.32066 11.4056C9.16264 11.5386 9.03107 11.6401 8.93919 11.7083C8.89325 11.7423 8.85725 11.768 8.83283 11.7852L8.83231 11.7855L8.83181 11.7852C8.8074 11.7681 8.77141 11.7423 8.7255 11.7083C8.63367 11.6401 8.50218 11.5386 8.34424 11.4056C8.02828 11.1394 7.60693 10.7474 7.18569 10.2445C6.3426 9.23801 5.50417 7.79236 5.50417 6.02454Z" stroke="#32353E" stroke-width="0.130978"/>
<g filter="url(#filter2_f_13_3097)">
<path d="M12.0302 5.02734C12.8145 8.90446 8.93228 11.6452 8.83333 11.7122C8.86698 11.6704 8.83333 10.5323 8.83333 10.5323C10.0324 9.37801 10.7723 8.78608 10.8898 6.41941L12.0302 5.02734Z" fill="url(#paint3_linear_13_3097)"/>
</g>
<g filter="url(#filter3_f_13_3097)">
<path d="M5.63646 5.02734C4.85215 8.90446 8.73437 11.6452 8.83333 11.7122C8.79967 11.6704 8.83333 10.5323 8.83333 10.5323C7.63423 9.37801 6.89432 8.78608 6.7769 6.41941L5.63646 5.02734Z" fill="url(#paint4_linear_13_3097)"/>
</g>
<g filter="url(#filter4_f_13_3097)">
<path d="M8.78439 11.7671L8.78439 7.00413C8.6523 9.64663 7.07242 9.71807 6.27108 8.88617C6.38853 9.41466 7.97695 11.0025 8.78439 11.7671Z" fill="black" fill-opacity="0.6"/>
</g>
<g filter="url(#filter5_f_13_3097)">
<path d="M8.84318 0.186767C11.0004 2.33253 12.0201 4.19754 12.1016 5.80935C12.0725 6.37081 12.1016 7.3699 11.5164 8.47147C11.5763 7.11882 10.8648 5.17641 8.84318 3.76867L8.84318 1.36866L8.84318 0.186767Z" fill="url(#paint5_linear_13_3097)" fill-opacity="0.6"/>
</g>
<g filter="url(#filter6_f_13_3097)">
<path d="M8.83377 0.186767C6.67654 2.33253 5.65683 4.19754 5.57536 5.80935C5.60445 6.37081 5.57536 7.3699 6.16057 8.47147C6.10062 7.11882 6.81213 5.20899 8.83377 3.80125L8.83377 1.36866L8.83377 0.186767Z" fill="url(#paint6_linear_13_3097)" fill-opacity="0.6"/>
</g>
<g filter="url(#filter7_f_13_3097)">
<line x1="8.6983" y1="11.8647" x2="8.69831" y2="0.18695" stroke="#32353E" stroke-opacity="0.2" stroke-width="0.130978"/>
</g>
<g filter="url(#filter8_f_13_3097)">
<path d="M8.90802 11.8647L8.90802 0.186949" stroke="white" stroke-opacity="0.16" stroke-width="0.130978" stroke-linecap="round"/>
</g>
</g>
<mask id="mask1_13_3097" style="mask-type:alpha" maskUnits="userSpaceOnUse" x="2" y="7" width="9" height="11">
<path d="M3.4916 14.5118C2.40042 12.6218 2.77963 10.5068 3.1183 9.11571C3.22381 8.68366 3.30069 8.31505 3.35121 8.05435C3.37648 7.92398 3.39515 7.82058 3.40753 7.74969C3.40946 7.73863 3.41123 7.72836 3.41286 7.7189C3.42191 7.72222 3.43176 7.72582 3.44237 7.72968C3.51009 7.75432 3.60917 7.78972 3.73489 7.8329C3.98631 7.91926 4.34435 8.03674 4.77124 8.16138C6.14533 8.56365 8.16653 9.29272 9.25771 11.1827C10.1416 12.7137 10.1379 14.3851 9.91066 15.6785C9.79711 16.3248 9.628 16.875 9.4873 17.2636C9.41697 17.4579 9.35378 17.6116 9.30828 17.7165C9.28553 17.769 9.26721 17.8092 9.25462 17.8363L9.25435 17.8369L9.25375 17.8368C9.22404 17.8342 9.18002 17.8299 9.12323 17.8234C9.00963 17.8103 8.845 17.7881 8.64169 17.7518C8.23498 17.6793 7.6741 17.5505 7.05785 17.3256C5.82444 16.8755 4.37551 16.0427 3.4916 14.5118Z" fill="#4B4D53"/>
<path d="M3.4916 14.5118C2.40042 12.6218 2.77963 10.5068 3.1183 9.11571C3.22381 8.68366 3.30069 8.31505 3.35121 8.05435C3.37648 7.92398 3.39515 7.82058 3.40753 7.74969C3.40946 7.73863 3.41123 7.72836 3.41286 7.7189C3.42191 7.72222 3.43176 7.72582 3.44237 7.72968C3.51009 7.75432 3.60917 7.78972 3.73489 7.8329C3.98631 7.91926 4.34435 8.03674 4.77124 8.16138C6.14533 8.56365 8.16653 9.29272 9.25771 11.1827C10.1416 12.7137 10.1379 14.3851 9.91066 15.6785C9.79711 16.3248 9.628 16.875 9.4873 17.2636C9.41697 17.4579 9.35378 17.6116 9.30828 17.7165C9.28553 17.769 9.26721 17.8092 9.25462 17.8363L9.25435 17.8369L9.25375 17.8368C9.22404 17.8342 9.18002 17.8299 9.12323 17.8234C9.00963 17.8103 8.845 17.7881 8.64169 17.7518C8.23498 17.6793 7.6741 17.5505 7.05785 17.3256C5.82444 16.8755 4.37551 16.0427 3.4916 14.5118Z" fill="url(#paint7_angular_13_3097)"/>
<path d="M3.4916 14.5118C2.40042 12.6218 2.77963 10.5068 3.1183 9.11571C3.22381 8.68366 3.30069 8.31505 3.35121 8.05435C3.37648 7.92398 3.39515 7.82058 3.40753 7.74969C3.40946 7.73863 3.41123 7.72836 3.41286 7.7189C3.42191 7.72222 3.43176 7.72582 3.44237 7.72968C3.51009 7.75432 3.60917 7.78972 3.73489 7.8329C3.98631 7.91926 4.34435 8.03674 4.77124 8.16138C6.14533 8.56365 8.16653 9.29272 9.25771 11.1827C10.1416 12.7137 10.1379 14.3851 9.91066 15.6785C9.79711 16.3248 9.628 16.875 9.4873 17.2636C9.41697 17.4579 9.35378 17.6116 9.30828 17.7165C9.28553 17.769 9.26721 17.8092 9.25462 17.8363L9.25435 17.8369L9.25375 17.8368C9.22404 17.8342 9.18002 17.8299 9.12323 17.8234C9.00963 17.8103 8.845 17.7881 8.64169 17.7518C8.23498 17.6793 7.6741 17.5505 7.05785 17.3256C5.82444 16.8755 4.37551 16.0427 3.4916 14.5118Z" stroke="#32353E" stroke-width="0.130978"/>
</mask>
<g mask="url(#mask1_13_3097)">
<path d="M3.49087 14.5115C2.39969 12.6215 2.7789 10.5066 3.11757 9.11546C3.22307 8.68342 3.29996 8.3148 3.35048 8.0541C3.37574 7.92374 3.39442 7.82033 3.40679 7.74944C3.40872 7.73838 3.4105 7.72811 3.41213 7.71865C3.42118 7.72198 3.43103 7.72557 3.44164 7.72943C3.50936 7.75407 3.60844 7.78948 3.73416 7.83266C3.98557 7.91901 4.34362 8.03649 4.77051 8.16114C6.1446 8.56341 8.16579 9.29247 9.25698 11.1825C10.1409 12.7134 10.1372 14.3848 9.90993 15.6783C9.79638 16.3246 9.62726 16.8748 9.48656 17.2634C9.41623 17.4576 9.35305 17.6113 9.30755 17.7163C9.2848 17.7687 9.26647 17.809 9.25389 17.836L9.25362 17.8366L9.25301 17.8366C9.22331 17.8339 9.17929 17.8297 9.1225 17.8231C9.0089 17.81 8.84426 17.7878 8.64096 17.7516C8.23425 17.6791 7.67337 17.5503 7.05712 17.3254C5.82371 16.8753 4.37478 16.0425 3.49087 14.5115Z" fill="#4B4D53"/>
<path d="M3.49087 14.5115C2.39969 12.6215 2.7789 10.5066 3.11757 9.11546C3.22307 8.68342 3.29996 8.3148 3.35048 8.0541C3.37574 7.92374 3.39442 7.82033 3.40679 7.74944C3.40872 7.73838 3.4105 7.72811 3.41213 7.71865C3.42118 7.72198 3.43103 7.72557 3.44164 7.72943C3.50936 7.75407 3.60844 7.78948 3.73416 7.83266C3.98557 7.91901 4.34362 8.03649 4.77051 8.16114C6.1446 8.56341 8.16579 9.29247 9.25698 11.1825C10.1409 12.7134 10.1372 14.3848 9.90993 15.6783C9.79638 16.3246 9.62726 16.8748 9.48656 17.2634C9.41623 17.4576 9.35305 17.6113 9.30755 17.7163C9.2848 17.7687 9.26647 17.809 9.25389 17.836L9.25362 17.8366L9.25301 17.8366C9.22331 17.8339 9.17929 17.8297 9.1225 17.8231C9.0089 17.81 8.84426 17.7878 8.64096 17.7516C8.23425 17.6791 7.67337 17.5503 7.05712 17.3254C5.82371 16.8753 4.37478 16.0425 3.49087 14.5115Z" fill="url(#paint8_angular_13_3097)"/>
<path d="M3.49087 14.5115C2.39969 12.6215 2.7789 10.5066 3.11757 9.11546C3.22307 8.68342 3.29996 8.3148 3.35048 8.0541C3.37574 7.92374 3.39442 7.82033 3.40679 7.74944C3.40872 7.73838 3.4105 7.72811 3.41213 7.71865C3.42118 7.72198 3.43103 7.72557 3.44164 7.72943C3.50936 7.75407 3.60844 7.78948 3.73416 7.83266C3.98557 7.91901 4.34362 8.03649 4.77051 8.16114C6.1446 8.56341 8.16579 9.29247 9.25698 11.1825C10.1409 12.7134 10.1372 14.3848 9.90993 15.6783C9.79638 16.3246 9.62726 16.8748 9.48656 17.2634C9.41623 17.4576 9.35305 17.6113 9.30755 17.7163C9.2848 17.7687 9.26647 17.809 9.25389 17.836L9.25362 17.8366L9.25301 17.8366C9.22331 17.8339 9.17929 17.8297 9.1225 17.8231C9.0089 17.81 8.84426 17.7878 8.64096 17.7516C8.23425 17.6791 7.67337 17.5503 7.05712 17.3254C5.82371 16.8753 4.37478 16.0425 3.49087 14.5115Z" stroke="#32353E" stroke-width="0.130978"/>
<g filter="url(#filter9_f_13_3097)">
<path d="M9.21834 17.7719C9.09912 17.7633 5.25642 17.4586 3.54409 14.4928C2.46957 12.6316 2.83649 10.5576 3.16012 9.20748C3.34437 8.43993 3.43674 7.88026 3.45218 7.79184C3.44744 8.02473 3.39214 11.7935 4.791 14.2164C6.18986 16.6393 9.12731 17.7366 9.21834 17.7719Z" fill="black" fill-opacity="0.7"/>
</g>
<g filter="url(#filter10_f_13_3097)">
<path d="M9.20033 17.8448L6.81884 13.72C8.02569 16.0745 6.69319 16.9263 5.58326 16.6065C5.94922 17.0055 8.11876 17.5864 9.20033 17.8448Z" fill="black" fill-opacity="0.6"/>
</g>
<g filter="url(#filter11_f_13_3097)">
<path d="M9.29199 17.9052L7.02818 13.9331C8.46383 16.1555 9.20054 12.88 9.47857 11.7588C10.6274 14.6308 9.60895 16.8393 9.29199 17.9052Z" fill="black" fill-opacity="0.6"/>
</g>
<g filter="url(#filter12_f_13_3097)">
<path d="M3.46386 7.78716C6.40496 8.56683 8.22056 9.67212 9.09701 11.0273C9.35255 11.528 9.87729 12.3787 9.92126 13.6253C9.29687 12.4239 6.88813 9.67489 4.43346 9.46657L4.0548 8.81071L3.46386 7.78716Z" fill="url(#paint9_linear_13_3097)"/>
</g>
<g filter="url(#filter13_f_13_3097)">
<line x1="9.17276" y1="17.9739" x2="3.33386" y2="7.86064" stroke="#32353E" stroke-opacity="0.5" stroke-width="0.130978"/>
</g>
<g filter="url(#filter14_f_13_3097)">
<path d="M9.35825 17.8679L3.51935 7.75465" stroke="white" stroke-opacity="0.2" stroke-width="0.130978" stroke-linecap="round"/>
</g>
</g>
<mask id="mask2_13_3097" style="mask-type:alpha" maskUnits="userSpaceOnUse" x="3" y="16" width="11" height="8">
<path d="M6.72441 22.9537C4.83443 21.8626 4.10536 19.8414 3.7031 18.4673C3.57844 18.0404 3.46072 17.6827 3.37412 17.4317C3.33082 17.3061 3.29529 17.2072 3.27056 17.1397C3.2667 17.1291 3.26311 17.1193 3.25979 17.1103C3.26929 17.1087 3.27961 17.1069 3.29074 17.1049C3.3617 17.0924 3.46521 17.0735 3.59568 17.048C3.85659 16.9971 4.2254 16.9198 4.65742 16.8143C6.04855 16.4757 8.16349 16.0965 10.0535 17.1876C11.5844 18.0715 12.417 19.5209 12.8669 20.7547C13.0917 21.3711 13.2203 21.9322 13.2928 22.3391C13.329 22.5425 13.3511 22.7072 13.3642 22.8208C13.3707 22.8776 13.375 22.9216 13.3776 22.9514L13.3776 22.952L13.3771 22.9522C13.3501 22.9648 13.3098 22.9831 13.2573 23.0059C13.1524 23.0513 12.9988 23.1144 12.8046 23.1847C12.4161 23.3252 11.8659 23.4941 11.2198 23.6075C9.92658 23.8344 8.25539 23.8377 6.72441 22.9537Z" fill="#4B4D53"/>
<path d="M6.72441 22.9537C4.83443 21.8626 4.10536 19.8414 3.7031 18.4673C3.57844 18.0404 3.46072 17.6827 3.37412 17.4317C3.33082 17.3061 3.29529 17.2072 3.27056 17.1397C3.2667 17.1291 3.26311 17.1193 3.25979 17.1103C3.26929 17.1087 3.27961 17.1069 3.29074 17.1049C3.3617 17.0924 3.46521 17.0735 3.59568 17.048C3.85659 16.9971 4.2254 16.9198 4.65742 16.8143C6.04855 16.4757 8.16349 16.0965 10.0535 17.1876C11.5844 18.0715 12.417 19.5209 12.8669 20.7547C13.0917 21.3711 13.2203 21.9322 13.2928 22.3391C13.329 22.5425 13.3511 22.7072 13.3642 22.8208C13.3707 22.8776 13.375 22.9216 13.3776 22.9514L13.3776 22.952L13.3771 22.9522C13.3501 22.9648 13.3098 22.9831 13.2573 23.0059C13.1524 23.0513 12.9988 23.1144 12.8046 23.1847C12.4161 23.3252 11.8659 23.4941 11.2198 23.6075C9.92658 23.8344 8.25539 23.8377 6.72441 22.9537Z" fill="url(#paint10_angular_13_3097)"/>
<path d="M6.72441 22.9537C4.83443 21.8626 4.10536 19.8414 3.7031 18.4673C3.57844 18.0404 3.46072 17.6827 3.37412 17.4317C3.33082 17.3061 3.29529 17.2072 3.27056 17.1397C3.2667 17.1291 3.26311 17.1193 3.25979 17.1103C3.26929 17.1087 3.27961 17.1069 3.29074 17.1049C3.3617 17.0924 3.46521 17.0735 3.59568 17.048C3.85659 16.9971 4.2254 16.9198 4.65742 16.8143C6.04855 16.4757 8.16349 16.0965 10.0535 17.1876C11.5844 18.0715 12.417 19.5209 12.8669 20.7547C13.0917 21.3711 13.2203 21.9322 13.2928 22.3391C13.329 22.5425 13.3511 22.7072 13.3642 22.8208C13.3707 22.8776 13.375 22.9216 13.3776 22.9514L13.3776 22.952L13.3771 22.9522C13.3501 22.9648 13.3098 22.9831 13.2573 23.0059C13.1524 23.0513 12.9988 23.1144 12.8046 23.1847C12.4161 23.3252 11.8659 23.4941 11.2198 23.6075C9.92658 23.8344 8.25539 23.8377 6.72441 22.9537Z" stroke="#32353E" stroke-width="0.130978"/>
</mask>
<g mask="url(#mask2_13_3097)">
<path d="M6.7247 22.9535C4.83472 21.8623 4.10565 19.8411 3.70339 18.467C3.57873 18.0401 3.46101 17.6824 3.37441 17.4314C3.33111 17.3059 3.29558 17.207 3.27085 17.1394C3.26699 17.1289 3.2634 17.1191 3.26008 17.1101C3.26958 17.1084 3.2799 17.1066 3.29103 17.1047C3.36199 17.0921 3.4655 17.0733 3.59597 17.0478C3.85688 16.9969 4.22569 16.9196 4.65771 16.8141C6.04884 16.4754 8.16378 16.0962 10.0538 17.1874C11.5847 18.0713 12.4173 19.5206 12.8672 20.7544C13.0919 21.3709 13.2206 21.932 13.2931 22.3388C13.3293 22.5422 13.3514 22.7069 13.3645 22.8205C13.371 22.8774 13.3753 22.9214 13.3779 22.9511L13.3779 22.9517L13.3774 22.952C13.3503 22.9646 13.3101 22.9829 13.2576 23.0056C13.1527 23.0511 12.999 23.1142 12.8048 23.1844C12.4164 23.325 11.8662 23.4939 11.2201 23.6073C9.92687 23.8341 8.25568 23.8374 6.7247 22.9535Z" fill="#4B4D53"/>
<path d="M6.7247 22.9535C4.83472 21.8623 4.10565 19.8411 3.70339 18.467C3.57873 18.0401 3.46101 17.6824 3.37441 17.4314C3.33111 17.3059 3.29558 17.207 3.27085 17.1394C3.26699 17.1289 3.2634 17.1191 3.26008 17.1101C3.26958 17.1084 3.2799 17.1066 3.29103 17.1047C3.36199 17.0921 3.4655 17.0733 3.59597 17.0478C3.85688 16.9969 4.22569 16.9196 4.65771 16.8141C6.04884 16.4754 8.16378 16.0962 10.0538 17.1874C11.5847 18.0713 12.4173 19.5206 12.8672 20.7544C13.0919 21.3709 13.2206 21.932 13.2931 22.3388C13.3293 22.5422 13.3514 22.7069 13.3645 22.8205C13.371 22.8774 13.3753 22.9214 13.3779 22.9511L13.3779 22.9517L13.3774 22.952C13.3503 22.9646 13.3101 22.9829 13.2576 23.0056C13.1527 23.0511 12.999 23.1142 12.8048 23.1844C12.4164 23.325 11.8662 23.4939 11.2201 23.6073C9.92687 23.8341 8.25568 23.8374 6.7247 22.9535Z" fill="url(#paint11_angular_13_3097)"/>
<path d="M6.7247 22.9535C4.83472 21.8623 4.10565 19.8411 3.70339 18.467C3.57873 18.0401 3.46101 17.6824 3.37441 17.4314C3.33111 17.3059 3.29558 17.207 3.27085 17.1394C3.26699 17.1289 3.2634 17.1191 3.26008 17.1101C3.26958 17.1084 3.2799 17.1066 3.29103 17.1047C3.36199 17.0921 3.4655 17.0733 3.59597 17.0478C3.85688 16.9969 4.22569 16.9196 4.65771 16.8141C6.04884 16.4754 8.16378 16.0962 10.0538 17.1874C11.5847 18.0713 12.4173 19.5206 12.8672 20.7544C13.0919 21.3709 13.2206 21.932 13.2931 22.3388C13.3293 22.5422 13.3514 22.7069 13.3645 22.8205C13.371 22.8774 13.3753 22.9214 13.3779 22.9511L13.3779 22.9517L13.3774 22.952C13.3503 22.9646 13.3101 22.9829 13.2576 23.0056C13.1527 23.0511 12.999 23.1142 12.8048 23.1844C12.4164 23.325 11.8662 23.4939 11.2201 23.6073C9.92687 23.8341 8.25568 23.8374 6.7247 22.9535Z" stroke="#32353E" stroke-width="0.130978"/>
<g filter="url(#filter15_f_13_3097)">
<path d="M13.313 22.9139C13.2055 22.9661 9.72524 24.6235 6.75939 22.9112C4.89828 21.8367 4.17904 19.8571 3.78422 18.526C3.56002 17.7692 3.36018 17.2383 3.32933 17.154C3.44168 17.358 5.27818 20.6496 7.70108 22.0484C10.124 23.4473 13.2165 22.9289 13.313 22.9139Z" fill="black" fill-opacity="0.8"/>
</g>
<g filter="url(#filter16_f_13_3097)">
<path d="M13.3383 22.9852L9.21347 20.6037C11.4359 22.0394 10.7078 23.4433 9.5867 23.7214C10.1031 23.8839 12.2724 23.3022 13.3383 22.9852Z" fill="black" fill-opacity="0.6"/>
</g>
<g filter="url(#filter17_f_13_3097)">
<path d="M13.4466 22.9907L9.67863 20.5619C12.0332 21.7687 12.528 20.4836 12.2082 19.3737C12.6072 19.7396 13.1881 21.9092 13.4466 22.9907Z" fill="black" fill-opacity="0.4"/>
</g>
<g filter="url(#filter18_f_13_3097)">
<path d="M3.33735 17.1434C6.27425 16.3481 8.39925 16.3975 9.83585 17.1328C10.3075 17.4387 11.1873 17.9131 11.8487 18.9707C10.7073 18.2424 7.24672 17.0661 5.01676 18.113L4.36089 17.7343L3.33735 17.1434Z" fill="url(#paint12_linear_13_3097)"/>
</g>
<g filter="url(#filter19_f_13_3097)">
<line x1="13.3787" y1="23.1097" x2="3.26547" y2="17.2708" stroke="#32353E" stroke-opacity="0.5" stroke-width="0.130978"/>
</g>
<g filter="url(#filter20_f_13_3097)">
<path d="M13.4862 22.927L3.37291 17.0881" stroke="white" stroke-opacity="0.2" stroke-width="0.130978" stroke-linecap="round"/>
</g>
</g>
<mask id="mask3_13_3097" style="mask-type:alpha" maskUnits="userSpaceOnUse" x="8" y="21" width="13" height="8">
<path d="M14.3337 28.4346C12.1513 28.4346 10.5093 27.0487 9.47388 26.0598C9.15247 25.7524 8.87168 25.5015 8.67117 25.3274C8.5709 25.2404 8.49069 25.1725 8.43549 25.1263C8.42687 25.1191 8.41887 25.1125 8.41149 25.1063C8.41889 25.1001 8.42693 25.0934 8.43558 25.0861C8.49078 25.0398 8.57098 24.9717 8.67123 24.8844C8.87173 24.7099 9.15249 24.4585 9.47388 24.1512C10.5093 23.1623 12.1513 21.7764 14.3337 21.7764C16.1015 21.7764 17.5471 22.6153 18.5536 23.4589C19.0565 23.8803 19.4485 24.3019 19.7147 24.6181C19.8477 24.7761 19.9492 24.9077 20.0174 24.9995C20.0514 25.0455 20.0772 25.0815 20.0943 25.1059L20.0946 25.1064L20.0943 25.1069C20.0772 25.1313 20.0515 25.1673 20.0174 25.2132C19.9493 25.305 19.8477 25.4365 19.7147 25.5945C19.4485 25.9104 19.0566 26.3318 18.5537 26.753C17.5471 27.5961 16.1015 28.4346 14.3337 28.4346Z" fill="#4B4D53"/>
<path d="M14.3337 28.4346C12.1513 28.4346 10.5093 27.0487 9.47388 26.0598C9.15247 25.7524 8.87168 25.5015 8.67117 25.3274C8.5709 25.2404 8.49069 25.1725 8.43549 25.1263C8.42687 25.1191 8.41887 25.1125 8.41149 25.1063C8.41889 25.1001 8.42693 25.0934 8.43558 25.0861C8.49078 25.0398 8.57098 24.9717 8.67123 24.8844C8.87173 24.7099 9.15249 24.4585 9.47388 24.1512C10.5093 23.1623 12.1513 21.7764 14.3337 21.7764C16.1015 21.7764 17.5471 22.6153 18.5536 23.4589C19.0565 23.8803 19.4485 24.3019 19.7147 24.6181C19.8477 24.7761 19.9492 24.9077 20.0174 24.9995C20.0514 25.0455 20.0772 25.0815 20.0943 25.1059L20.0946 25.1064L20.0943 25.1069C20.0772 25.1313 20.0515 25.1673 20.0174 25.2132C19.9493 25.305 19.8477 25.4365 19.7147 25.5945C19.4485 25.9104 19.0566 26.3318 18.5537 26.753C17.5471 27.5961 16.1015 28.4346 14.3337 28.4346Z" fill="url(#paint13_angular_13_3097)"/>
<path d="M14.3337 28.4346C12.1513 28.4346 10.5093 27.0487 9.47388 26.0598C9.15247 25.7524 8.87168 25.5015 8.67117 25.3274C8.5709 25.2404 8.49069 25.1725 8.43549 25.1263C8.42687 25.1191 8.41887 25.1125 8.41149 25.1063C8.41889 25.1001 8.42693 25.0934 8.43558 25.0861C8.49078 25.0398 8.57098 24.9717 8.67123 24.8844C8.87173 24.7099 9.15249 24.4585 9.47388 24.1512C10.5093 23.1623 12.1513 21.7764 14.3337 21.7764C16.1015 21.7764 17.5471 22.6153 18.5536 23.4589C19.0565 23.8803 19.4485 24.3019 19.7147 24.6181C19.8477 24.7761 19.9492 24.9077 20.0174 24.9995C20.0514 25.0455 20.0772 25.0815 20.0943 25.1059L20.0946 25.1064L20.0943 25.1069C20.0772 25.1313 20.0515 25.1673 20.0174 25.2132C19.9493 25.305 19.8477 25.4365 19.7147 25.5945C19.4485 25.9104 19.0566 26.3318 18.5537 26.753C17.5471 27.5961 16.1015 28.4346 14.3337 28.4346Z" stroke="#32353E" stroke-width="0.130978"/>
</mask>
<g mask="url(#mask3_13_3097)">
<path d="M14.3333 28.4346C12.151 28.4346 10.509 27.0487 9.47358 26.0598C9.15216 25.7524 8.87137 25.5015 8.67086 25.3274C8.5706 25.2404 8.49039 25.1725 8.43518 25.1263C8.42657 25.1191 8.41856 25.1125 8.41118 25.1063C8.41859 25.1001 8.42662 25.0934 8.43527 25.0861C8.49047 25.0398 8.57067 24.9717 8.67093 24.8844C8.87142 24.7099 9.15219 24.4585 9.47358 24.1512C10.509 23.1623 12.151 21.7764 14.3333 21.7764C16.1012 21.7764 17.5468 22.6153 18.5533 23.4589C19.0562 23.8803 19.4482 24.3019 19.7144 24.6181C19.8474 24.7761 19.9489 24.9077 20.0171 24.9995C20.0511 25.0455 20.0769 25.0815 20.094 25.1059L20.0943 25.1064L20.094 25.1069C20.0769 25.1313 20.0511 25.1673 20.0171 25.2132C19.9489 25.305 19.8474 25.4365 19.7144 25.5945C19.4482 25.9104 19.0563 26.3318 18.5534 26.753C17.5468 27.5961 16.1012 28.4346 14.3333 28.4346Z" fill="#4B4D53"/>
<path d="M14.3333 28.4346C12.151 28.4346 10.509 27.0487 9.47358 26.0598C9.15216 25.7524 8.87137 25.5015 8.67086 25.3274C8.5706 25.2404 8.49039 25.1725 8.43518 25.1263C8.42657 25.1191 8.41856 25.1125 8.41118 25.1063C8.41859 25.1001 8.42662 25.0934 8.43527 25.0861C8.49047 25.0398 8.57067 24.9717 8.67093 24.8844C8.87142 24.7099 9.15219 24.4585 9.47358 24.1512C10.509 23.1623 12.151 21.7764 14.3333 21.7764C16.1012 21.7764 17.5468 22.6153 18.5533 23.4589C19.0562 23.8803 19.4482 24.3019 19.7144 24.6181C19.8474 24.7761 19.9489 24.9077 20.0171 24.9995C20.0511 25.0455 20.0769 25.0815 20.094 25.1059L20.0943 25.1064L20.094 25.1069C20.0769 25.1313 20.0511 25.1673 20.0171 25.2132C19.9489 25.305 19.8474 25.4365 19.7144 25.5945C19.4482 25.9104 19.0563 26.3318 18.5534 26.753C17.5468 27.5961 16.1012 28.4346 14.3333 28.4346Z" fill="url(#paint14_angular_13_3097)"/>
<path d="M14.3333 28.4346C12.151 28.4346 10.509 27.0487 9.47358 26.0598C9.15216 25.7524 8.87137 25.5015 8.67086 25.3274C8.5706 25.2404 8.49039 25.1725 8.43518 25.1263C8.42657 25.1191 8.41856 25.1125 8.41118 25.1063C8.41859 25.1001 8.42662 25.0934 8.43527 25.0861C8.49047 25.0398 8.57067 24.9717 8.67093 24.8844C8.87142 24.7099 9.15219 24.4585 9.47358 24.1512C10.509 23.1623 12.151 21.7764 14.3333 21.7764C16.1012 21.7764 17.5468 22.6153 18.5533 23.4589C19.0562 23.8803 19.4482 24.3019 19.7144 24.6181C19.8474 24.7761 19.9489 24.9077 20.0171 24.9995C20.0511 25.0455 20.0769 25.0815 20.094 25.1059L20.0943 25.1064L20.094 25.1069C20.0769 25.1313 20.0511 25.1673 20.0171 25.2132C19.9489 25.305 19.8474 25.4365 19.7144 25.5945C19.4482 25.9104 19.0563 26.3318 18.5534 26.753C17.5468 27.5961 16.1012 28.4346 14.3333 28.4346Z" stroke="#32353E" stroke-width="0.130978"/>
<g filter="url(#filter21_f_13_3097)">
<path d="M20.0199 25.1055C19.9528 25.2044 17.7675 28.3799 14.3429 28.3799C12.1939 28.3799 10.5812 27.0252 9.57371 26.0698C9.00112 25.5265 8.56261 25.1666 8.49376 25.1091C8.69308 25.2296 11.9293 27.1619 14.727 27.1619C17.5247 27.1619 19.9438 25.1666 20.0199 25.1055Z" fill="black" fill-opacity="0.7"/>
</g>
<g filter="url(#filter22_f_13_3097)">
<path d="M20.074 25.1562H15.311C17.9535 25.2883 18.0249 26.8682 17.193 27.6696C17.7215 27.5521 19.3094 25.9637 20.074 25.1562Z" fill="black" fill-opacity="0.6"/>
</g>
<g filter="url(#filter23_f_13_3097)">
<path d="M20.1749 25.1055L15.6973 24.886C18.3398 24.7539 18.1258 23.3935 17.2939 22.5922C17.8224 22.7096 19.4103 24.298 20.1749 25.1055Z" fill="black" fill-opacity="0.2"/>
</g>
<g filter="url(#filter24_f_13_3097)">
<path d="M8.49632 25.0963C10.6421 22.9391 12.5071 21.9194 14.1189 21.8379C14.6804 21.867 15.6795 21.8379 16.781 22.4231C15.4284 22.3631 11.8433 23.0747 10.4355 25.0963H9.67821H8.49632Z" fill="url(#paint15_linear_13_3097)"/>
</g>
<g filter="url(#filter25_f_13_3097)">
<line x1="20.1735" y1="25.243" x2="8.49567" y2="25.243" stroke="#32353E" stroke-opacity="0.5" stroke-width="0.130978"/>
</g>
<g filter="url(#filter26_f_13_3097)">
<path d="M20.1735 25.0308L8.49567 25.0308" stroke="white" stroke-opacity="0.2" stroke-width="0.130978" stroke-linecap="round"/>
</g>
</g>
<defs>
<filter id="filter0_f_13_3097" x="14.802" y="24.7576" width="5.96488" height="7.11985" filterUnits="userSpaceOnUse" color-interpolation-filters="sRGB">
<feFlood flood-opacity="0" result="BackgroundImageFix"/>
<feBlend mode="normal" in="SourceGraphic" in2="BackgroundImageFix" result="shape"/>
<feGaussianBlur stdDeviation="0.261957" result="effect1_foregroundBlur_13_3097"/>
</filter>
<filter id="filter1_f_13_3097" x="14.802" y="24.7576" width="5.96488" height="7.11985" filterUnits="userSpaceOnUse" color-interpolation-filters="sRGB">
<feFlood flood-opacity="0" result="BackgroundImageFix"/>
<feBlend mode="normal" in="SourceGraphic" in2="BackgroundImageFix" result="shape"/>
<feGaussianBlur stdDeviation="0.261957" result="effect1_foregroundBlur_13_3097"/>
</filter>
<filter id="filter2_f_13_3097" x="7.26159" y="3.4556" width="6.4449" height="9.8283" filterUnits="userSpaceOnUse" color-interpolation-filters="sRGB">
<feFlood flood-opacity="0" result="BackgroundImageFix"/>
<feBlend mode="normal" in="SourceGraphic" in2="BackgroundImageFix" result="shape"/>
<feGaussianBlur stdDeviation="0.78587" result="effect1_foregroundBlur_13_3097"/>
</filter>
<filter id="filter3_f_13_3097" x="3.96017" y="3.4556" width="6.4449" height="9.8283" filterUnits="userSpaceOnUse" color-interpolation-filters="sRGB">
<feFlood flood-opacity="0" result="BackgroundImageFix"/>
<feBlend mode="normal" in="SourceGraphic" in2="BackgroundImageFix" result="shape"/>
<feGaussianBlur stdDeviation="0.78587" result="effect1_foregroundBlur_13_3097"/>
</filter>
<filter id="filter4_f_13_3097" x="4.69935" y="5.43241" width="5.65679" height="7.90642" filterUnits="userSpaceOnUse" color-interpolation-filters="sRGB">
<feFlood flood-opacity="0" result="BackgroundImageFix"/>
<feBlend mode="normal" in="SourceGraphic" in2="BackgroundImageFix" result="shape"/>
<feGaussianBlur stdDeviation="0.78587" result="effect1_foregroundBlur_13_3097"/>
</filter>
<filter id="filter5_f_13_3097" x="7.79536" y="-0.861059" width="5.35406" height="10.3803" filterUnits="userSpaceOnUse" color-interpolation-filters="sRGB">
<feFlood flood-opacity="0" result="BackgroundImageFix"/>
<feBlend mode="normal" in="SourceGraphic" in2="BackgroundImageFix" result="shape"/>
<feGaussianBlur stdDeviation="0.523914" result="effect1_foregroundBlur_13_3097"/>
</filter>
<filter id="filter6_f_13_3097" x="4.52754" y="-0.861059" width="5.35406" height="10.3803" filterUnits="userSpaceOnUse" color-interpolation-filters="sRGB">
<feFlood flood-opacity="0" result="BackgroundImageFix"/>
<feBlend mode="normal" in="SourceGraphic" in2="BackgroundImageFix" result="shape"/>
<feGaussianBlur stdDeviation="0.523914" result="effect1_foregroundBlur_13_3097"/>
</filter>
<filter id="filter7_f_13_3097" x="8.37086" y="-0.074945" width="0.654895" height="12.2016" filterUnits="userSpaceOnUse" color-interpolation-filters="sRGB">
<feFlood flood-opacity="0" result="BackgroundImageFix"/>
<feBlend mode="normal" in="SourceGraphic" in2="BackgroundImageFix" result="shape"/>
<feGaussianBlur stdDeviation="0.130978" result="effect1_foregroundBlur_13_3097"/>
</filter>
<filter id="filter8_f_13_3097" x="8.58057" y="-0.140375" width="0.654895" height="12.3325" filterUnits="userSpaceOnUse" color-interpolation-filters="sRGB">
<feFlood flood-opacity="0" result="BackgroundImageFix"/>
<feBlend mode="normal" in="SourceGraphic" in2="BackgroundImageFix" result="shape"/>
<feGaussianBlur stdDeviation="0.130978" result="effect1_foregroundBlur_13_3097"/>
</filter>
<filter id="filter9_f_13_3097" x="1.25603" y="6.22001" width="9.53404" height="13.1237" filterUnits="userSpaceOnUse" color-interpolation-filters="sRGB">
<feFlood flood-opacity="0" result="BackgroundImageFix"/>
<feBlend mode="normal" in="SourceGraphic" in2="BackgroundImageFix" result="shape"/>
<feGaussianBlur stdDeviation="0.78587" result="effect1_foregroundBlur_13_3097"/>
</filter>
<filter id="filter10_f_13_3097" x="4.01153" y="12.1482" width="6.76055" height="7.26824" filterUnits="userSpaceOnUse" color-interpolation-filters="sRGB">
<feFlood flood-opacity="0" result="BackgroundImageFix"/>
<feBlend mode="normal" in="SourceGraphic" in2="BackgroundImageFix" result="shape"/>
<feGaussianBlur stdDeviation="0.78587" result="effect1_foregroundBlur_13_3097"/>
</filter>
<filter id="filter11_f_13_3097" x="5.45644" y="10.187" width="6.12685" height="9.28997" filterUnits="userSpaceOnUse" color-interpolation-filters="sRGB">
<feFlood flood-opacity="0" result="BackgroundImageFix"/>
<feBlend mode="normal" in="SourceGraphic" in2="BackgroundImageFix" result="shape"/>
<feGaussianBlur stdDeviation="0.78587" result="effect1_foregroundBlur_13_3097"/>
</filter>
<filter id="filter12_f_13_3097" x="2.41602" y="6.73928" width="8.55307" height="7.93379" filterUnits="userSpaceOnUse" color-interpolation-filters="sRGB">
<feFlood flood-opacity="0" result="BackgroundImageFix"/>
<feBlend mode="normal" in="SourceGraphic" in2="BackgroundImageFix" result="shape"/>
<feGaussianBlur stdDeviation="0.523914" result="effect1_foregroundBlur_13_3097"/>
</filter>
<filter id="filter13_f_13_3097" x="3.01519" y="7.56592" width="6.47625" height="10.7026" filterUnits="userSpaceOnUse" color-interpolation-filters="sRGB">
<feFlood flood-opacity="0" result="BackgroundImageFix"/>
<feBlend mode="normal" in="SourceGraphic" in2="BackgroundImageFix" result="shape"/>
<feGaussianBlur stdDeviation="0.130978" result="effect1_foregroundBlur_13_3097"/>
</filter>
<filter id="filter14_f_13_3097" x="3.19189" y="7.42725" width="6.49382" height="10.7681" filterUnits="userSpaceOnUse" color-interpolation-filters="sRGB">
<feFlood flood-opacity="0" result="BackgroundImageFix"/>
<feBlend mode="normal" in="SourceGraphic" in2="BackgroundImageFix" result="shape"/>
<feGaussianBlur stdDeviation="0.130978" result="effect1_foregroundBlur_13_3097"/>
</filter>
<filter id="filter15_f_13_3097" x="1.75759" y="15.5823" width="13.1272" height="9.67424" filterUnits="userSpaceOnUse" color-interpolation-filters="sRGB">
<feFlood flood-opacity="0" result="BackgroundImageFix"/>
<feBlend mode="normal" in="SourceGraphic" in2="BackgroundImageFix" result="shape"/>
<feGaussianBlur stdDeviation="0.78587" result="effect1_foregroundBlur_13_3097"/>
</filter>
<filter id="filter16_f_13_3097" x="7.64173" y="19.032" width="7.26834" height="6.28923" filterUnits="userSpaceOnUse" color-interpolation-filters="sRGB">
<feFlood flood-opacity="0" result="BackgroundImageFix"/>
<feBlend mode="normal" in="SourceGraphic" in2="BackgroundImageFix" result="shape"/>
<feGaussianBlur stdDeviation="0.78587" result="effect1_foregroundBlur_13_3097"/>
</filter>
<filter id="filter17_f_13_3097" x="8.10689" y="17.802" width="6.91141" height="6.76042" filterUnits="userSpaceOnUse" color-interpolation-filters="sRGB">
<feFlood flood-opacity="0" result="BackgroundImageFix"/>
<feBlend mode="normal" in="SourceGraphic" in2="BackgroundImageFix" result="shape"/>
<feGaussianBlur stdDeviation="0.78587" result="effect1_foregroundBlur_13_3097"/>
</filter>
<filter id="filter18_f_13_3097" x="2.28951" y="15.5161" width="10.607" height="4.50239" filterUnits="userSpaceOnUse" color-interpolation-filters="sRGB">
<feFlood flood-opacity="0" result="BackgroundImageFix"/>
<feBlend mode="normal" in="SourceGraphic" in2="BackgroundImageFix" result="shape"/>
<feGaussianBlur stdDeviation="0.523914" result="effect1_foregroundBlur_13_3097"/>
</filter>
<filter id="filter19_f_13_3097" x="2.97077" y="16.9522" width="10.7027" height="6.47631" filterUnits="userSpaceOnUse" color-interpolation-filters="sRGB">
<feFlood flood-opacity="0" result="BackgroundImageFix"/>
<feBlend mode="normal" in="SourceGraphic" in2="BackgroundImageFix" result="shape"/>
<feGaussianBlur stdDeviation="0.130978" result="effect1_foregroundBlur_13_3097"/>
</filter>
<filter id="filter20_f_13_3097" x="3.04545" y="16.7607" width="10.7682" height="6.49364" filterUnits="userSpaceOnUse" color-interpolation-filters="sRGB">
<feFlood flood-opacity="0" result="BackgroundImageFix"/>
<feBlend mode="normal" in="SourceGraphic" in2="BackgroundImageFix" result="shape"/>
<feGaussianBlur stdDeviation="0.130978" result="effect1_foregroundBlur_13_3097"/>
</filter>
<filter id="filter21_f_13_3097" x="6.92202" y="23.5337" width="14.6696" height="6.4179" filterUnits="userSpaceOnUse" color-interpolation-filters="sRGB">
<feFlood flood-opacity="0" result="BackgroundImageFix"/>
<feBlend mode="normal" in="SourceGraphic" in2="BackgroundImageFix" result="shape"/>
<feGaussianBlur stdDeviation="0.78587" result="effect1_foregroundBlur_13_3097"/>
</filter>
<filter id="filter22_f_13_3097" x="13.7392" y="23.5845" width="7.90645" height="5.65691" filterUnits="userSpaceOnUse" color-interpolation-filters="sRGB">
<feFlood flood-opacity="0" result="BackgroundImageFix"/>
<feBlend mode="normal" in="SourceGraphic" in2="BackgroundImageFix" result="shape"/>
<feGaussianBlur stdDeviation="0.78587" result="effect1_foregroundBlur_13_3097"/>
</filter>
<filter id="filter23_f_13_3097" x="14.1256" y="21.0203" width="7.62102" height="5.65691" filterUnits="userSpaceOnUse" color-interpolation-filters="sRGB">
<feFlood flood-opacity="0" result="BackgroundImageFix"/>
<feBlend mode="normal" in="SourceGraphic" in2="BackgroundImageFix" result="shape"/>
<feGaussianBlur stdDeviation="0.78587" result="effect1_foregroundBlur_13_3097"/>
</filter>
<filter id="filter24_f_13_3097" x="7.4485" y="20.7901" width="10.3804" height="5.35395" filterUnits="userSpaceOnUse" color-interpolation-filters="sRGB">
<feFlood flood-opacity="0" result="BackgroundImageFix"/>
<feBlend mode="normal" in="SourceGraphic" in2="BackgroundImageFix" result="shape"/>
<feGaussianBlur stdDeviation="0.523914" result="effect1_foregroundBlur_13_3097"/>
</filter>
<filter id="filter25_f_13_3097" x="8.23371" y="24.9155" width="12.2017" height="0.654773" filterUnits="userSpaceOnUse" color-interpolation-filters="sRGB">
<feFlood flood-opacity="0" result="BackgroundImageFix"/>
<feBlend mode="normal" in="SourceGraphic" in2="BackgroundImageFix" result="shape"/>
<feGaussianBlur stdDeviation="0.130978" result="effect1_foregroundBlur_13_3097"/>
</filter>
<filter id="filter26_f_13_3097" x="8.16822" y="24.7034" width="12.3327" height="0.654773" filterUnits="userSpaceOnUse" color-interpolation-filters="sRGB">
<feFlood flood-opacity="0" result="BackgroundImageFix"/>
<feBlend mode="normal" in="SourceGraphic" in2="BackgroundImageFix" result="shape"/>
<feGaussianBlur stdDeviation="0.130978" result="effect1_foregroundBlur_13_3097"/>
</filter>
<linearGradient id="paint0_linear_13_3097" x1="19.6411" y1="25.9437" x2="19.958" y2="26.183" gradientUnits="userSpaceOnUse">
<stop stop-color="#24272D"/>
<stop offset="1" stop-color="#24272D" stop-opacity="0"/>
</linearGradient>
<radialGradient id="paint1_angular_13_3097" cx="0" cy="0" r="1" gradientUnits="userSpaceOnUse" gradientTransform="translate(8.8336 11.8653) rotate(-90) scale(11.8656 20.7379)">
<stop stop-color="#686A74"/>
<stop offset="1" stop-color="#686A74" stop-opacity="0"/>
</radialGradient>
<radialGradient id="paint2_angular_13_3097" cx="0" cy="0" r="1" gradientUnits="userSpaceOnUse" gradientTransform="translate(8.83322 11.8651) rotate(-90) scale(11.8656 20.7379)">
<stop stop-color="#686A74"/>
<stop offset="1" stop-color="#686A74" stop-opacity="0"/>
</radialGradient>
<linearGradient id="paint3_linear_13_3097" x1="9.93653" y1="10.4833" x2="8.09577" y2="2.73088" gradientUnits="userSpaceOnUse">
<stop stop-color="#161618"/>
<stop offset="1" stop-color="#161618" stop-opacity="0"/>
</linearGradient>
<linearGradient id="paint4_linear_13_3097" x1="7.73012" y1="10.4833" x2="9.57089" y2="2.73088" gradientUnits="userSpaceOnUse">
<stop stop-color="#161618"/>
<stop offset="1" stop-color="#161618" stop-opacity="0"/>
</linearGradient>
<linearGradient id="paint5_linear_13_3097" x1="10.4724" y1="-1.10086" x2="8.45566" y2="6.59747" gradientUnits="userSpaceOnUse">
<stop stop-color="white"/>
<stop offset="1" stop-color="white" stop-opacity="0"/>
</linearGradient>
<linearGradient id="paint6_linear_13_3097" x1="5.08065" y1="-1.20632" x2="7.75222" y2="4.80471" gradientUnits="userSpaceOnUse">
<stop stop-color="white"/>
<stop offset="1" stop-color="white" stop-opacity="0"/>
</linearGradient>
<radialGradient id="paint7_angular_13_3097" cx="0" cy="0" r="1" gradientUnits="userSpaceOnUse" gradientTransform="translate(9.29491 17.9053) rotate(-120) scale(11.8656 20.7379)">
<stop stop-color="#686A74"/>
<stop offset="1" stop-color="#686A74" stop-opacity="0"/>
</radialGradient>
<radialGradient id="paint8_angular_13_3097" cx="0" cy="0" r="1" gradientUnits="userSpaceOnUse" gradientTransform="translate(9.29418 17.9051) rotate(-120) scale(11.8656 20.7379)">
<stop stop-color="#686A74"/>
<stop offset="1" stop-color="#686A74" stop-opacity="0"/>
</radialGradient>
<linearGradient id="paint9_linear_13_3097" x1="7.73467" y1="7.7135" x2="5.74246" y2="11.7337" gradientUnits="userSpaceOnUse">
<stop stop-color="white"/>
<stop offset="1" stop-color="white" stop-opacity="0"/>
</linearGradient>
<radialGradient id="paint10_angular_13_3097" cx="0" cy="0" r="1" gradientUnits="userSpaceOnUse" gradientTransform="translate(13.447 22.991) rotate(-150) scale(11.8656 20.7379)">
<stop stop-color="#686A74"/>
<stop offset="1" stop-color="#686A74" stop-opacity="0"/>
</radialGradient>
<radialGradient id="paint11_angular_13_3097" cx="0" cy="0" r="1" gradientUnits="userSpaceOnUse" gradientTransform="translate(13.4473 22.9907) rotate(-150) scale(11.8656 20.7379)">
<stop stop-color="#686A74"/>
<stop offset="1" stop-color="#686A74" stop-opacity="0"/>
</radialGradient>
<linearGradient id="paint12_linear_13_3097" x1="7.05867" y1="13.3276" x2="7.28395" y2="19.4219" gradientUnits="userSpaceOnUse">
<stop stop-color="white"/>
<stop offset="1" stop-color="white" stop-opacity="0"/>
</linearGradient>
<radialGradient id="paint13_angular_13_3097" cx="0" cy="0" r="1" gradientUnits="userSpaceOnUse" gradientTransform="translate(20.1742 25.1055) rotate(-180) scale(11.8656 20.7379)">
<stop stop-color="#686A74"/>
<stop offset="1" stop-color="#686A74" stop-opacity="0"/>
</radialGradient>
<radialGradient id="paint14_angular_13_3097" cx="0" cy="0" r="1" gradientUnits="userSpaceOnUse" gradientTransform="translate(20.1739 25.1055) rotate(-180) scale(11.8656 20.7379)">
<stop stop-color="#686A74"/>
<stop offset="1" stop-color="#686A74" stop-opacity="0"/>
</radialGradient>
<linearGradient id="paint15_linear_13_3097" x1="9.81117" y1="19.931" x2="13.0534" y2="25.0962" gradientUnits="userSpaceOnUse">
<stop stop-color="white"/>
<stop offset="1" stop-color="white" stop-opacity="0"/>
</linearGradient>
</defs>
</svg>
