<svg width="100" height="101" viewBox="0 0 100 101" fill="none" xmlns="http://www.w3.org/2000/svg">
<path d="M17.1128 12.9667L18.4345 12.3058C17.9824 12.4971 17.5389 12.7232 17.1128 12.9667Z" fill="#FCE6FF" stroke="#F14CFF" stroke-width="1.5" stroke-linecap="round" stroke-linejoin="round"/>
<path d="M72.66 57.4621C70.8687 51.6708 68.4426 46.123 65.3731 40.8274C64.5122 39.3491 63.6078 37.8969 62.66 36.4795C60.2426 32.8361 57.5296 29.4186 54.547 26.2099C52.573 24.0881 50.5208 22.1577 48.4077 20.4273C46.0947 18.5316 43.7122 16.8794 41.2426 15.4534C36.5817 12.7577 32.1903 11.2273 28.0773 10.8707C28.0338 10.8621 27.9904 10.8534 27.9469 10.8534C24.373 10.5577 21.1991 11.0447 18.4339 12.3055L17.1122 12.9664C14.0426 14.7229 11.6165 17.4621 9.82518 21.1838C8.03387 24.9142 7.13824 29.4881 7.13824 34.8968C7.13824 40.3055 8.03387 45.9143 9.82518 51.7143C11.6165 57.5056 14.0426 63.0534 17.1122 68.349C20.1817 73.636 23.7903 78.5142 27.9469 82.9664C32.0947 87.4097 36.5296 91.001 41.2426 93.7227C45.9644 96.4445 50.3991 97.9836 54.547 98.3227C58.6948 98.6619 62.3035 97.9575 65.3731 96.2097C67.9817 94.7227 70.1209 92.5227 71.7991 89.6097C72.1035 89.0967 72.3904 88.5575 72.66 87.9923C74.4513 84.262 75.3469 79.6881 75.3469 74.2794C75.3469 68.8707 74.4513 63.2621 72.66 57.4621ZM51.4774 48.7578L44.6513 44.8186V68.2968L51.4774 72.236V80.0621L31.0164 68.2447V60.4186L37.2165 64.0012L37.8338 64.3577V40.8794L31.0164 36.9403V29.1142L38.2773 33.3055L45.0948 37.2447L51.4774 40.9317V48.7578Z" fill="#FCE6FF" stroke="#F14CFF" stroke-width="1.5" stroke-linecap="round" stroke-linejoin="round"/>
<path d="M81.4419 88.175C81.8941 87.9837 82.3376 87.7576 82.7637 87.5142L81.4419 88.175Z" fill="#FCE6FF" stroke="#F14CFF" stroke-width="1.5" stroke-linecap="round" stroke-linejoin="round"/>
<path d="M44.6504 60.949V61.4272L37.7896 64.8533L31.0157 68.2445V60.4185L37.2157 64.0011L37.833 64.3576L44.6504 60.949Z" fill="#FCE6FF" stroke="#F14CFF" stroke-width="1.5" stroke-linecap="round" stroke-linejoin="round"/>
<path d="M51.4765 72.236V80.0621L31.0157 68.2446L37.7896 64.8534L44.6504 61.4272V68.2968L51.4765 72.236Z" fill="#FCE6FF" stroke="#F14CFF" stroke-width="1.5" stroke-linecap="round" stroke-linejoin="round"/>
<path d="M51.4762 41.4098V48.7577L44.6502 44.8185L51.4762 41.4098Z" fill="#FCE6FF" stroke="#F14CFF" stroke-width="1.5" stroke-linecap="round" stroke-linejoin="round"/>
<path d="M38.2764 33.3054L31.0157 36.9402V29.1141L38.2764 33.3054Z" fill="#FCE6FF" stroke="#F14CFF" stroke-width="1.5" stroke-linecap="round" stroke-linejoin="round"/>
<path d="M45.0939 37.2446L37.833 40.8793L31.0157 36.9402L38.2764 33.3054L45.0939 37.2446Z" fill="#FCE6FF" stroke="#F14CFF" stroke-width="1.5" stroke-linecap="round" stroke-linejoin="round"/>
<path d="M92.7383 65.5837C92.7383 70.9924 91.8428 75.5663 90.0515 79.2968C88.2602 83.0185 85.8341 85.7577 82.7645 87.5141L65.3732 96.2097C67.9819 94.7228 70.121 92.5228 71.7993 89.6097C72.1037 89.0967 72.3906 88.5576 72.6602 87.9923C74.4515 84.262 75.3471 79.6881 75.3471 74.2794C75.3471 68.8707 74.4515 63.262 72.6602 57.462C70.8689 51.6707 68.4428 46.1229 65.3732 40.8272C64.5123 39.349 63.608 37.8968 62.6602 36.4794C60.2428 32.8359 57.5297 29.4185 54.5471 26.2098C52.5732 24.0881 50.521 22.1577 48.408 20.4272C46.095 18.5316 43.7123 16.8794 41.2428 15.4533C36.5819 12.7577 32.1906 11.2272 28.0776 10.8707C28.0341 10.862 27.9906 10.8532 27.9471 10.8532C24.3732 10.5576 21.1993 11.0446 18.4341 12.3055L34.5037 4.2707C37.5732 2.52287 41.1819 1.81848 45.3384 2.15761C49.4863 2.49674 53.921 4.03591 58.6341 6.75765C63.3558 9.47939 67.7906 13.0707 71.9384 17.5142C76.0863 21.9663 79.695 26.8446 82.7645 32.1316C85.8341 37.4272 88.2602 42.975 90.0515 48.7663C91.8428 54.5663 92.7383 60.1663 92.7383 65.5837Z" fill="#FCE6FF" stroke="#F14CFF" stroke-width="1.5" stroke-linecap="round" stroke-linejoin="round"/>
<path d="M51.4781 40.9315V41.4098L44.6521 44.8185V60.949L37.8346 64.3576V40.8793L45.0956 37.2446L51.4781 40.9315Z" fill="#FCE6FF" stroke="#F14CFF" stroke-width="1.5" stroke-linecap="round" stroke-linejoin="round"/>
</svg>
