<svg width="100" height="101" viewBox="0 0 100 101" fill="none" xmlns="http://www.w3.org/2000/svg">
<path d="M61.9386 66.2534C61.9386 66.4727 61.9386 66.6832 61.921 66.8937C59.0263 68.3674 53.1842 71.3323 49.4737 73.1744C47.5789 74.113 46.2456 74.7621 46.1403 74.7709L41.307 66.4288L58.8509 57.6569L61.6754 62.5428C61.8596 63.8148 61.9386 65.0516 61.9386 66.2534Z" fill="#FFDFDF" stroke="#FF4E4C" stroke-width="1.5" stroke-linecap="round" stroke-linejoin="round"/>
<path d="M60.9561 88.1569L58.8509 89.3586L41.307 98.1305L46.1403 95.3674L57.9649 89.4551C58.2281 89.3762 58.4912 89.2884 58.7456 89.1744C59.2105 89.0165 59.6579 88.8148 60.0965 88.5867L60.9561 88.1569Z" fill="#FFDFDF" stroke="#FF4E4C" stroke-width="1.5" stroke-linecap="round" stroke-linejoin="round"/>
<path d="M68.8509 70.2447C68.8509 70.9815 68.8333 71.7008 68.7895 72.3938C68.6228 75.6482 68.0439 78.464 67.0526 80.8499C66.1842 82.9815 64.9912 84.771 63.4649 86.2096C62.9825 86.6745 62.4737 87.0868 61.9298 87.4727C61.5702 87.7271 61.2018 87.964 60.8158 88.192C60.5789 88.3324 60.3421 88.464 60.0965 88.5868C59.6579 88.8148 59.2105 89.0166 58.7456 89.1745C58.4912 89.2885 58.2281 89.3762 57.9649 89.4552C53.2018 90.9727 47.6228 89.8762 41.2281 86.192L40.6228 85.8412L46.1403 95.3675L41.307 98.1306L27.5 74.3061L41.307 66.4289L46.1403 74.771L40.6228 77.9201L41.2281 78.2622C46.0263 81.0341 50.2193 81.8412 53.8158 80.6745C54.5351 80.4552 55.2281 80.1394 55.9035 79.7534C56.886 79.1833 57.7544 78.4815 58.5 77.6482C58.5789 77.5605 58.6491 77.4815 58.7193 77.3938C60.1228 75.7271 61.0702 73.5605 61.5526 70.9026C61.7719 69.7096 61.8947 68.4113 61.9211 67.0078C61.9298 66.9727 61.9298 66.9289 61.9211 66.8938C61.9386 66.6833 61.9386 66.4727 61.9386 66.2534C61.9386 65.0517 61.8596 63.8148 61.6754 62.5429C61.614 61.999 61.5263 61.4552 61.4211 60.9026C61.0789 59.0517 60.5614 57.1394 59.8684 55.1569L65.0526 52.2008C66.3158 55.4376 67.2632 58.5605 67.8947 61.5692C68.5351 64.578 68.8509 67.4727 68.8509 70.2447Z" fill="#FFDFDF" stroke="#FF4E4C" stroke-width="1.5" stroke-linecap="round" stroke-linejoin="round"/>
<path d="M72.4912 25.9113L58.6842 33.7797L41.1404 42.5516L54.9474 34.6832L58.2544 33.0341L72.4912 25.9113Z" fill="#FFDFDF" stroke="#FF4E4C" stroke-width="1.5" stroke-linecap="round" stroke-linejoin="round"/>
<path d="M40.1228 45.0604L34.9386 48.0078L17.3947 56.7797L22.579 53.8324L34.8246 47.7095L40.1228 45.0604Z" fill="#FFDFDF" stroke="#FF4E4C" stroke-width="1.5" stroke-linecap="round" stroke-linejoin="round"/>
<path d="M40.1228 45.0603L34.8245 47.7094L22.5789 53.8322C21.886 51.8498 21.3684 49.9288 21.0263 48.0779C20.6754 46.2271 20.5088 44.4463 20.5088 42.727C20.5088 36.0603 22.5175 31.5603 26.5526 29.227C27.9912 28.3936 29.5438 27.9288 31.2017 27.8148C33.4123 27.6656 35.8245 28.1656 38.4386 29.3059C38.2193 30.5077 38.0965 31.806 38.0702 33.2095L36.307 34.2183L38.307 37.6743C38.3772 38.2094 38.4649 38.7534 38.5702 39.306C38.9123 41.1569 39.4298 43.0778 40.1228 45.0603Z" fill="#FFDFDF" stroke="#FF4E4C" stroke-width="1.5" stroke-linecap="round" stroke-linejoin="round"/>
<path d="M72.4912 25.9112L58.2544 33.0341L54.9474 34.6832L46.1667 19.534L41.2456 11.034L41.1404 10.8586L58.6842 2.08667L72.4912 25.9112Z" fill="#FFDFDF" stroke="#FF4E4C" stroke-width="1.5" stroke-linecap="round" stroke-linejoin="round"/>
<path d="M54.9474 34.6832L41.1404 42.5516L38.307 37.6744L36.307 34.2183L38.0702 33.2095L41.8246 31.0692L41.2281 30.7183C40.2719 30.1657 39.3421 29.692 38.4386 29.306C35.8246 28.1657 33.4123 27.6657 31.2018 27.8148C29.5439 27.9288 27.9912 28.3937 26.5526 29.2271C22.5175 31.5604 20.5088 36.0604 20.5088 42.7271C20.5088 44.4464 20.6754 46.2271 21.0263 48.0779C21.3684 49.9288 21.886 51.8499 22.579 53.8323L17.3947 56.7797C16.1316 53.5429 15.1842 50.42 14.5526 47.4113C13.9123 44.4025 13.5965 41.5165 13.5965 38.7446C13.5965 29.8937 16.2719 23.9113 21.6316 20.7885C22.114 20.5078 22.5965 20.2622 23.0965 20.0429C26.0439 18.7534 29.3246 18.5253 32.9386 19.3586C35.5263 19.9551 38.2895 21.1043 41.2281 22.7972L41.2719 22.8236L41.8246 23.1393L41.4912 22.5692L36.5263 13.999L36.307 13.613L38.8158 12.1832L41.1404 10.8586L41.2456 11.0341L46.1667 19.5341L54.9474 34.6832Z" fill="#FFDFDF" stroke="#FF4E4C" stroke-width="1.5" stroke-linecap="round" stroke-linejoin="round"/>
<path d="M41.8246 23.1394L41.2719 22.8236L41.2281 22.7973C38.2895 21.1043 35.5263 19.9552 32.9386 19.3587C29.3246 18.5253 26.0439 18.7534 23.0965 20.0429L38.8158 12.1832L36.307 13.6131L36.5263 13.999L41.4912 22.5692L41.8246 23.1394Z" fill="#FFDFDF" stroke="#FF4E4C" stroke-width="1.5" stroke-linecap="round" stroke-linejoin="round"/>
<path d="M86.3947 61.4727C86.3947 70.3236 83.7193 76.306 78.3597 79.4201C77.8509 79.7183 77.3421 79.9815 76.807 80.2008L76.7281 80.2358L60.9825 88.1394L60.9561 88.1569L60.0965 88.5867C60.3421 88.4639 60.579 88.3323 60.8158 88.192C61.2018 87.9639 61.5702 87.7271 61.9298 87.4727C62.4737 87.0867 62.9825 86.6744 63.4649 86.2095C64.9912 84.7709 66.1842 82.9815 67.0526 80.8499C68.0439 78.4639 68.6228 75.6481 68.7895 72.3937C68.8333 71.7008 68.8509 70.9815 68.8509 70.2446C68.8509 67.4727 68.5351 64.578 67.8947 61.5692C67.2632 58.5604 66.3158 55.4376 65.0526 52.2008L82.5965 43.4288C83.8597 46.6657 84.807 49.7885 85.4386 52.7973C86.079 55.806 86.3947 58.7008 86.3947 61.4727Z" fill="#FFDFDF" stroke="#FF4E4C" stroke-width="1.5" stroke-linecap="round" stroke-linejoin="round"/>
<path d="M57.965 89.4551L46.1404 95.3674L40.6229 85.8411L41.2282 86.1919C47.6229 89.8762 53.2018 90.9726 57.965 89.4551Z" fill="#FFDFDF" stroke="#FF4E4C" stroke-width="1.5" stroke-linecap="round" stroke-linejoin="round"/>
<path d="M61.9211 66.8937C61.9211 66.8937 61.9299 66.9726 61.9211 67.0077L58.1668 69.1481L40.6229 77.92L46.1404 74.7709C46.2457 74.7709 47.579 74.113 49.4738 73.1744C53.1843 71.3323 59.0264 68.3674 61.9211 66.8937Z" fill="#FFDFDF" stroke="#FF4E4C" stroke-width="1.5" stroke-linecap="round" stroke-linejoin="round"/>
<path d="M61.5527 70.9025C61.0703 73.5604 60.1229 75.727 58.7194 77.3937C58.6492 77.4814 58.579 77.5604 58.5001 77.6481C57.7545 78.4814 56.8861 79.1832 55.9036 79.7533C55.2282 80.1393 54.5352 80.4551 53.8159 80.6744C50.2194 81.8411 46.0264 81.034 41.2282 78.2621L40.6229 77.92L58.1668 69.1481L58.772 69.4902C59.7194 70.0428 60.6492 70.5077 61.5527 70.9025Z" fill="#FFDFDF" stroke="#FF4E4C" stroke-width="1.5" stroke-linecap="round" stroke-linejoin="round"/>
</svg>
