<svg width="100" height="101" viewBox="0 0 100 101" fill="none" xmlns="http://www.w3.org/2000/svg">
<path d="M69.5156 49.689L63.6016 46.2749L42.0625 33.8374L36.1484 23.6421L28.125 19.0093L12.5 9.98584V64.2593L71.625 98.3999V50.9077L69.5156 49.689ZM59.7969 71.2202L54.2734 68.0249L53.8906 67.8061V74.5874L47.9766 71.1733V64.3921L42.0625 60.978V54.1968L47.9766 57.603V50.8218L53.8906 54.2358V61.0171L54.2812 61.2437L59.7969 64.4312V71.2202Z" fill="#EEE8FF" stroke="#A479FF" stroke-width="1.5" stroke-linecap="round" stroke-linejoin="round"/>
<path d="M53.8908 54.2358V54.6499L47.9767 57.603V50.8218L53.8908 54.2358Z" fill="#EEE8FF" stroke="#A479FF" stroke-width="1.5" stroke-linecap="round" stroke-linejoin="round"/>
<path d="M54.2811 61.2436L47.9764 64.3921L42.0623 60.978V54.1968L47.9764 57.603L53.8905 54.6499V61.0171L54.2811 61.2436Z" fill="#EEE8FF" stroke="#A479FF" stroke-width="1.5" stroke-linecap="round" stroke-linejoin="round"/>
<path d="M59.797 64.4312V64.853L53.8908 67.8062V68.2202L51.008 69.6577L47.9767 71.1733V64.3921L54.2814 61.2437L59.797 64.4312Z" fill="#EEE8FF" stroke="#A479FF" stroke-width="1.5" stroke-linecap="round" stroke-linejoin="round"/>
<path d="M59.7969 64.853V71.2202L54.2734 68.0249L53.8906 67.8062L59.7969 64.853Z" fill="#EEE8FF" stroke="#A479FF" stroke-width="1.5" stroke-linecap="round" stroke-linejoin="round"/>
<path d="M87.2502 43.0952V90.5874L71.6252 98.3999V50.9077L87.2502 43.0952Z" fill="#EEE8FF" stroke="#A479FF" stroke-width="1.5" stroke-linecap="round" stroke-linejoin="round"/>
<path d="M87.2498 43.0952L71.6248 50.9077L69.5155 49.689L63.6014 46.2749L42.0623 33.8374L57.6873 26.0249L87.2498 43.0952Z" fill="#EEE8FF" stroke="#A479FF" stroke-width="1.5" stroke-linecap="round" stroke-linejoin="round"/>
<path d="M57.6875 26.0249L42.0625 33.8374L36.1484 23.6421L51.7734 15.8296L57.6875 26.0249Z" fill="#EEE8FF" stroke="#A479FF" stroke-width="1.5" stroke-linecap="round" stroke-linejoin="round"/>
<path d="M51.7734 15.8296L36.1484 23.6421L28.125 19.0093L12.5 9.98585L28.125 2.17334L51.7734 15.8296Z" fill="#EEE8FF" stroke="#A479FF" stroke-width="1.5" stroke-linecap="round" stroke-linejoin="round"/>
<path d="M53.8908 68.2202V74.5874L47.9767 71.1733L51.008 69.6577L53.8908 68.2202Z" fill="#EEE8FF" stroke="#A479FF" stroke-width="1.5" stroke-linecap="round" stroke-linejoin="round"/>
</svg>
