<svg width="100" height="101" viewBox="0 0 100 101" fill="none" xmlns="http://www.w3.org/2000/svg">
<path d="M52.3907 36.9593C52.3907 36.9593 52.4063 36.9593 52.4063 36.975V36.9515L52.3907 36.9593Z" fill="#D9F1FF" stroke="#229EFF" stroke-width="1.5" stroke-linecap="round" stroke-linejoin="round"/>
<path d="M78.6408 88.8499C79.1095 88.6467 79.5705 88.4124 80.0158 88.1624L78.6408 88.8499Z" fill="#D9F1FF" stroke="#229EFF" stroke-width="1.5" stroke-linecap="round" stroke-linejoin="round"/>
<path d="M65.6252 81.9437C64.6017 84.3577 63.1252 86.264 61.1799 87.6546C60.7971 87.9515 60.3987 88.2093 59.9768 88.4437C55.094 91.2327 49.1251 90.5921 42.086 86.5296C38.6173 84.5218 35.344 81.8655 32.2659 78.553C29.1956 75.2408 26.5159 71.6158 24.2268 67.6705C21.9377 63.7252 20.1407 59.608 18.8282 55.3268C17.5157 51.0377 16.8518 46.9049 16.8518 42.9205L23.5705 39.5612L27.2736 41.7018L29.4689 42.9674L32.9767 41.2096C33.3049 43.2721 33.797 45.3737 34.4532 47.5143C34.6251 48.069 34.8049 48.6237 34.9924 49.1783L32.1642 56.1471L28.8361 64.319L33.8829 67.233L37.3127 65.5221L41.6096 63.3658L42.3439 63.7877C44.0158 66.2408 45.8674 68.5612 47.8909 70.7408C48.3362 71.2174 48.7815 71.6783 49.2346 72.1237L50.4377 76.7877L55.3284 79.6077L57.4377 78.553C57.5237 78.6077 57.6173 78.6624 57.711 78.7171C60.5157 80.3343 63.1564 81.4124 65.6252 81.9437Z" fill="#D9F1FF" stroke="#229EFF" stroke-width="1.5" stroke-linecap="round" stroke-linejoin="round"/>
<path d="M45.0935 30.5533V35.1549L32.9763 41.2096L29.4685 42.9674V35.7329L31.6639 34.6392L38.3747 31.2799L42.8045 29.0688C43.5858 29.5298 44.3435 30.0221 45.0935 30.5533Z" fill="#D9F1FF" stroke="#229EFF" stroke-width="1.5" stroke-linecap="round" stroke-linejoin="round"/>
<path d="M32.4768 6.16272V12.6705L26.172 15.8189L20.8204 18.4986C19.3751 19.1705 18.0471 20.0768 16.8518 21.2096V13.9752L26.172 9.31895L32.4768 6.16272Z" fill="#D9F1FF" stroke="#229EFF" stroke-width="1.5" stroke-linecap="round" stroke-linejoin="round"/>
<path d="M32.4766 6.1626L26.1719 9.31887L16.8516 13.9751L10.5469 10.3345L26.1719 2.52197L32.4766 6.1626Z" fill="#D9F1FF" stroke="#229EFF" stroke-width="1.5" stroke-linecap="round" stroke-linejoin="round"/>
<path d="M42.8045 29.0687L38.3747 31.2797L31.6639 34.639L29.4685 35.7328L26.2342 33.8656L23.9763 32.5609L20.3202 30.4515C22.2967 27.7015 24.9217 26.014 28.1873 25.3969C28.5623 25.3187 28.953 25.264 29.3514 25.2172C33.1639 24.7953 37.4059 25.9281 42.0856 28.6312C42.3278 28.7719 42.5702 28.9125 42.8045 29.0687Z" fill="#D9F1FF" stroke="#229EFF" stroke-width="1.5" stroke-linecap="round" stroke-linejoin="round"/>
<path d="M73.6172 75.6938C73.6172 77.8423 73.4687 79.8499 73.1562 81.7092C72.7499 84.1858 72.0781 86.4045 71.1328 88.3733C70.8359 88.9905 70.5234 89.5686 70.1952 90.1233C68.664 92.6858 66.7265 94.6389 64.3905 95.9749C61.5546 97.592 58.2187 98.2405 54.3827 97.928C50.5468 97.6077 46.4452 96.1936 42.0859 93.678C37.7187 91.1546 33.6249 87.842 29.7812 83.7249C25.9452 79.6077 22.6095 75.1079 19.7735 70.2095C16.9376 65.311 14.6874 60.186 13.0312 54.8267C11.3749 49.4673 10.5469 44.2876 10.5469 39.2798L16.8516 42.9204C16.8516 46.9048 17.5155 51.0376 18.828 55.3267C20.1405 59.6079 21.9375 63.7251 24.2266 67.6704C26.5156 71.6157 29.1953 75.2407 32.2656 78.553C35.3437 81.8655 38.6171 84.5217 42.0859 86.5295C49.1249 90.592 55.0937 91.2327 59.9766 88.4436C60.3984 88.2092 60.7969 87.9514 61.1798 87.6546C63.1251 86.2639 64.6016 84.3577 65.625 81.9436C66.6016 79.6389 67.1562 76.8657 67.2812 73.6313C67.3046 73.147 67.3124 72.6548 67.3124 72.147C67.3124 71.311 67.2891 70.4829 67.2266 69.647C66.8125 62.772 64.6328 55.7798 60.7031 48.6548C60.4687 48.2329 60.2266 47.8032 59.9766 47.3735C58.75 45.2563 57.4609 43.2798 56.0937 41.436C54.9141 39.8501 53.6876 38.3579 52.4063 36.9751V36.9517L52.3907 36.9595C51.211 35.6704 49.9842 34.4751 48.703 33.3735C47.5389 32.3579 46.3359 31.4126 45.0938 30.5532C44.3438 30.022 43.5859 29.5298 42.8047 29.0688C42.5703 28.9126 42.328 28.772 42.0859 28.6313C37.4062 25.9282 33.1641 24.7954 29.3516 25.2173C28.9532 25.2642 28.5626 25.3188 28.1876 25.397C24.922 26.0142 22.2969 27.7017 20.3203 30.4517L23.9765 32.561L26.2345 33.8657L29.4687 35.7329V42.9673L27.2734 41.7017L23.5702 39.561L17.2655 35.9204L10.5469 32.0454V10.3345L16.8516 13.9751V21.2095C18.047 20.0767 19.3749 19.1704 20.8202 18.4985C22.4452 17.7251 24.2266 17.2485 26.1719 17.0532C26.6797 16.9985 27.2031 16.9673 27.7344 16.9517C31.1875 16.8735 34.9141 17.7642 38.9062 19.647C39.9453 20.1235 41.0077 20.686 42.0859 21.3032C46.2734 23.7173 50.2187 26.8735 53.9141 30.7642C54.0703 30.9282 54.2265 31.0923 54.3827 31.2563C54.4609 31.3423 54.5468 31.4282 54.6249 31.522C55.5312 32.4985 56.4141 33.5063 57.2578 34.5298C59.2344 36.9126 61.0547 39.4126 62.7266 42.0376C63.2969 42.936 63.8515 43.8423 64.3905 44.772C67.2343 49.6626 69.4766 54.7876 71.1328 60.147C72.7891 65.5063 73.6172 70.6939 73.6172 75.6938Z" fill="#D9F1FF" stroke="#229EFF" stroke-width="1.5" stroke-linecap="round" stroke-linejoin="round"/>
<path d="M41.6096 63.3657L37.3127 65.522L33.8829 67.2329L35.5627 62.6704L36.4063 60.3657L41.6096 63.3657Z" fill="#D9F1FF" stroke="#229EFF" stroke-width="1.5" stroke-linecap="round" stroke-linejoin="round"/>
<path d="M54.508 76.6312L49.6409 59.0531L47.5782 51.6L47.1252 49.9515L44.6095 40.85L39.5626 37.9437L34.9924 49.1781L32.1642 56.1469L28.8361 64.3187L33.8829 67.2328L35.5627 62.6703L36.4063 60.3656L41.6096 63.3656L42.3439 63.7875L47.9143 67.0062L49.2346 72.1234L50.4377 76.7875L55.3284 79.6077L54.508 76.6312ZM45.9766 61.1859L38.1174 56.639L37.8283 56.475L37.9143 56.2328L41.922 45.2797L42.2424 45.4593L44.2501 53.264L44.8438 55.5687L45.1954 56.9281L46.2502 61.0453L46.344 61.3969L45.9766 61.1859Z" fill="#D9F1FF" stroke="#229EFF" stroke-width="1.5" stroke-linecap="round" stroke-linejoin="round"/>
<path d="M44.2499 53.2642L37.9921 56.3892L37.8281 56.4751L37.9141 56.233L41.9218 45.2798L42.2423 45.4595L44.2499 53.2642Z" fill="#D9F1FF" stroke="#229EFF" stroke-width="1.5" stroke-linecap="round" stroke-linejoin="round"/>
<path d="M46.3438 61.3972L45.9765 61.1863L38.1172 56.6394L37.8281 56.4753L37.9921 56.3894L44.2499 53.2644L44.8437 55.5691L45.1953 56.9285L46.25 61.0457L46.3438 61.3972Z" fill="#D9F1FF" stroke="#229EFF" stroke-width="1.5" stroke-linecap="round" stroke-linejoin="round"/>
<path d="M23.5702 39.561L16.8516 42.9204L10.5469 39.2798L17.2655 35.9204L23.5702 39.561Z" fill="#D9F1FF" stroke="#229EFF" stroke-width="1.5" stroke-linecap="round" stroke-linejoin="round"/>
<path d="M52.3905 36.9597L44.6091 40.8503L39.5622 37.9441L48.7028 33.3738C49.9841 34.4753 51.2108 35.6707 52.3905 36.9597Z" fill="#D9F1FF" stroke="#229EFF" stroke-width="1.5" stroke-linecap="round" stroke-linejoin="round"/>
<path d="M67.3123 72.147C67.3123 72.6549 67.3044 73.147 67.2809 73.6313L57.4373 78.553L55.328 79.6077L54.5077 76.6314L49.6405 59.0533L47.5779 51.6001L47.1249 49.9517L44.6091 40.8502L52.3905 36.9595C52.3905 36.9595 52.4061 36.9595 52.4061 36.9751C53.6873 38.3579 54.9139 39.8502 56.0936 41.4361C57.4608 43.2799 58.7498 45.2563 59.9764 47.3735C60.2264 47.8032 60.4685 48.233 60.7029 48.6549C64.6326 55.7799 66.8123 62.772 67.2264 69.647C67.2889 70.4829 67.3123 71.3111 67.3123 72.147Z" fill="#D9F1FF" stroke="#229EFF" stroke-width="1.5" stroke-linecap="round" stroke-linejoin="round"/>
<path d="M89.2422 67.8816C89.2422 72.8894 88.414 77.1159 86.7578 80.5616C85.1015 84.007 82.8593 86.5382 80.0155 88.1632L64.3905 95.9757C66.7265 94.6398 68.664 92.6866 70.1952 90.1241C70.5233 89.5695 70.8359 88.9913 71.1328 88.3741C72.0781 86.4054 72.7499 84.1866 73.1562 81.7101C73.4687 79.8507 73.6172 77.8425 73.6172 75.6941C73.6172 70.6941 72.789 65.5066 71.1328 60.1472C69.4765 54.7878 67.2343 49.6628 64.3905 44.7722C63.8515 43.8425 63.2969 42.9363 62.7265 42.0378C61.0547 39.4128 59.2344 36.9128 57.2578 34.53C56.414 33.5066 55.5312 32.4988 54.6249 31.5222C54.5468 31.4284 54.4608 31.3425 54.3827 31.2566C54.2265 31.0925 54.0703 30.9284 53.914 30.7644C50.2187 26.8738 46.2733 23.7175 42.0858 21.3034C41.0077 20.6863 39.9453 20.1238 38.9062 19.6472C34.914 17.7644 31.1875 16.8738 27.7344 16.9519C27.2031 16.9675 26.6797 16.9988 26.1719 17.0534C24.2265 17.2488 22.4452 17.7253 20.8202 18.4988L26.1719 15.8191L32.4766 12.6706L35.7344 11.0378C37.9609 9.8425 40.5 9.20969 43.3594 9.13938C47.7187 9.03781 52.5077 10.4909 57.7108 13.4909C62.0702 16.0066 66.1718 19.3269 70.0077 23.4441C73.8437 27.5534 77.1796 32.0613 80.0155 36.9597C82.8593 41.8503 85.1015 46.9753 86.7578 52.3347C88.414 57.6941 89.2422 62.8816 89.2422 67.8816Z" fill="#D9F1FF" stroke="#229EFF" stroke-width="1.5" stroke-linecap="round" stroke-linejoin="round"/>
</svg>
