<svg width="50" height="50" viewBox="0 0 50 50" fill="none" xmlns="http://www.w3.org/2000/svg">
<rect width="50" height="50" rx="25" fill="#662FFF"/>
<rect width="50" height="50" rx="25" fill="url(#paint0_linear_13_3079)" fill-opacity="0.2"/>
<rect x="0.75" y="0.75" width="48.5" height="48.5" rx="24.25" stroke="url(#paint1_linear_13_3079)" stroke-opacity="0.2" stroke-width="1.5"/>
<path d="M23.8333 13.3333L23.6583 13.3391C23.0713 13.3832 22.5227 13.6476 22.1224 14.0793C21.7222 14.5109 21.4998 15.0779 21.5 15.6666V18.9368L18.6673 17.3023C18.1314 16.9928 17.4946 16.909 16.8968 17.0692C16.2991 17.2293 15.7894 17.6203 15.48 18.1563L14.3133 20.1769L14.2282 20.3379C13.9751 20.868 13.9312 21.474 14.1053 22.035C14.2794 22.5959 14.6586 23.0706 15.1673 23.3643L17.9988 24.9999L15.1673 26.6356C14.6314 26.945 14.2404 27.4547 14.0802 28.0524C13.9201 28.6501 14.0039 29.287 14.3133 29.8229L15.48 31.8436L15.5768 31.9976C15.9093 32.4818 16.4122 32.8229 16.985 32.9527C17.5579 33.0824 18.1587 32.9913 18.6673 32.6976L21.5 31.0619V34.3333C21.5 34.9521 21.7458 35.5456 22.1834 35.9832C22.621 36.4208 23.2145 36.6666 23.8333 36.6666H26.1667L26.3417 36.6608C26.9287 36.6166 27.4773 36.3522 27.8776 35.9206C28.2779 35.4889 28.5002 34.9219 28.5 34.3333V31.0619L31.3327 32.6988C31.8686 33.0082 32.5055 33.092 33.1032 32.9319C33.7009 32.7717 34.2106 32.3807 34.52 31.8448L35.6867 29.8241L35.7718 29.6631C36.025 29.133 36.0688 28.527 35.8948 27.9661C35.7207 27.4051 35.3414 26.9304 34.8327 26.6368L32 24.9999L34.8327 23.3643C35.3686 23.0548 35.7596 22.5452 35.9198 21.9474C36.0799 21.3497 35.9961 20.7128 35.6867 20.1769L34.52 18.1563L34.4232 18.0023C34.0907 17.518 33.5879 17.1769 33.015 17.0472C32.4421 16.9174 31.8413 17.0085 31.3327 17.3023L28.5 18.9356V15.6666C28.5 15.0477 28.2542 14.4543 27.8166 14.0167C27.379 13.5791 26.7855 13.3333 26.1667 13.3333H23.8333Z" fill="white"/>
<defs>
<linearGradient id="paint0_linear_13_3079" x1="25" y1="0" x2="25" y2="50" gradientUnits="userSpaceOnUse">
<stop stop-color="white"/>
<stop offset="1" stop-color="white" stop-opacity="0"/>
</linearGradient>
<linearGradient id="paint1_linear_13_3079" x1="25" y1="0" x2="25" y2="50" gradientUnits="userSpaceOnUse">
<stop stop-color="white"/>
<stop offset="1" stop-color="white" stop-opacity="0"/>
</linearGradient>
</defs>
</svg>
