<svg width="21" height="33" viewBox="0 0 21 33" fill="none" xmlns="http://www.w3.org/2000/svg">
<path d="M5.53459 32.2337C5.9362 32.2337 6.26838 31.912 6.28527 31.5027C6.30216 31.082 5.97937 30.7279 5.56462 30.7127C4.87774 30.6861 4.14958 30.629 3.47397 30.41C3.01042 30.2597 2.37422 29.957 1.96885 29.384C1.60289 28.8682 1.44337 28.1372 1.51844 27.3263C1.55597 26.9303 1.6667 26.3935 1.98949 26.089C2.29352 25.8015 2.31041 25.3199 2.02703 25.0135C1.74364 24.7051 1.26884 24.6879 0.966688 24.9754C0.42995 25.4817 0.112787 26.226 0.0245819 27.1835C-0.0842671 28.3618 0.172842 29.4583 0.74899 30.273C1.25945 30.9944 2.04204 31.5427 3.01417 31.8587C3.86244 32.1366 4.75013 32.2051 5.50644 32.2356C5.51582 32.2356 5.52708 32.2356 5.53646 32.2356L5.53459 32.2337Z" fill="#363A44"/>
<g filter="url(#filter0_f_13_3144)">
<path d="M1.54924 25.3469C1.09132 25.7809 0.901775 26.4358 0.843597 27.0696C0.761022 27.9662 0.913035 28.9123 1.43101 29.6433C1.88329 30.281 2.57955 30.7093 3.31709 30.9491C4.05464 31.189 4.83347 31.2575 5.60855 31.2879" stroke="white" stroke-width="0.130978" stroke-linecap="round" stroke-linejoin="round"/>
</g>
<g filter="url(#filter1_f_13_3144)">
<path d="M1.54924 25.3469C1.09132 25.7809 0.901775 26.4358 0.843597 27.0696C0.761022 27.9662 0.913035 28.9123 1.43101 29.6433C1.88329 30.281 2.57955 30.7093 3.31709 30.9491C4.05464 31.189 4.83347 31.2575 5.60855 31.2879" stroke="white" stroke-opacity="0.6" stroke-width="0.130978" stroke-linecap="round" stroke-linejoin="round"/>
</g>
<path d="M1.47423 27.5485C1.47354 27.5573 1.4732 27.5642 1.4732 27.5691C1.4736 27.5622 1.47395 27.5554 1.47423 27.5485C1.48689 27.3849 1.61704 26.5605 1.88103 26.0326C2.15928 25.4761 1.31188 25.2027 0.86986 25.1157C0.791063 25.1833 0.615207 25.4487 0.615207 25.5071C0.723283 25.8642 1.50592 26.7675 1.47423 27.5485Z" fill="url(#paint0_linear_13_3144)"/>
<mask id="mask0_13_3144" style="mask-type:alpha" maskUnits="userSpaceOnUse" x="8" y="-1" width="8" height="13">
<path d="M15.4954 6.02478C15.4954 3.84242 14.1096 2.20043 13.1207 1.16501C12.8133 0.843599 12.5624 0.562811 12.3883 0.362301C12.3013 0.262034 12.2334 0.181822 12.1872 0.126617C12.18 0.118002 12.1733 0.109996 12.1672 0.102618C12.161 0.110022 12.1543 0.118059 12.147 0.126711C12.1007 0.181907 12.0326 0.26211 11.9453 0.362366C11.7708 0.562858 11.5194 0.843623 11.2121 1.16501C10.2232 2.20043 8.83732 3.84242 8.83732 6.02478C8.83732 7.79259 9.67621 9.23824 10.5198 10.2448C10.9412 10.7477 11.3628 11.1396 11.679 11.4058C11.837 11.5389 11.9685 11.6404 12.0604 11.7085C12.1064 11.7426 12.1424 11.7683 12.1668 11.7854L12.1673 11.7858L12.1678 11.7854C12.1922 11.7683 12.2282 11.7426 12.2741 11.7085C12.3659 11.6404 12.4974 11.5389 12.6554 11.4058C12.9713 11.1397 13.3927 10.7477 13.8139 10.2448C14.657 9.23826 15.4954 7.7926 15.4954 6.02478Z" fill="#4B4D53"/>
<path d="M15.4954 6.02478C15.4954 3.84242 14.1096 2.20043 13.1207 1.16501C12.8133 0.843599 12.5624 0.562811 12.3883 0.362301C12.3013 0.262034 12.2334 0.181822 12.1872 0.126617C12.18 0.118002 12.1733 0.109996 12.1672 0.102618C12.161 0.110022 12.1543 0.118059 12.147 0.126711C12.1007 0.181907 12.0326 0.26211 11.9453 0.362366C11.7708 0.562858 11.5194 0.843623 11.2121 1.16501C10.2232 2.20043 8.83732 3.84242 8.83732 6.02478C8.83732 7.79259 9.67621 9.23824 10.5198 10.2448C10.9412 10.7477 11.3628 11.1396 11.679 11.4058C11.837 11.5389 11.9685 11.6404 12.0604 11.7085C12.1064 11.7426 12.1424 11.7683 12.1668 11.7854L12.1673 11.7858L12.1678 11.7854C12.1922 11.7683 12.2282 11.7426 12.2741 11.7085C12.3659 11.6404 12.4974 11.5389 12.6554 11.4058C12.9713 11.1397 13.3927 10.7477 13.8139 10.2448C14.657 9.23826 15.4954 7.7926 15.4954 6.02478Z" fill="url(#paint1_angular_13_3144)"/>
<path d="M15.4954 6.02478C15.4954 3.84242 14.1096 2.20043 13.1207 1.16501C12.8133 0.843599 12.5624 0.562811 12.3883 0.362301C12.3013 0.262034 12.2334 0.181822 12.1872 0.126617C12.18 0.118002 12.1733 0.109996 12.1672 0.102618C12.161 0.110022 12.1543 0.118059 12.147 0.126711C12.1007 0.181907 12.0326 0.26211 11.9453 0.362366C11.7708 0.562858 11.5194 0.843623 11.2121 1.16501C10.2232 2.20043 8.83732 3.84242 8.83732 6.02478C8.83732 7.79259 9.67621 9.23824 10.5198 10.2448C10.9412 10.7477 11.3628 11.1396 11.679 11.4058C11.837 11.5389 11.9685 11.6404 12.0604 11.7085C12.1064 11.7426 12.1424 11.7683 12.1668 11.7854L12.1673 11.7858L12.1678 11.7854C12.1922 11.7683 12.2282 11.7426 12.2741 11.7085C12.3659 11.6404 12.4974 11.5389 12.6554 11.4058C12.9713 11.1397 13.3927 10.7477 13.8139 10.2448C14.657 9.23826 15.4954 7.7926 15.4954 6.02478Z" stroke="#32353E" stroke-width="0.130978"/>
</mask>
<g mask="url(#mask0_13_3144)">
<path d="M15.4958 6.02454C15.4958 3.84217 14.11 2.20019 13.1211 1.16477C12.8137 0.843355 12.5628 0.562567 12.3887 0.362056C12.3016 0.26179 12.2338 0.181578 12.1876 0.126373C12.1804 0.117758 12.1737 0.109752 12.1676 0.102374C12.1614 0.109778 12.1547 0.117815 12.1474 0.126467C12.1011 0.181662 12.033 0.261866 11.9457 0.362122C11.7712 0.562613 11.5198 0.843379 11.2124 1.16477C10.2236 2.20019 8.83771 3.84217 8.83771 6.02454C8.83771 7.79235 9.67659 9.238 10.5202 10.2445C10.9416 10.7474 11.3632 11.1394 11.6793 11.4056C11.8374 11.5386 11.9689 11.6401 12.0608 11.7083C12.1067 11.7423 12.1428 11.768 12.1672 11.7852L12.1677 11.7855L12.1682 11.7852C12.1926 11.7681 12.2286 11.7423 12.2745 11.7083C12.3663 11.6401 12.4978 11.5386 12.6558 11.4056C12.9717 11.1394 13.3931 10.7474 13.8143 10.2445C14.6574 9.23801 15.4958 7.79236 15.4958 6.02454Z" fill="#4B4D53"/>
<path d="M15.4958 6.02454C15.4958 3.84217 14.11 2.20019 13.1211 1.16477C12.8137 0.843355 12.5628 0.562567 12.3887 0.362056C12.3016 0.26179 12.2338 0.181578 12.1876 0.126373C12.1804 0.117758 12.1737 0.109752 12.1676 0.102374C12.1614 0.109778 12.1547 0.117815 12.1474 0.126467C12.1011 0.181662 12.033 0.261866 11.9457 0.362122C11.7712 0.562613 11.5198 0.843379 11.2124 1.16477C10.2236 2.20019 8.83771 3.84217 8.83771 6.02454C8.83771 7.79235 9.67659 9.238 10.5202 10.2445C10.9416 10.7474 11.3632 11.1394 11.6793 11.4056C11.8374 11.5386 11.9689 11.6401 12.0608 11.7083C12.1067 11.7423 12.1428 11.768 12.1672 11.7852L12.1677 11.7855L12.1682 11.7852C12.1926 11.7681 12.2286 11.7423 12.2745 11.7083C12.3663 11.6401 12.4978 11.5386 12.6558 11.4056C12.9717 11.1394 13.3931 10.7474 13.8143 10.2445C14.6574 9.23801 15.4958 7.79236 15.4958 6.02454Z" fill="url(#paint2_angular_13_3144)"/>
<path d="M15.4958 6.02454C15.4958 3.84217 14.11 2.20019 13.1211 1.16477C12.8137 0.843355 12.5628 0.562567 12.3887 0.362056C12.3016 0.26179 12.2338 0.181578 12.1876 0.126373C12.1804 0.117758 12.1737 0.109752 12.1676 0.102374C12.1614 0.109778 12.1547 0.117815 12.1474 0.126467C12.1011 0.181662 12.033 0.261866 11.9457 0.362122C11.7712 0.562613 11.5198 0.843379 11.2124 1.16477C10.2236 2.20019 8.83771 3.84217 8.83771 6.02454C8.83771 7.79235 9.67659 9.238 10.5202 10.2445C10.9416 10.7474 11.3632 11.1394 11.6793 11.4056C11.8374 11.5386 11.9689 11.6401 12.0608 11.7083C12.1067 11.7423 12.1428 11.768 12.1672 11.7852L12.1677 11.7855L12.1682 11.7852C12.1926 11.7681 12.2286 11.7423 12.2745 11.7083C12.3663 11.6401 12.4978 11.5386 12.6558 11.4056C12.9717 11.1394 13.3931 10.7474 13.8143 10.2445C14.6574 9.23801 15.4958 7.79236 15.4958 6.02454Z" stroke="#32353E" stroke-width="0.130978"/>
<g filter="url(#filter2_f_13_3144)">
<path d="M8.96981 5.02734C8.1855 8.90446 12.0677 11.6452 12.1667 11.7122C12.133 11.6704 12.1667 10.5323 12.1667 10.5323C10.9676 9.37801 10.2277 8.78608 10.1102 6.41941L8.96981 5.02734Z" fill="url(#paint3_linear_13_3144)"/>
</g>
<g filter="url(#filter3_f_13_3144)">
<path d="M15.3635 5.02734C16.1478 8.90446 12.2656 11.6452 12.1667 11.7122C12.2003 11.6704 12.1667 10.5323 12.1667 10.5323C13.3658 9.37801 14.1057 8.78608 14.2231 6.41941L15.3635 5.02734Z" fill="url(#paint4_linear_13_3144)"/>
</g>
<g filter="url(#filter4_f_13_3144)">
<path d="M12.2156 11.7671L12.2156 7.00413C12.3477 9.64663 13.9276 9.71807 14.7289 8.88617C14.6115 9.41466 13.023 11.0025 12.2156 11.7671Z" fill="black" fill-opacity="0.6"/>
</g>
<g filter="url(#filter5_f_13_3144)">
<path d="M12.1568 0.186767C9.99958 2.33253 8.97987 4.19754 8.89841 5.80935C8.92749 6.37081 8.89841 7.3699 9.48362 8.47147C9.42366 7.11882 10.1352 5.17641 12.1568 3.76867L12.1568 1.36866L12.1568 0.186767Z" fill="url(#paint5_linear_13_3144)" fill-opacity="0.6"/>
</g>
<g filter="url(#filter6_f_13_3144)">
<path d="M12.1662 0.186767C14.3235 2.33253 15.3432 4.19754 15.4246 5.80935C15.3956 6.37081 15.4246 7.3699 14.8394 8.47147C14.8994 7.11882 14.1879 5.20899 12.1662 3.80125L12.1662 1.36866L12.1662 0.186767Z" fill="url(#paint6_linear_13_3144)" fill-opacity="0.6"/>
</g>
<g filter="url(#filter7_f_13_3144)">
<line y1="-0.0654892" x2="11.6778" y2="-0.0654892" transform="matrix(-1.31134e-07 -1 -1 1.31134e-07 12.2362 11.8647)" stroke="#32353E" stroke-opacity="0.2" stroke-width="0.130978"/>
</g>
<g filter="url(#filter8_f_13_3144)">
<path d="M12.092 11.8647L12.092 0.186949" stroke="white" stroke-opacity="0.16" stroke-width="0.130978" stroke-linecap="round"/>
</g>
</g>
<mask id="mask1_13_3144" style="mask-type:alpha" maskUnits="userSpaceOnUse" x="10" y="7" width="9" height="11">
<path d="M17.5084 14.5118C18.5996 12.6218 18.2204 10.5068 17.8817 9.11571C17.7762 8.68366 17.6993 8.31505 17.6488 8.05435C17.6235 7.92398 17.6048 7.82058 17.5925 7.74969C17.5905 7.73863 17.5888 7.72836 17.5871 7.7189C17.5781 7.72222 17.5682 7.72582 17.5576 7.72968C17.4899 7.75432 17.3908 7.78972 17.2651 7.8329C17.0137 7.91926 16.6556 8.03674 16.2288 8.16138C14.8547 8.56365 12.8335 9.29272 11.7423 11.1827C10.8584 12.7137 10.8621 14.3851 11.0893 15.6785C11.2029 16.3248 11.372 16.875 11.5127 17.2636C11.583 17.4579 11.6462 17.6116 11.6917 17.7165C11.7145 17.769 11.7328 17.8092 11.7454 17.8363L11.7456 17.8369L11.7463 17.8368C11.776 17.8342 11.82 17.8299 11.8768 17.8234C11.9904 17.8103 12.155 17.7881 12.3583 17.7518C12.765 17.6793 13.3259 17.5505 13.9422 17.3256C15.1756 16.8755 16.6245 16.0427 17.5084 14.5118Z" fill="#4B4D53"/>
<path d="M17.5084 14.5118C18.5996 12.6218 18.2204 10.5068 17.8817 9.11571C17.7762 8.68366 17.6993 8.31505 17.6488 8.05435C17.6235 7.92398 17.6048 7.82058 17.5925 7.74969C17.5905 7.73863 17.5888 7.72836 17.5871 7.7189C17.5781 7.72222 17.5682 7.72582 17.5576 7.72968C17.4899 7.75432 17.3908 7.78972 17.2651 7.8329C17.0137 7.91926 16.6556 8.03674 16.2288 8.16138C14.8547 8.56365 12.8335 9.29272 11.7423 11.1827C10.8584 12.7137 10.8621 14.3851 11.0893 15.6785C11.2029 16.3248 11.372 16.875 11.5127 17.2636C11.583 17.4579 11.6462 17.6116 11.6917 17.7165C11.7145 17.769 11.7328 17.8092 11.7454 17.8363L11.7456 17.8369L11.7463 17.8368C11.776 17.8342 11.82 17.8299 11.8768 17.8234C11.9904 17.8103 12.155 17.7881 12.3583 17.7518C12.765 17.6793 13.3259 17.5505 13.9422 17.3256C15.1756 16.8755 16.6245 16.0427 17.5084 14.5118Z" fill="url(#paint7_angular_13_3144)"/>
<path d="M17.5084 14.5118C18.5996 12.6218 18.2204 10.5068 17.8817 9.11571C17.7762 8.68366 17.6993 8.31505 17.6488 8.05435C17.6235 7.92398 17.6048 7.82058 17.5925 7.74969C17.5905 7.73863 17.5888 7.72836 17.5871 7.7189C17.5781 7.72222 17.5682 7.72582 17.5576 7.72968C17.4899 7.75432 17.3908 7.78972 17.2651 7.8329C17.0137 7.91926 16.6556 8.03674 16.2288 8.16138C14.8547 8.56365 12.8335 9.29272 11.7423 11.1827C10.8584 12.7137 10.8621 14.3851 11.0893 15.6785C11.2029 16.3248 11.372 16.875 11.5127 17.2636C11.583 17.4579 11.6462 17.6116 11.6917 17.7165C11.7145 17.769 11.7328 17.8092 11.7454 17.8363L11.7456 17.8369L11.7463 17.8368C11.776 17.8342 11.82 17.8299 11.8768 17.8234C11.9904 17.8103 12.155 17.7881 12.3583 17.7518C12.765 17.6793 13.3259 17.5505 13.9422 17.3256C15.1756 16.8755 16.6245 16.0427 17.5084 14.5118Z" stroke="#32353E" stroke-width="0.130978"/>
</mask>
<g mask="url(#mask1_13_3144)">
<path d="M17.5091 14.5115C18.6003 12.6215 18.2211 10.5066 17.8824 9.11546C17.7769 8.68342 17.7 8.3148 17.6495 8.0541C17.6243 7.92374 17.6056 7.82033 17.5932 7.74944C17.5913 7.73838 17.5895 7.72811 17.5879 7.71865C17.5788 7.72198 17.569 7.72557 17.5584 7.72943C17.4906 7.75407 17.3916 7.78948 17.2658 7.83266C17.0144 7.91901 16.6564 8.03649 16.2295 8.16114C14.8554 8.56341 12.8342 9.29247 11.743 11.1825C10.8591 12.7134 10.8628 14.3848 11.0901 15.6783C11.2036 16.3246 11.3727 16.8748 11.5134 17.2634C11.5838 17.4576 11.6469 17.6113 11.6925 17.7163C11.7152 17.7687 11.7335 17.809 11.7461 17.836L11.7464 17.8366L11.747 17.8366C11.7767 17.8339 11.8207 17.8297 11.8775 17.8231C11.9911 17.81 12.1557 17.7878 12.359 17.7516C12.7658 17.6791 13.3266 17.5503 13.9429 17.3254C15.1763 16.8753 16.6252 16.0425 17.5091 14.5115Z" fill="#4B4D53"/>
<path d="M17.5091 14.5115C18.6003 12.6215 18.2211 10.5066 17.8824 9.11546C17.7769 8.68342 17.7 8.3148 17.6495 8.0541C17.6243 7.92374 17.6056 7.82033 17.5932 7.74944C17.5913 7.73838 17.5895 7.72811 17.5879 7.71865C17.5788 7.72198 17.569 7.72557 17.5584 7.72943C17.4906 7.75407 17.3916 7.78948 17.2658 7.83266C17.0144 7.91901 16.6564 8.03649 16.2295 8.16114C14.8554 8.56341 12.8342 9.29247 11.743 11.1825C10.8591 12.7134 10.8628 14.3848 11.0901 15.6783C11.2036 16.3246 11.3727 16.8748 11.5134 17.2634C11.5838 17.4576 11.6469 17.6113 11.6925 17.7163C11.7152 17.7687 11.7335 17.809 11.7461 17.836L11.7464 17.8366L11.747 17.8366C11.7767 17.8339 11.8207 17.8297 11.8775 17.8231C11.9911 17.81 12.1557 17.7878 12.359 17.7516C12.7658 17.6791 13.3266 17.5503 13.9429 17.3254C15.1763 16.8753 16.6252 16.0425 17.5091 14.5115Z" fill="url(#paint8_angular_13_3144)"/>
<path d="M17.5091 14.5115C18.6003 12.6215 18.2211 10.5066 17.8824 9.11546C17.7769 8.68342 17.7 8.3148 17.6495 8.0541C17.6243 7.92374 17.6056 7.82033 17.5932 7.74944C17.5913 7.73838 17.5895 7.72811 17.5879 7.71865C17.5788 7.72198 17.569 7.72557 17.5584 7.72943C17.4906 7.75407 17.3916 7.78948 17.2658 7.83266C17.0144 7.91901 16.6564 8.03649 16.2295 8.16114C14.8554 8.56341 12.8342 9.29247 11.743 11.1825C10.8591 12.7134 10.8628 14.3848 11.0901 15.6783C11.2036 16.3246 11.3727 16.8748 11.5134 17.2634C11.5838 17.4576 11.6469 17.6113 11.6925 17.7163C11.7152 17.7687 11.7335 17.809 11.7461 17.836L11.7464 17.8366L11.747 17.8366C11.7767 17.8339 11.8207 17.8297 11.8775 17.8231C11.9911 17.81 12.1557 17.7878 12.359 17.7516C12.7658 17.6791 13.3266 17.5503 13.9429 17.3254C15.1763 16.8753 16.6252 16.0425 17.5091 14.5115Z" stroke="#32353E" stroke-width="0.130978"/>
<g filter="url(#filter9_f_13_3144)">
<path d="M11.7817 17.7719C11.9009 17.7633 15.7436 17.4586 17.4559 14.4928C18.5304 12.6316 18.1635 10.5576 17.8399 9.20748C17.6556 8.43993 17.5633 7.88026 17.5478 7.79184C17.5526 8.02473 17.6079 11.7935 16.209 14.2164C14.8101 16.6393 11.8727 17.7366 11.7817 17.7719Z" fill="black" fill-opacity="0.7"/>
</g>
<g filter="url(#filter10_f_13_3144)">
<path d="M11.7997 17.8448L14.1812 13.72C12.9743 16.0745 14.3068 16.9263 15.4167 16.6065C15.0508 17.0055 12.8812 17.5864 11.7997 17.8448Z" fill="black" fill-opacity="0.6"/>
</g>
<g filter="url(#filter11_f_13_3144)">
<path d="M11.708 17.9052L13.9718 13.9331C12.5362 16.1555 11.7995 12.88 11.5214 11.7588C10.3726 14.6308 11.391 16.8393 11.708 17.9052Z" fill="black" fill-opacity="0.6"/>
</g>
<g filter="url(#filter12_f_13_3144)">
<path d="M17.5361 7.78716C14.595 8.56683 12.7794 9.67212 11.903 11.0273C11.6474 11.528 11.1227 12.3787 11.0787 13.6253C11.7031 12.4239 14.1119 9.67489 16.5665 9.46657L16.9452 8.81071L17.5361 7.78716Z" fill="url(#paint9_linear_13_3144)"/>
</g>
<g filter="url(#filter13_f_13_3144)">
<line y1="-0.0654892" x2="11.6778" y2="-0.0654892" transform="matrix(0.5 -0.866025 -0.866025 -0.5 11.7705 17.9412)" stroke="#32353E" stroke-opacity="0.5" stroke-width="0.130978"/>
</g>
<g filter="url(#filter14_f_13_3144)">
<path d="M11.6418 17.8679L17.4807 7.75465" stroke="white" stroke-opacity="0.2" stroke-width="0.130978" stroke-linecap="round"/>
</g>
</g>
<mask id="mask2_13_3144" style="mask-type:alpha" maskUnits="userSpaceOnUse" x="7" y="16" width="11" height="8">
<path d="M14.2756 22.9537C16.1656 21.8626 16.8946 19.8414 17.2969 18.4673C17.4216 18.0404 17.5393 17.6827 17.6259 17.4317C17.6692 17.3061 17.7047 17.2072 17.7294 17.1397C17.7333 17.1291 17.7369 17.1193 17.7402 17.1103C17.7307 17.1087 17.7204 17.1069 17.7093 17.1049C17.6383 17.0924 17.5348 17.0735 17.4043 17.048C17.1434 16.9971 16.7746 16.9198 16.3426 16.8143C14.9514 16.4757 12.8365 16.0965 10.9465 17.1876C9.41556 18.0715 8.58303 19.5209 8.13313 20.7547C7.90834 21.3711 7.77967 21.9322 7.70724 22.3391C7.67103 22.5425 7.64889 22.7072 7.63583 22.8208C7.62929 22.8776 7.62503 22.9216 7.6224 22.9514L7.62235 22.952L7.6229 22.9522C7.64994 22.9648 7.6902 22.9831 7.74266 23.0059C7.84758 23.0513 8.00125 23.1144 8.19544 23.1847C8.58393 23.3252 9.13405 23.4941 9.78019 23.6075C11.0734 23.8344 12.7446 23.8377 14.2756 22.9537Z" fill="#4B4D53"/>
<path d="M14.2756 22.9537C16.1656 21.8626 16.8946 19.8414 17.2969 18.4673C17.4216 18.0404 17.5393 17.6827 17.6259 17.4317C17.6692 17.3061 17.7047 17.2072 17.7294 17.1397C17.7333 17.1291 17.7369 17.1193 17.7402 17.1103C17.7307 17.1087 17.7204 17.1069 17.7093 17.1049C17.6383 17.0924 17.5348 17.0735 17.4043 17.048C17.1434 16.9971 16.7746 16.9198 16.3426 16.8143C14.9514 16.4757 12.8365 16.0965 10.9465 17.1876C9.41556 18.0715 8.58303 19.5209 8.13313 20.7547C7.90834 21.3711 7.77967 21.9322 7.70724 22.3391C7.67103 22.5425 7.64889 22.7072 7.63583 22.8208C7.62929 22.8776 7.62503 22.9216 7.6224 22.9514L7.62235 22.952L7.6229 22.9522C7.64994 22.9648 7.6902 22.9831 7.74266 23.0059C7.84758 23.0513 8.00125 23.1144 8.19544 23.1847C8.58393 23.3252 9.13405 23.4941 9.78019 23.6075C11.0734 23.8344 12.7446 23.8377 14.2756 22.9537Z" fill="url(#paint10_angular_13_3144)"/>
<path d="M14.2756 22.9537C16.1656 21.8626 16.8946 19.8414 17.2969 18.4673C17.4216 18.0404 17.5393 17.6827 17.6259 17.4317C17.6692 17.3061 17.7047 17.2072 17.7294 17.1397C17.7333 17.1291 17.7369 17.1193 17.7402 17.1103C17.7307 17.1087 17.7204 17.1069 17.7093 17.1049C17.6383 17.0924 17.5348 17.0735 17.4043 17.048C17.1434 16.9971 16.7746 16.9198 16.3426 16.8143C14.9514 16.4757 12.8365 16.0965 10.9465 17.1876C9.41556 18.0715 8.58303 19.5209 8.13313 20.7547C7.90834 21.3711 7.77967 21.9322 7.70724 22.3391C7.67103 22.5425 7.64889 22.7072 7.63583 22.8208C7.62929 22.8776 7.62503 22.9216 7.6224 22.9514L7.62235 22.952L7.6229 22.9522C7.64994 22.9648 7.6902 22.9831 7.74266 23.0059C7.84758 23.0513 8.00125 23.1144 8.19544 23.1847C8.58393 23.3252 9.13405 23.4941 9.78019 23.6075C11.0734 23.8344 12.7446 23.8377 14.2756 22.9537Z" stroke="#32353E" stroke-width="0.130978"/>
</mask>
<g mask="url(#mask2_13_3144)">
<path d="M14.2753 22.9535C16.1653 21.8623 16.8943 19.8411 17.2966 18.467C17.4213 18.0401 17.539 17.6824 17.6256 17.4314C17.6689 17.3059 17.7044 17.207 17.7291 17.1394C17.733 17.1289 17.7366 17.1191 17.7399 17.1101C17.7304 17.1084 17.7201 17.1066 17.709 17.1047C17.638 17.0921 17.5345 17.0733 17.404 17.0478C17.1431 16.9969 16.7743 16.9196 16.3423 16.8141C14.9512 16.4754 12.8362 16.0962 10.9462 17.1874C9.41527 18.0713 8.58274 19.5206 8.13284 20.7544C7.90805 21.3709 7.77938 21.932 7.70695 22.3388C7.67074 22.5422 7.6486 22.7069 7.63554 22.8205C7.629 22.8774 7.62474 22.9214 7.62211 22.9511L7.62206 22.9517L7.62261 22.952C7.64965 22.9646 7.68991 22.9829 7.74237 23.0056C7.84729 23.0511 8.00096 23.1142 8.19515 23.1844C8.58364 23.325 9.13376 23.4939 9.7799 23.6073C11.0731 23.8341 12.7443 23.8374 14.2753 22.9535Z" fill="#4B4D53"/>
<path d="M14.2753 22.9535C16.1653 21.8623 16.8943 19.8411 17.2966 18.467C17.4213 18.0401 17.539 17.6824 17.6256 17.4314C17.6689 17.3059 17.7044 17.207 17.7291 17.1394C17.733 17.1289 17.7366 17.1191 17.7399 17.1101C17.7304 17.1084 17.7201 17.1066 17.709 17.1047C17.638 17.0921 17.5345 17.0733 17.404 17.0478C17.1431 16.9969 16.7743 16.9196 16.3423 16.8141C14.9512 16.4754 12.8362 16.0962 10.9462 17.1874C9.41527 18.0713 8.58274 19.5206 8.13284 20.7544C7.90805 21.3709 7.77938 21.932 7.70695 22.3388C7.67074 22.5422 7.6486 22.7069 7.63554 22.8205C7.629 22.8774 7.62474 22.9214 7.62211 22.9511L7.62206 22.9517L7.62261 22.952C7.64965 22.9646 7.68991 22.9829 7.74237 23.0056C7.84729 23.0511 8.00096 23.1142 8.19515 23.1844C8.58364 23.325 9.13376 23.4939 9.7799 23.6073C11.0731 23.8341 12.7443 23.8374 14.2753 22.9535Z" fill="url(#paint11_angular_13_3144)"/>
<path d="M14.2753 22.9535C16.1653 21.8623 16.8943 19.8411 17.2966 18.467C17.4213 18.0401 17.539 17.6824 17.6256 17.4314C17.6689 17.3059 17.7044 17.207 17.7291 17.1394C17.733 17.1289 17.7366 17.1191 17.7399 17.1101C17.7304 17.1084 17.7201 17.1066 17.709 17.1047C17.638 17.0921 17.5345 17.0733 17.404 17.0478C17.1431 16.9969 16.7743 16.9196 16.3423 16.8141C14.9512 16.4754 12.8362 16.0962 10.9462 17.1874C9.41527 18.0713 8.58274 19.5206 8.13284 20.7544C7.90805 21.3709 7.77938 21.932 7.70695 22.3388C7.67074 22.5422 7.6486 22.7069 7.63554 22.8205C7.629 22.8774 7.62474 22.9214 7.62211 22.9511L7.62206 22.9517L7.62261 22.952C7.64965 22.9646 7.68991 22.9829 7.74237 23.0056C7.84729 23.0511 8.00096 23.1142 8.19515 23.1844C8.58364 23.325 9.13376 23.4939 9.7799 23.6073C11.0731 23.8341 12.7443 23.8374 14.2753 22.9535Z" stroke="#32353E" stroke-width="0.130978"/>
<g filter="url(#filter15_f_13_3144)">
<path d="M7.68698 22.9139C7.79451 22.9661 11.2748 24.6235 14.2406 22.9112C16.1017 21.8367 16.821 19.8571 17.2158 18.526C17.44 17.7692 17.6398 17.2383 17.6707 17.154C17.5583 17.358 15.7218 20.6496 13.2989 22.0484C10.876 23.4473 7.78347 22.9289 7.68698 22.9139Z" fill="black" fill-opacity="0.8"/>
</g>
<g filter="url(#filter16_f_13_3144)">
<path d="M7.66167 22.9852L11.7865 20.6037C9.5641 22.0394 10.2922 23.4433 11.4133 23.7214C10.8969 23.8839 8.72755 23.3022 7.66167 22.9852Z" fill="black" fill-opacity="0.6"/>
</g>
<g filter="url(#filter17_f_13_3144)">
<path d="M7.55344 22.9907L11.3214 20.5619C8.96685 21.7687 8.47198 20.4836 8.79176 19.3737C8.39279 19.7396 7.81188 21.9092 7.55344 22.9907Z" fill="black" fill-opacity="0.4"/>
</g>
<g filter="url(#filter18_f_13_3144)">
<path d="M17.6627 17.1434C14.7258 16.3481 12.6008 16.3975 11.1641 17.1328C10.6925 17.4387 9.81267 17.9131 9.15129 18.9707C10.2927 18.2424 13.7533 17.0661 15.9832 18.113L16.6391 17.7343L17.6627 17.1434Z" fill="url(#paint12_linear_13_3144)"/>
</g>
<g filter="url(#filter19_f_13_3144)">
<line y1="-0.0654892" x2="11.6778" y2="-0.0654892" transform="matrix(0.866025 -0.5 -0.5 -0.866025 7.58852 23.053)" stroke="#32353E" stroke-opacity="0.5" stroke-width="0.130978"/>
</g>
<g filter="url(#filter20_f_13_3144)">
<path d="M7.51382 22.927L17.6271 17.0881" stroke="white" stroke-opacity="0.2" stroke-width="0.130978" stroke-linecap="round"/>
</g>
</g>
<mask id="mask3_13_3144" style="mask-type:alpha" maskUnits="userSpaceOnUse" x="0" y="21" width="13" height="8">
<path d="M6.66635 28.4346C8.84871 28.4346 10.4907 27.0487 11.5261 26.0598C11.8475 25.7524 12.1283 25.5015 12.3288 25.3274C12.4291 25.2404 12.5093 25.1725 12.5645 25.1263C12.5731 25.1191 12.5811 25.1125 12.5885 25.1063C12.5811 25.1001 12.5731 25.0934 12.5644 25.0861C12.5092 25.0398 12.429 24.9717 12.3288 24.8844C12.1283 24.7099 11.8475 24.4585 11.5261 24.1512C10.4907 23.1623 8.84871 21.7764 6.66635 21.7764C4.89854 21.7764 3.45289 22.6153 2.44635 23.4589C1.94346 23.8803 1.55149 24.3019 1.28533 24.6181C1.15228 24.7761 1.05076 24.9077 0.982623 24.9995C0.948558 25.0455 0.922844 25.0815 0.905714 25.1059L0.905356 25.1064L0.905704 25.1069C0.922834 25.1313 0.948547 25.1673 0.982613 25.2132C1.05075 25.305 1.15227 25.4365 1.28531 25.5945C1.55148 25.9104 1.94344 26.3318 2.44634 26.753C3.45287 27.5961 4.89853 28.4346 6.66635 28.4346Z" fill="#4B4D53"/>
<path d="M6.66635 28.4346C8.84871 28.4346 10.4907 27.0487 11.5261 26.0598C11.8475 25.7524 12.1283 25.5015 12.3288 25.3274C12.4291 25.2404 12.5093 25.1725 12.5645 25.1263C12.5731 25.1191 12.5811 25.1125 12.5885 25.1063C12.5811 25.1001 12.5731 25.0934 12.5644 25.0861C12.5092 25.0398 12.429 24.9717 12.3288 24.8844C12.1283 24.7099 11.8475 24.4585 11.5261 24.1512C10.4907 23.1623 8.84871 21.7764 6.66635 21.7764C4.89854 21.7764 3.45289 22.6153 2.44635 23.4589C1.94346 23.8803 1.55149 24.3019 1.28533 24.6181C1.15228 24.7761 1.05076 24.9077 0.982623 24.9995C0.948558 25.0455 0.922844 25.0815 0.905714 25.1059L0.905356 25.1064L0.905704 25.1069C0.922834 25.1313 0.948547 25.1673 0.982613 25.2132C1.05075 25.305 1.15227 25.4365 1.28531 25.5945C1.55148 25.9104 1.94344 26.3318 2.44634 26.753C3.45287 27.5961 4.89853 28.4346 6.66635 28.4346Z" fill="url(#paint13_angular_13_3144)"/>
<path d="M6.66635 28.4346C8.84871 28.4346 10.4907 27.0487 11.5261 26.0598C11.8475 25.7524 12.1283 25.5015 12.3288 25.3274C12.4291 25.2404 12.5093 25.1725 12.5645 25.1263C12.5731 25.1191 12.5811 25.1125 12.5885 25.1063C12.5811 25.1001 12.5731 25.0934 12.5644 25.0861C12.5092 25.0398 12.429 24.9717 12.3288 24.8844C12.1283 24.7099 11.8475 24.4585 11.5261 24.1512C10.4907 23.1623 8.84871 21.7764 6.66635 21.7764C4.89854 21.7764 3.45289 22.6153 2.44635 23.4589C1.94346 23.8803 1.55149 24.3019 1.28533 24.6181C1.15228 24.7761 1.05076 24.9077 0.982623 24.9995C0.948558 25.0455 0.922844 25.0815 0.905714 25.1059L0.905356 25.1064L0.905704 25.1069C0.922834 25.1313 0.948547 25.1673 0.982613 25.2132C1.05075 25.305 1.15227 25.4365 1.28531 25.5945C1.55148 25.9104 1.94344 26.3318 2.44634 26.753C3.45287 27.5961 4.89853 28.4346 6.66635 28.4346Z" stroke="#32353E" stroke-width="0.130978"/>
</mask>
<g mask="url(#mask3_13_3144)">
<path d="M6.66665 28.4346C8.84902 28.4346 10.491 27.0487 11.5264 26.0598C11.8478 25.7524 12.1286 25.5015 12.3291 25.3274C12.4294 25.2404 12.5096 25.1725 12.5648 25.1263C12.5734 25.1191 12.5814 25.1125 12.5888 25.1063C12.5814 25.1001 12.5734 25.0934 12.5647 25.0861C12.5095 25.0398 12.4293 24.9717 12.3291 24.8844C12.1286 24.7099 11.8478 24.4585 11.5264 24.1512C10.491 23.1623 8.84902 21.7764 6.66665 21.7764C4.89885 21.7764 3.45319 22.6153 2.44666 23.4589C1.94376 23.8803 1.5518 24.3019 1.28563 24.6181C1.15258 24.7761 1.05106 24.9077 0.982928 24.9995C0.948863 25.0455 0.923149 25.0815 0.906019 25.1059L0.905662 25.1064L0.90601 25.1069C0.92314 25.1313 0.948853 25.1673 0.982918 25.2132C1.05105 25.305 1.15257 25.4365 1.28562 25.5945C1.55178 25.9104 1.94375 26.3318 2.44665 26.753C3.45318 27.5961 4.89884 28.4346 6.66665 28.4346Z" fill="#4B4D53"/>
<path d="M6.66665 28.4346C8.84902 28.4346 10.491 27.0487 11.5264 26.0598C11.8478 25.7524 12.1286 25.5015 12.3291 25.3274C12.4294 25.2404 12.5096 25.1725 12.5648 25.1263C12.5734 25.1191 12.5814 25.1125 12.5888 25.1063C12.5814 25.1001 12.5734 25.0934 12.5647 25.0861C12.5095 25.0398 12.4293 24.9717 12.3291 24.8844C12.1286 24.7099 11.8478 24.4585 11.5264 24.1512C10.491 23.1623 8.84902 21.7764 6.66665 21.7764C4.89885 21.7764 3.45319 22.6153 2.44666 23.4589C1.94376 23.8803 1.5518 24.3019 1.28563 24.6181C1.15258 24.7761 1.05106 24.9077 0.982928 24.9995C0.948863 25.0455 0.923149 25.0815 0.906019 25.1059L0.905662 25.1064L0.90601 25.1069C0.92314 25.1313 0.948853 25.1673 0.982918 25.2132C1.05105 25.305 1.15257 25.4365 1.28562 25.5945C1.55178 25.9104 1.94375 26.3318 2.44665 26.753C3.45318 27.5961 4.89884 28.4346 6.66665 28.4346Z" fill="url(#paint14_angular_13_3144)"/>
<path d="M6.66665 28.4346C8.84902 28.4346 10.491 27.0487 11.5264 26.0598C11.8478 25.7524 12.1286 25.5015 12.3291 25.3274C12.4294 25.2404 12.5096 25.1725 12.5648 25.1263C12.5734 25.1191 12.5814 25.1125 12.5888 25.1063C12.5814 25.1001 12.5734 25.0934 12.5647 25.0861C12.5095 25.0398 12.4293 24.9717 12.3291 24.8844C12.1286 24.7099 11.8478 24.4585 11.5264 24.1512C10.491 23.1623 8.84902 21.7764 6.66665 21.7764C4.89885 21.7764 3.45319 22.6153 2.44666 23.4589C1.94376 23.8803 1.5518 24.3019 1.28563 24.6181C1.15258 24.7761 1.05106 24.9077 0.982928 24.9995C0.948863 25.0455 0.923149 25.0815 0.906019 25.1059L0.905662 25.1064L0.90601 25.1069C0.92314 25.1313 0.948853 25.1673 0.982918 25.2132C1.05105 25.305 1.15257 25.4365 1.28562 25.5945C1.55178 25.9104 1.94375 26.3318 2.44665 26.753C3.45318 27.5961 4.89884 28.4346 6.66665 28.4346Z" stroke="#32353E" stroke-width="0.130978"/>
<g filter="url(#filter21_f_13_3144)">
<path d="M0.980144 25.1055C1.04719 25.2044 3.23245 28.3799 6.65712 28.3799C8.80615 28.3799 10.4188 27.0252 11.4263 26.0698C11.9989 25.5265 12.4374 25.1666 12.5062 25.1091C12.3069 25.2296 9.0707 27.1619 6.27298 27.1619C3.47526 27.1619 1.05625 25.1666 0.980144 25.1055Z" fill="black" fill-opacity="0.7"/>
</g>
<g filter="url(#filter22_f_13_3144)">
<path d="M0.926033 25.1562H5.68902C3.04651 25.2883 2.97508 26.8682 3.80698 27.6696C3.27848 27.5521 1.69064 25.9637 0.926033 25.1562Z" fill="black" fill-opacity="0.6"/>
</g>
<g filter="url(#filter23_f_13_3144)">
<path d="M0.825142 25.1055L5.30269 24.886C2.66018 24.7539 2.87419 23.3935 3.70609 22.5922C3.17759 22.7096 1.58975 24.298 0.825142 25.1055Z" fill="black" fill-opacity="0.2"/>
</g>
<g filter="url(#filter24_f_13_3144)">
<path d="M12.5037 25.0963C10.3579 22.9391 8.49291 21.9194 6.88109 21.8379C6.31964 21.867 5.32054 21.8379 4.21898 22.4231C5.57162 22.3631 9.15672 23.0747 10.5645 25.0963H11.3218H12.5037Z" fill="url(#paint15_linear_13_3144)"/>
</g>
<g filter="url(#filter25_f_13_3144)">
<line y1="-0.0654892" x2="11.6778" y2="-0.0654892" transform="matrix(1 -8.74228e-08 -8.74228e-08 -1 0.826538 25.1775)" stroke="#32353E" stroke-opacity="0.5" stroke-width="0.130978"/>
</g>
<g filter="url(#filter26_f_13_3144)">
<path d="M0.826538 25.0308L12.5043 25.0308" stroke="white" stroke-opacity="0.2" stroke-width="0.130978" stroke-linecap="round"/>
</g>
</g>
<defs>
<filter id="filter0_f_13_3144" x="0.233075" y="24.7576" width="5.96488" height="7.11985" filterUnits="userSpaceOnUse" color-interpolation-filters="sRGB">
<feFlood flood-opacity="0" result="BackgroundImageFix"/>
<feBlend mode="normal" in="SourceGraphic" in2="BackgroundImageFix" result="shape"/>
<feGaussianBlur stdDeviation="0.261957" result="effect1_foregroundBlur_13_3144"/>
</filter>
<filter id="filter1_f_13_3144" x="0.233075" y="24.7576" width="5.96488" height="7.11985" filterUnits="userSpaceOnUse" color-interpolation-filters="sRGB">
<feFlood flood-opacity="0" result="BackgroundImageFix"/>
<feBlend mode="normal" in="SourceGraphic" in2="BackgroundImageFix" result="shape"/>
<feGaussianBlur stdDeviation="0.261957" result="effect1_foregroundBlur_13_3144"/>
</filter>
<filter id="filter2_f_13_3144" x="7.29351" y="3.4556" width="6.4449" height="9.8283" filterUnits="userSpaceOnUse" color-interpolation-filters="sRGB">
<feFlood flood-opacity="0" result="BackgroundImageFix"/>
<feBlend mode="normal" in="SourceGraphic" in2="BackgroundImageFix" result="shape"/>
<feGaussianBlur stdDeviation="0.78587" result="effect1_foregroundBlur_13_3144"/>
</filter>
<filter id="filter3_f_13_3144" x="10.5949" y="3.4556" width="6.4449" height="9.8283" filterUnits="userSpaceOnUse" color-interpolation-filters="sRGB">
<feFlood flood-opacity="0" result="BackgroundImageFix"/>
<feBlend mode="normal" in="SourceGraphic" in2="BackgroundImageFix" result="shape"/>
<feGaussianBlur stdDeviation="0.78587" result="effect1_foregroundBlur_13_3144"/>
</filter>
<filter id="filter4_f_13_3144" x="10.6439" y="5.43241" width="5.65679" height="7.90642" filterUnits="userSpaceOnUse" color-interpolation-filters="sRGB">
<feFlood flood-opacity="0" result="BackgroundImageFix"/>
<feBlend mode="normal" in="SourceGraphic" in2="BackgroundImageFix" result="shape"/>
<feGaussianBlur stdDeviation="0.78587" result="effect1_foregroundBlur_13_3144"/>
</filter>
<filter id="filter5_f_13_3144" x="7.85058" y="-0.861059" width="5.35406" height="10.3803" filterUnits="userSpaceOnUse" color-interpolation-filters="sRGB">
<feFlood flood-opacity="0" result="BackgroundImageFix"/>
<feBlend mode="normal" in="SourceGraphic" in2="BackgroundImageFix" result="shape"/>
<feGaussianBlur stdDeviation="0.523914" result="effect1_foregroundBlur_13_3144"/>
</filter>
<filter id="filter6_f_13_3144" x="11.1184" y="-0.861059" width="5.35406" height="10.3803" filterUnits="userSpaceOnUse" color-interpolation-filters="sRGB">
<feFlood flood-opacity="0" result="BackgroundImageFix"/>
<feBlend mode="normal" in="SourceGraphic" in2="BackgroundImageFix" result="shape"/>
<feGaussianBlur stdDeviation="0.523914" result="effect1_foregroundBlur_13_3144"/>
</filter>
<filter id="filter7_f_13_3144" x="11.9742" y="-0.074945" width="0.654895" height="12.2016" filterUnits="userSpaceOnUse" color-interpolation-filters="sRGB">
<feFlood flood-opacity="0" result="BackgroundImageFix"/>
<feBlend mode="normal" in="SourceGraphic" in2="BackgroundImageFix" result="shape"/>
<feGaussianBlur stdDeviation="0.130978" result="effect1_foregroundBlur_13_3144"/>
</filter>
<filter id="filter8_f_13_3144" x="11.7645" y="-0.140375" width="0.654895" height="12.3325" filterUnits="userSpaceOnUse" color-interpolation-filters="sRGB">
<feFlood flood-opacity="0" result="BackgroundImageFix"/>
<feBlend mode="normal" in="SourceGraphic" in2="BackgroundImageFix" result="shape"/>
<feGaussianBlur stdDeviation="0.130978" result="effect1_foregroundBlur_13_3144"/>
</filter>
<filter id="filter9_f_13_3144" x="10.2099" y="6.22001" width="9.53404" height="13.1237" filterUnits="userSpaceOnUse" color-interpolation-filters="sRGB">
<feFlood flood-opacity="0" result="BackgroundImageFix"/>
<feBlend mode="normal" in="SourceGraphic" in2="BackgroundImageFix" result="shape"/>
<feGaussianBlur stdDeviation="0.78587" result="effect1_foregroundBlur_13_3144"/>
</filter>
<filter id="filter10_f_13_3144" x="10.2279" y="12.1482" width="6.76055" height="7.26824" filterUnits="userSpaceOnUse" color-interpolation-filters="sRGB">
<feFlood flood-opacity="0" result="BackgroundImageFix"/>
<feBlend mode="normal" in="SourceGraphic" in2="BackgroundImageFix" result="shape"/>
<feGaussianBlur stdDeviation="0.78587" result="effect1_foregroundBlur_13_3144"/>
</filter>
<filter id="filter11_f_13_3144" x="9.41671" y="10.187" width="6.12685" height="9.28997" filterUnits="userSpaceOnUse" color-interpolation-filters="sRGB">
<feFlood flood-opacity="0" result="BackgroundImageFix"/>
<feBlend mode="normal" in="SourceGraphic" in2="BackgroundImageFix" result="shape"/>
<feGaussianBlur stdDeviation="0.78587" result="effect1_foregroundBlur_13_3144"/>
</filter>
<filter id="filter12_f_13_3144" x="10.0309" y="6.73928" width="8.55307" height="7.93379" filterUnits="userSpaceOnUse" color-interpolation-filters="sRGB">
<feFlood flood-opacity="0" result="BackgroundImageFix"/>
<feBlend mode="normal" in="SourceGraphic" in2="BackgroundImageFix" result="shape"/>
<feGaussianBlur stdDeviation="0.523914" result="effect1_foregroundBlur_13_3144"/>
</filter>
<filter id="filter13_f_13_3144" x="11.5086" y="7.56592" width="6.47625" height="10.7026" filterUnits="userSpaceOnUse" color-interpolation-filters="sRGB">
<feFlood flood-opacity="0" result="BackgroundImageFix"/>
<feBlend mode="normal" in="SourceGraphic" in2="BackgroundImageFix" result="shape"/>
<feGaussianBlur stdDeviation="0.130978" result="effect1_foregroundBlur_13_3144"/>
</filter>
<filter id="filter14_f_13_3144" x="11.3143" y="7.42725" width="6.49382" height="10.7681" filterUnits="userSpaceOnUse" color-interpolation-filters="sRGB">
<feFlood flood-opacity="0" result="BackgroundImageFix"/>
<feBlend mode="normal" in="SourceGraphic" in2="BackgroundImageFix" result="shape"/>
<feGaussianBlur stdDeviation="0.130978" result="effect1_foregroundBlur_13_3144"/>
</filter>
<filter id="filter15_f_13_3144" x="6.11524" y="15.5823" width="13.1272" height="9.67424" filterUnits="userSpaceOnUse" color-interpolation-filters="sRGB">
<feFlood flood-opacity="0" result="BackgroundImageFix"/>
<feBlend mode="normal" in="SourceGraphic" in2="BackgroundImageFix" result="shape"/>
<feGaussianBlur stdDeviation="0.78587" result="effect1_foregroundBlur_13_3144"/>
</filter>
<filter id="filter16_f_13_3144" x="6.08993" y="19.032" width="7.26834" height="6.28923" filterUnits="userSpaceOnUse" color-interpolation-filters="sRGB">
<feFlood flood-opacity="0" result="BackgroundImageFix"/>
<feBlend mode="normal" in="SourceGraphic" in2="BackgroundImageFix" result="shape"/>
<feGaussianBlur stdDeviation="0.78587" result="effect1_foregroundBlur_13_3144"/>
</filter>
<filter id="filter17_f_13_3144" x="5.9817" y="17.802" width="6.91141" height="6.76042" filterUnits="userSpaceOnUse" color-interpolation-filters="sRGB">
<feFlood flood-opacity="0" result="BackgroundImageFix"/>
<feBlend mode="normal" in="SourceGraphic" in2="BackgroundImageFix" result="shape"/>
<feGaussianBlur stdDeviation="0.78587" result="effect1_foregroundBlur_13_3144"/>
</filter>
<filter id="filter18_f_13_3144" x="8.10346" y="15.5161" width="10.607" height="4.50239" filterUnits="userSpaceOnUse" color-interpolation-filters="sRGB">
<feFlood flood-opacity="0" result="BackgroundImageFix"/>
<feBlend mode="normal" in="SourceGraphic" in2="BackgroundImageFix" result="shape"/>
<feGaussianBlur stdDeviation="0.523914" result="effect1_foregroundBlur_13_3144"/>
</filter>
<filter id="filter19_f_13_3144" x="7.32656" y="16.9522" width="10.7027" height="6.47631" filterUnits="userSpaceOnUse" color-interpolation-filters="sRGB">
<feFlood flood-opacity="0" result="BackgroundImageFix"/>
<feBlend mode="normal" in="SourceGraphic" in2="BackgroundImageFix" result="shape"/>
<feGaussianBlur stdDeviation="0.130978" result="effect1_foregroundBlur_13_3144"/>
</filter>
<filter id="filter20_f_13_3144" x="7.18636" y="16.7607" width="10.7682" height="6.49364" filterUnits="userSpaceOnUse" color-interpolation-filters="sRGB">
<feFlood flood-opacity="0" result="BackgroundImageFix"/>
<feBlend mode="normal" in="SourceGraphic" in2="BackgroundImageFix" result="shape"/>
<feGaussianBlur stdDeviation="0.130978" result="effect1_foregroundBlur_13_3144"/>
</filter>
<filter id="filter21_f_13_3144" x="-0.591592" y="23.5337" width="14.6696" height="6.4179" filterUnits="userSpaceOnUse" color-interpolation-filters="sRGB">
<feFlood flood-opacity="0" result="BackgroundImageFix"/>
<feBlend mode="normal" in="SourceGraphic" in2="BackgroundImageFix" result="shape"/>
<feGaussianBlur stdDeviation="0.78587" result="effect1_foregroundBlur_13_3144"/>
</filter>
<filter id="filter22_f_13_3144" x="-0.6457" y="23.5845" width="7.90645" height="5.65691" filterUnits="userSpaceOnUse" color-interpolation-filters="sRGB">
<feFlood flood-opacity="0" result="BackgroundImageFix"/>
<feBlend mode="normal" in="SourceGraphic" in2="BackgroundImageFix" result="shape"/>
<feGaussianBlur stdDeviation="0.78587" result="effect1_foregroundBlur_13_3144"/>
</filter>
<filter id="filter23_f_13_3144" x="-0.746591" y="21.0203" width="7.62102" height="5.65691" filterUnits="userSpaceOnUse" color-interpolation-filters="sRGB">
<feFlood flood-opacity="0" result="BackgroundImageFix"/>
<feBlend mode="normal" in="SourceGraphic" in2="BackgroundImageFix" result="shape"/>
<feGaussianBlur stdDeviation="0.78587" result="effect1_foregroundBlur_13_3144"/>
</filter>
<filter id="filter24_f_13_3144" x="3.17115" y="20.7901" width="10.3804" height="5.35395" filterUnits="userSpaceOnUse" color-interpolation-filters="sRGB">
<feFlood flood-opacity="0" result="BackgroundImageFix"/>
<feBlend mode="normal" in="SourceGraphic" in2="BackgroundImageFix" result="shape"/>
<feGaussianBlur stdDeviation="0.523914" result="effect1_foregroundBlur_13_3144"/>
</filter>
<filter id="filter25_f_13_3144" x="0.564581" y="24.9155" width="12.2017" height="0.654773" filterUnits="userSpaceOnUse" color-interpolation-filters="sRGB">
<feFlood flood-opacity="0" result="BackgroundImageFix"/>
<feBlend mode="normal" in="SourceGraphic" in2="BackgroundImageFix" result="shape"/>
<feGaussianBlur stdDeviation="0.130978" result="effect1_foregroundBlur_13_3144"/>
</filter>
<filter id="filter26_f_13_3144" x="0.499091" y="24.7034" width="12.3327" height="0.654773" filterUnits="userSpaceOnUse" color-interpolation-filters="sRGB">
<feFlood flood-opacity="0" result="BackgroundImageFix"/>
<feBlend mode="normal" in="SourceGraphic" in2="BackgroundImageFix" result="shape"/>
<feGaussianBlur stdDeviation="0.130978" result="effect1_foregroundBlur_13_3144"/>
</filter>
<linearGradient id="paint0_linear_13_3144" x1="1.35894" y1="25.9437" x2="1.04198" y2="26.183" gradientUnits="userSpaceOnUse">
<stop stop-color="#24272D"/>
<stop offset="1" stop-color="#24272D" stop-opacity="0"/>
</linearGradient>
<radialGradient id="paint1_angular_13_3144" cx="0" cy="0" r="1" gradientUnits="userSpaceOnUse" gradientTransform="translate(12.1664 11.8653) rotate(-90) scale(11.8656 20.7379)">
<stop stop-color="#686A74"/>
<stop offset="1" stop-color="#686A74" stop-opacity="0"/>
</radialGradient>
<radialGradient id="paint2_angular_13_3144" cx="0" cy="0" r="1" gradientUnits="userSpaceOnUse" gradientTransform="translate(12.1668 11.8651) rotate(-90) scale(11.8656 20.7379)">
<stop stop-color="#686A74"/>
<stop offset="1" stop-color="#686A74" stop-opacity="0"/>
</radialGradient>
<linearGradient id="paint3_linear_13_3144" x1="11.0635" y1="10.4833" x2="12.9042" y2="2.73088" gradientUnits="userSpaceOnUse">
<stop stop-color="#161618"/>
<stop offset="1" stop-color="#161618" stop-opacity="0"/>
</linearGradient>
<linearGradient id="paint4_linear_13_3144" x1="13.2699" y1="10.4833" x2="11.4291" y2="2.73088" gradientUnits="userSpaceOnUse">
<stop stop-color="#161618"/>
<stop offset="1" stop-color="#161618" stop-opacity="0"/>
</linearGradient>
<linearGradient id="paint5_linear_13_3144" x1="10.5276" y1="-1.10086" x2="12.5443" y2="6.59747" gradientUnits="userSpaceOnUse">
<stop stop-color="white"/>
<stop offset="1" stop-color="white" stop-opacity="0"/>
</linearGradient>
<linearGradient id="paint6_linear_13_3144" x1="15.9193" y1="-1.20632" x2="13.2478" y2="4.80471" gradientUnits="userSpaceOnUse">
<stop stop-color="white"/>
<stop offset="1" stop-color="white" stop-opacity="0"/>
</linearGradient>
<radialGradient id="paint7_angular_13_3144" cx="0" cy="0" r="1" gradientUnits="userSpaceOnUse" gradientTransform="translate(11.7051 17.9053) rotate(-60) scale(11.8656 20.7379)">
<stop stop-color="#686A74"/>
<stop offset="1" stop-color="#686A74" stop-opacity="0"/>
</radialGradient>
<radialGradient id="paint8_angular_13_3144" cx="0" cy="0" r="1" gradientUnits="userSpaceOnUse" gradientTransform="translate(11.7058 17.9051) rotate(-60) scale(11.8656 20.7379)">
<stop stop-color="#686A74"/>
<stop offset="1" stop-color="#686A74" stop-opacity="0"/>
</radialGradient>
<linearGradient id="paint9_linear_13_3144" x1="13.2653" y1="7.7135" x2="15.2575" y2="11.7337" gradientUnits="userSpaceOnUse">
<stop stop-color="white"/>
<stop offset="1" stop-color="white" stop-opacity="0"/>
</linearGradient>
<radialGradient id="paint10_angular_13_3144" cx="0" cy="0" r="1" gradientUnits="userSpaceOnUse" gradientTransform="translate(7.55301 22.991) rotate(-30) scale(11.8656 20.7379)">
<stop stop-color="#686A74"/>
<stop offset="1" stop-color="#686A74" stop-opacity="0"/>
</radialGradient>
<radialGradient id="paint11_angular_13_3144" cx="0" cy="0" r="1" gradientUnits="userSpaceOnUse" gradientTransform="translate(7.55272 22.9907) rotate(-30) scale(11.8656 20.7379)">
<stop stop-color="#686A74"/>
<stop offset="1" stop-color="#686A74" stop-opacity="0"/>
</radialGradient>
<linearGradient id="paint12_linear_13_3144" x1="13.9413" y1="13.3276" x2="13.7161" y2="19.4219" gradientUnits="userSpaceOnUse">
<stop stop-color="white"/>
<stop offset="1" stop-color="white" stop-opacity="0"/>
</linearGradient>
<radialGradient id="paint13_angular_13_3144" cx="0" cy="0" r="1" gradientUnits="userSpaceOnUse" gradientTransform="translate(0.825808 25.1055) scale(11.8656 20.7379)">
<stop stop-color="#686A74"/>
<stop offset="1" stop-color="#686A74" stop-opacity="0"/>
</radialGradient>
<radialGradient id="paint14_angular_13_3144" cx="0" cy="0" r="1" gradientUnits="userSpaceOnUse" gradientTransform="translate(0.826113 25.1055) scale(11.8656 20.7379)">
<stop stop-color="#686A74"/>
<stop offset="1" stop-color="#686A74" stop-opacity="0"/>
</radialGradient>
<linearGradient id="paint15_linear_13_3144" x1="11.1888" y1="19.931" x2="7.94658" y2="25.0962" gradientUnits="userSpaceOnUse">
<stop stop-color="white"/>
<stop offset="1" stop-color="white" stop-opacity="0"/>
</linearGradient>
</defs>
</svg>
