<svg width="157" height="49" viewBox="0 0 157 49" fill="none" xmlns="http://www.w3.org/2000/svg">
<rect x="0.599609" y="19.436" width="9.59998" height="9.59999" fill="#141C53"/>
<rect x="31.4004" y="29.0356" width="9.6" height="9.59999" transform="rotate(180 31.4004 29.0356)" fill="#141C53"/>
<path opacity="0.2" d="M10.1992 19.4354L21.7992 9.83545V19.4354L10.1992 29.0354V19.4354Z" fill="#141C53"/>
<path opacity="0.5" d="M21.7988 29.0362L10.1988 38.6362L10.1988 29.0362L21.7988 19.4363L21.7988 29.0362Z" fill="#141C53"/>
<path opacity="0.6" d="M0.599609 19.4358L21.7996 0.23584V9.83583L10.1996 19.4358H0.599609Z" fill="#141C53"/>
<path opacity="0.7" d="M31.4004 29.0359L10.2004 48.2358L10.2004 38.6359L21.8004 29.0359L31.4004 29.0359Z" fill="#141C53"/>
<path d="M50.1271 33.4788C47.4631 33.4788 45.4381 32.8848 44.0521 31.6968C42.6841 30.5088 42.0001 28.9608 42.0001 27.0528H46.2661C46.3021 28.0248 46.6261 28.8078 47.2381 29.4018C47.8681 29.9778 48.8851 30.2658 50.2891 30.2658C51.3691 30.2658 52.2331 30.0678 52.8811 29.6718C53.5291 29.2758 53.8531 28.6908 53.8531 27.9168C53.8531 27.2868 53.7181 26.8008 53.4481 26.4588C53.1781 26.0988 52.7101 25.8198 52.0441 25.6218C51.3781 25.4238 50.4511 25.2258 49.2631 25.0278C46.9951 24.6678 45.2851 24.0558 44.1331 23.1918C42.9811 22.3098 42.4051 21.0138 42.4051 19.3038C42.4051 17.4498 43.0891 15.9918 44.4571 14.9298C45.8251 13.8498 47.7061 13.3098 50.1001 13.3098C51.6481 13.3098 52.9801 13.5528 54.0961 14.0388C55.2121 14.5248 56.0761 15.2088 56.6881 16.0908C57.3181 16.9728 57.6331 17.9988 57.6331 19.1688H53.3941C53.3581 18.2148 53.0071 17.5308 52.3411 17.1168C51.6931 16.7028 50.9011 16.4958 49.9651 16.4958C48.9751 16.4958 48.1921 16.7028 47.6161 17.1168C47.0581 17.5128 46.7791 18.0618 46.7791 18.7638C46.7791 19.3758 46.9411 19.8348 47.2651 20.1408C47.5891 20.4468 48.0931 20.6808 48.7771 20.8428C49.4791 21.0048 50.3971 21.1848 51.5311 21.3828C52.3591 21.5088 53.1691 21.6798 53.9611 21.8958C54.7531 22.1118 55.4641 22.4358 56.0941 22.8678C56.7421 23.2818 57.2551 23.8668 57.6331 24.6228C58.0291 25.3608 58.2271 26.3238 58.2271 27.5118C58.2271 29.2758 57.5431 30.7158 56.1751 31.8318C54.8251 32.9298 52.8091 33.4788 50.1271 33.4788Z" fill="#141C53"/>
<path d="M60.4101 16.9008V13.5528H64.3791V16.9008H60.4101ZM60.4101 33.2358V18.7638H64.3791V33.2358H60.4101Z" fill="#141C53"/>
<path d="M72.9524 33.5058C70.8464 33.5058 69.2174 33.0648 68.0654 32.1828C66.9314 31.2828 66.3734 30.1128 66.3914 28.6728H70.2794C70.2974 29.4468 70.5674 30.0048 71.0894 30.3468C71.6294 30.6708 72.2864 30.8328 73.0604 30.8328C73.8704 30.8328 74.4824 30.6978 74.8964 30.4278C75.3104 30.1398 75.5174 29.7528 75.5174 29.2668C75.5174 28.6008 75.2744 28.1688 74.7884 27.9708C74.3204 27.7728 73.5734 27.6018 72.5474 27.4578C71.4854 27.3138 70.5134 27.1068 69.6314 26.8368C68.7494 26.5488 68.0474 26.1168 67.5254 25.5408C67.0214 24.9648 66.7694 24.1458 66.7694 23.0838C66.7694 21.5538 67.3454 20.4108 68.4974 19.6548C69.6674 18.8808 71.1974 18.4938 73.0874 18.4938C74.9414 18.4938 76.4174 18.8988 77.5154 19.7088C78.6134 20.5008 79.1804 21.6168 79.2164 23.0568H75.3284C75.3284 22.4448 75.1124 21.9768 74.6804 21.6528C74.2664 21.3288 73.6994 21.1668 72.9794 21.1668C72.2414 21.1668 71.6834 21.3108 71.3054 21.5988C70.9274 21.8688 70.7384 22.2288 70.7384 22.6788C70.7384 23.2188 70.9814 23.5968 71.4674 23.8128C71.9534 24.0288 72.7274 24.2088 73.7894 24.3528C74.5454 24.4608 75.2654 24.5958 75.9494 24.7578C76.6334 24.9018 77.2364 25.1358 77.7584 25.4598C78.2984 25.7658 78.7214 26.1978 79.0274 26.7558C79.3514 27.2958 79.5134 28.0068 79.5134 28.8888C79.5134 30.4728 78.9284 31.6428 77.7584 32.3988C76.5884 33.1368 74.9864 33.5058 72.9524 33.5058Z" fill="#141C53"/>
<path d="M80.5719 37.7448V34.4778H82.2459C82.8399 34.4778 83.3079 34.3518 83.6499 34.0998C84.0099 33.8658 84.2799 33.4968 84.4599 32.9928L84.8109 32.1018L79.2759 18.7638H83.6229L86.2689 26.5128L86.7279 28.0518H86.8629L87.2949 26.5128L89.7789 18.7638H94.0179L88.3749 33.9108C87.8169 35.4228 87.0879 36.4398 86.1879 36.9618C85.3059 37.4838 84.2439 37.7448 83.0019 37.7448H80.5719Z" fill="#141C53"/>
<path d="M95.124 37.7448V18.7638H98.958L99.093 21.2748H99.309C99.651 20.4288 100.218 19.7538 101.01 19.2498C101.82 18.7458 102.783 18.4938 103.899 18.4938C105.627 18.4938 107.022 19.1238 108.084 20.3838C109.164 21.6258 109.704 23.4978 109.704 25.9998C109.704 28.4838 109.164 30.3558 108.084 31.6158C107.022 32.8758 105.627 33.5058 103.899 33.5058C102.783 33.5058 101.82 33.2538 101.01 32.7498C100.218 32.2278 99.651 31.5528 99.309 30.7248H99.093V37.7448H95.124ZM102.414 30.2928C103.386 30.2928 104.16 29.9508 104.736 29.2668C105.33 28.5648 105.627 27.4758 105.627 25.9998C105.627 24.5238 105.33 23.4438 104.736 22.7598C104.16 22.0578 103.386 21.7068 102.414 21.7068C101.676 21.7068 101.064 21.8778 100.578 22.2198C100.092 22.5618 99.732 23.0118 99.498 23.5698C99.264 24.1098 99.147 24.6858 99.147 25.2978V26.7018C99.147 27.3138 99.264 27.8988 99.498 28.4568C99.732 28.9968 100.092 29.4378 100.578 29.7798C101.064 30.1218 101.676 30.2928 102.414 30.2928Z" fill="#141C53"/>
<path d="M111.67 33.2358V13.5528H115.639V21.3828H115.801C116.197 20.4288 116.809 19.7088 117.637 19.2228C118.465 18.7368 119.392 18.4938 120.418 18.4938C121.39 18.4938 122.254 18.6918 123.01 19.0878C123.784 19.4838 124.396 20.1228 124.846 21.0048C125.296 21.8688 125.521 23.0298 125.521 24.4878V33.2358H121.552V25.3518C121.552 24.1278 121.336 23.2188 120.904 22.6248C120.472 22.0308 119.779 21.7338 118.825 21.7338C117.799 21.7338 117.007 22.0848 116.449 22.7868C115.909 23.4708 115.639 24.2718 115.639 25.1898V33.2358H111.67Z" fill="#141C53"/>
<path d="M133.001 33.4788C131.327 33.4788 130.049 32.9928 129.167 32.0208C128.285 31.0488 127.844 29.6358 127.844 27.7818V18.7638H131.813V26.7288C131.813 27.8808 132.02 28.7628 132.434 29.3748C132.866 29.9688 133.577 30.2658 134.567 30.2658C135.575 30.2658 136.349 29.9238 136.889 29.2398C137.447 28.5378 137.726 27.7098 137.726 26.7558V18.7638H141.695V33.2358H137.888L137.726 30.5898H137.537C137.195 31.5258 136.61 32.2458 135.782 32.7498C134.972 33.2358 134.045 33.4788 133.001 33.4788Z" fill="#141C53"/>
<path d="M150.224 33.5058C148.118 33.5058 146.489 33.0648 145.337 32.1828C144.203 31.2828 143.645 30.1128 143.663 28.6728H147.551C147.569 29.4468 147.839 30.0048 148.361 30.3468C148.901 30.6708 149.558 30.8328 150.332 30.8328C151.142 30.8328 151.754 30.6978 152.168 30.4278C152.582 30.1398 152.789 29.7528 152.789 29.2668C152.789 28.6008 152.546 28.1688 152.06 27.9708C151.592 27.7728 150.845 27.6018 149.819 27.4578C148.757 27.3138 147.785 27.1068 146.903 26.8368C146.021 26.5488 145.319 26.1168 144.797 25.5408C144.293 24.9648 144.041 24.1458 144.041 23.0838C144.041 21.5538 144.617 20.4108 145.769 19.6548C146.939 18.8808 148.469 18.4938 150.359 18.4938C152.213 18.4938 153.689 18.8988 154.787 19.7088C155.885 20.5008 156.452 21.6168 156.488 23.0568H152.6C152.6 22.4448 152.384 21.9768 151.952 21.6528C151.538 21.3288 150.971 21.1668 150.251 21.1668C149.513 21.1668 148.955 21.3108 148.577 21.5988C148.199 21.8688 148.01 22.2288 148.01 22.6788C148.01 23.2188 148.253 23.5968 148.739 23.8128C149.225 24.0288 149.999 24.2088 151.061 24.3528C151.817 24.4608 152.537 24.5958 153.221 24.7578C153.905 24.9018 154.508 25.1358 155.03 25.4598C155.57 25.7658 155.993 26.1978 156.299 26.7558C156.623 27.2958 156.785 28.0068 156.785 28.8888C156.785 30.4728 156.2 31.6428 155.03 32.3988C153.86 33.1368 152.258 33.5058 150.224 33.5058Z" fill="#141C53"/>
</svg>
