<svg width="182" height="49" viewBox="0 0 182 49" fill="none" xmlns="http://www.w3.org/2000/svg">
<path fill-rule="evenodd" clip-rule="evenodd" d="M16.7746 28.7292L21.3434 33.298C24.1238 36.0783 28.6316 36.0783 31.4119 33.298C32.3289 32.381 32.9434 31.2762 33.2556 30.1074L36.4462 33.298C39.2265 36.0783 43.7344 36.0783 46.5147 33.298C49.2951 30.5176 49.2951 26.0098 46.5147 23.2295L36.4462 13.1609C33.6658 10.3806 29.158 10.3806 26.3777 13.1609C25.4607 14.0779 24.8462 15.1828 24.534 16.3516L21.3434 13.1609C18.5631 10.3806 14.0552 10.3806 11.2749 13.1609L2.98933 21.4465C-0.196477 24.6323 -0.196477 29.7975 2.98933 32.9834C6.17515 36.1692 11.3404 36.1692 14.5262 32.9833C15.7322 31.7774 16.4816 30.2877 16.7746 28.7292ZM18.8263 15.6781C17.4361 14.2879 15.1822 14.2879 13.792 15.6781C12.4024 17.0677 12.4018 19.3202 13.7902 20.7106L23.8605 30.7809C25.2507 32.171 27.5046 32.171 28.8948 30.7809C30.2842 29.3914 30.285 27.1392 28.897 25.7488L18.8263 15.6781ZM12.0091 23.9636L8.75776 20.7123L5.50647 23.9636C3.71083 25.7593 3.71083 28.6706 5.50647 30.4662C7.3021 32.2619 10.2134 32.2619 12.0091 30.4662C13.8047 28.6706 13.8047 25.7593 12.0091 23.9636ZM28.8918 20.7094C27.5046 19.319 27.5056 17.0673 28.8948 15.6781C30.285 14.2879 32.5389 14.2879 33.9291 15.6781L43.9976 25.7466C45.3878 27.1368 45.3878 29.3907 43.9976 30.7809C42.6074 32.171 40.3535 32.171 38.9633 30.7809L28.8918 20.7094Z" fill="#141C53"/>
<path d="M61.153 33.2356H56.6V11.7756H61.153L67.533 25.7836L73.942 11.7756H78.553V33.2356H74V28.7406C74 24.1006 74 23.0856 74.232 21.4906L69.679 31.2356H65.387L60.863 21.4906C61.124 23.0856 61.153 24.8836 61.153 27.2326V33.2356Z" fill="#141C53"/>
<path d="M86.8508 33.6126C83.7768 33.6126 81.8628 31.8146 81.8628 28.9726C81.8628 26.3046 83.7478 24.6516 87.2278 24.3906L91.2878 24.0716V23.8396C91.2878 22.4186 90.4178 21.6646 88.8228 21.6646C86.9378 21.6646 85.9228 22.3896 85.9228 23.6946H82.2108C82.2108 20.4176 84.9078 18.2716 89.0548 18.2716C93.2598 18.2716 95.6378 20.6206 95.6378 24.7676V33.2356H91.6938L91.4038 31.3216C90.9398 32.6556 89.0258 33.6126 86.8508 33.6126ZM88.4168 30.3066C90.1278 30.3066 91.3168 29.4656 91.3168 27.8126V27.0296L89.0548 27.2326C87.1118 27.4066 86.4158 27.8416 86.4158 28.7696C86.4158 29.8136 87.0538 30.3066 88.4168 30.3066Z" fill="#141C53"/>
<path d="M98.116 25.7246C98.116 21.3166 100.987 18.2426 105.076 18.2426C107.048 18.2426 108.614 18.9966 109.397 20.1856L109.629 18.7356H113.834V32.3076C113.834 37.4986 110.847 40.6306 105.888 40.6306C101.451 40.6306 98.464 38.1076 98.058 33.9896H102.582C102.669 35.6136 103.887 36.5706 105.859 36.5706C108.005 36.5706 109.368 35.2946 109.368 33.2356V31.3506C108.498 32.3946 106.874 33.0616 104.989 33.0616C100.929 33.0616 98.116 30.0746 98.116 25.7246ZM102.611 25.6086C102.611 27.6966 104.003 29.1756 105.975 29.1756C108.005 29.1756 109.368 27.7546 109.368 25.6086C109.368 23.4916 108.005 22.1286 105.946 22.1286C103.974 22.1286 102.611 23.5496 102.611 25.6086Z" fill="#141C53"/>
<path d="M121.659 33.2356H117.193V18.7356H121.398L121.688 20.2436C122.587 18.9966 124.24 18.2716 126.125 18.2716C129.576 18.2716 131.577 20.4756 131.577 24.2746V33.2356H127.111V25.3476C127.111 23.5206 126.096 22.3316 124.559 22.3316C122.79 22.3316 121.659 23.4916 121.659 25.2896V33.2356Z" fill="#141C53"/>
<path d="M133.996 25.9566C133.996 21.3746 137.36 18.3006 142 18.3006C146.611 18.3006 149.975 21.3746 149.975 25.9566C149.975 30.5386 146.611 33.5836 142 33.5836C137.36 33.5836 133.996 30.5386 133.996 25.9566ZM138.491 25.9276C138.491 28.1316 139.912 29.5816 142 29.5816C144.059 29.5816 145.48 28.1316 145.48 25.9276C145.48 23.7526 144.059 22.3026 142 22.3026C139.912 22.3026 138.491 23.7526 138.491 25.9276Z" fill="#141C53"/>
<path d="M157.031 33.2356H152.565V11.3696H157.031V33.2356Z" fill="#141C53"/>
<path d="M162.585 16.4736C161.164 16.4736 160.033 15.3426 160.033 13.9216C160.033 12.5006 161.164 11.3986 162.585 11.3986C163.977 11.3986 165.108 12.5006 165.108 13.9216C165.108 15.3426 163.977 16.4736 162.585 16.4736ZM160.381 33.2356V18.7356H164.847V33.2356H160.381Z" fill="#141C53"/>
<path d="M172.576 33.6126C169.502 33.6126 167.588 31.8146 167.588 28.9726C167.588 26.3046 169.473 24.6516 172.953 24.3906L177.013 24.0716V23.8396C177.013 22.4186 176.143 21.6646 174.548 21.6646C172.663 21.6646 171.648 22.3896 171.648 23.6946H167.936C167.936 20.4176 170.633 18.2716 174.78 18.2716C178.985 18.2716 181.363 20.6206 181.363 24.7676V33.2356H177.419L177.129 31.3216C176.665 32.6556 174.751 33.6126 172.576 33.6126ZM174.142 30.3066C175.853 30.3066 177.042 29.4656 177.042 27.8126V27.0296L174.78 27.2326C172.837 27.4066 172.141 27.8416 172.141 28.7696C172.141 29.8136 172.779 30.3066 174.142 30.3066Z" fill="#141C53"/>
</svg>
