<svg width="202" height="49" viewBox="0 0 202 49" fill="none" xmlns="http://www.w3.org/2000/svg">
<path fill-rule="evenodd" clip-rule="evenodd" d="M19.1279 33.4425C19.957 32.4476 21.1851 31.8724 22.4802 31.8724H40.0727C44.8927 31.8724 48.8 27.965 48.8 23.1451V18.7815C48.8 13.9615 44.8927 10.0542 40.0727 10.0542H36.662C35.3669 10.0542 34.1388 10.6294 33.3097 11.6243L30.472 15.0296C29.643 16.0244 28.4148 16.5997 27.1198 16.5997H9.52726C4.70732 16.5997 0.799988 20.507 0.799988 25.3269V29.6906C0.799988 34.5105 4.70732 38.4178 9.52726 38.4178H12.938C14.233 38.4178 15.4612 37.8426 16.2902 36.8477L19.1279 33.4425ZM42.2545 18.7815C42.2545 17.5765 41.2777 16.5997 40.0727 16.5997H33.3893C32.0942 16.5997 30.8661 17.1749 30.037 18.1698L27.1993 21.575C26.3703 22.5699 25.1421 23.1451 23.8471 23.1451H9.52726C8.32228 23.1451 7.34544 24.1219 7.34544 25.3269V29.6906C7.34544 30.8955 8.32228 31.8724 9.52726 31.8724H16.2107C17.5058 31.8724 18.7339 31.2972 19.563 30.3023L22.4007 26.897C23.2297 25.9022 24.4579 25.3269 25.7529 25.3269H40.0727C41.2777 25.3269 42.2545 24.3501 42.2545 23.1451V18.7815Z" fill="#141C53"/>
<path d="M75.945 33.2364L72.948 22.6794L72.516 20.7354L72.057 22.6794L69.087 33.2364H64.227L58.8 14.8764H63.417L66.36 26.9184L66.846 29.1054L67.332 26.9184L70.734 14.8764H74.514L77.889 26.9184L78.375 29.1054L78.861 26.9184L81.804 14.8764H86.178L80.751 33.2364H75.945Z" fill="#141C53"/>
<path d="M90.4634 23.5164H86.3324C86.7644 20.2494 89.2754 18.2514 93.0014 18.2514C97.1594 18.2514 99.3194 20.6814 99.3194 24.0564V29.6184C99.3194 31.5084 99.4814 32.4804 99.7244 33.2364H95.4584C95.3234 32.7504 95.2424 32.1294 95.2154 31.4274C94.0814 32.9934 92.3534 33.6684 90.6254 33.6684C87.8714 33.6684 85.8194 32.2644 85.8194 29.4834C85.8194 27.5124 86.9534 26.0004 89.2484 25.1904C91.1384 24.5694 92.9474 24.3804 95.1884 24.3534V24.0294C95.1884 22.4364 94.4054 21.5994 92.8124 21.5994C91.4084 21.5994 90.6524 22.3824 90.4634 23.5164ZM89.9504 29.2134C89.9504 30.1854 90.6794 30.8064 91.8944 30.8064C93.7304 30.8064 95.1884 29.3214 95.1884 27.3234V26.7564C91.0034 26.8374 89.9504 27.8634 89.9504 29.2134Z" fill="#141C53"/>
<path d="M101.72 33.2364V18.7104H105.851V20.7354C106.769 19.0074 108.173 18.2514 109.658 18.2514C110.252 18.2514 110.792 18.4134 111.089 18.7104V22.1934C110.603 22.0854 110.09 22.0314 109.442 22.0314C106.958 22.0314 105.851 23.4354 105.851 25.7304V33.2364H101.72Z" fill="#141C53"/>
<path d="M116.333 39.2034H112.202V18.7104H116.333V20.2224C117.224 18.9534 118.466 18.2514 119.978 18.2514C123.731 18.2514 126.08 21.1944 126.08 25.9464C126.08 30.8874 123.677 33.6684 119.978 33.6684C118.439 33.6684 117.197 33.0204 116.333 31.7784V39.2034ZM119.114 21.5994C117.278 21.5994 116.333 23.1384 116.333 25.9464C116.333 28.7544 117.305 30.3204 119.114 30.3204C120.896 30.3204 121.841 28.7814 121.841 25.9464C121.841 23.1384 120.869 21.5994 119.114 21.5994Z" fill="#141C53"/>
<path d="M131.31 22.7334C131.31 25.5954 140.301 23.0844 140.301 28.8354C140.301 31.6974 137.655 33.6684 133.875 33.6684C130.203 33.6684 127.557 32.0484 127.017 28.4574H131.148C131.337 29.8074 132.444 30.5364 133.983 30.5364C135.441 30.5364 136.17 29.9694 136.17 29.0784C136.17 26.2704 127.368 28.7814 127.368 22.9494C127.368 20.5194 129.339 18.2514 133.227 18.2514C136.71 18.2514 139.356 19.8444 139.761 23.5164H135.657C135.414 22.0314 134.55 21.4104 133.092 21.4104C132.012 21.4104 131.31 21.9504 131.31 22.7334Z" fill="#141C53"/>
<path d="M145.97 39.2034H141.839V18.7104H145.97V20.2224C146.861 18.9534 148.103 18.2514 149.615 18.2514C153.368 18.2514 155.717 21.1944 155.717 25.9464C155.717 30.8874 153.314 33.6684 149.615 33.6684C148.076 33.6684 146.834 33.0204 145.97 31.7784V39.2034ZM148.751 21.5994C146.915 21.5994 145.97 23.1384 145.97 25.9464C145.97 28.7544 146.942 30.3204 148.751 30.3204C150.533 30.3204 151.478 28.7814 151.478 25.9464C151.478 23.1384 150.506 21.5994 148.751 21.5994Z" fill="#141C53"/>
<path d="M171.046 28.4574C170.29 31.8054 167.59 33.6684 164.026 33.6684C159.517 33.6684 156.736 30.7524 156.736 25.9734C156.736 21.0324 159.544 18.2514 163.864 18.2514C168.211 18.2514 170.938 21.1404 170.938 25.8924V26.8104H160.948C161.164 29.1324 162.244 30.3744 164.026 30.3744C165.376 30.3744 166.294 29.7804 166.726 28.4574H171.046ZM163.864 21.5454C162.325 21.5454 161.353 22.5444 161.029 24.4344H166.672C166.348 22.5444 165.376 21.5454 163.864 21.5454Z" fill="#141C53"/>
<path d="M186.353 28.4574C185.597 31.8054 182.897 33.6684 179.333 33.6684C174.824 33.6684 172.043 30.7524 172.043 25.9734C172.043 21.0324 174.851 18.2514 179.171 18.2514C183.518 18.2514 186.245 21.1404 186.245 25.8924V26.8104H176.255C176.471 29.1324 177.551 30.3744 179.333 30.3744C180.683 30.3744 181.601 29.7804 182.033 28.4574H186.353ZM179.171 21.5454C177.632 21.5454 176.66 22.5444 176.336 24.4344H181.979C181.655 22.5444 180.683 21.5454 179.171 21.5454Z" fill="#141C53"/>
<path d="M193.424 33.6684C189.698 33.6684 187.349 30.7524 187.349 25.9734C187.349 21.0324 189.752 18.2514 193.424 18.2514C194.963 18.2514 196.205 18.8994 197.096 20.1414V13.7964H201.227V33.2364H197.096V31.6974C196.205 32.9664 194.936 33.6684 193.424 33.6684ZM194.315 30.3204C196.151 30.3204 197.096 28.8084 197.096 25.9734C197.096 23.1654 196.124 21.5994 194.315 21.5994C192.533 21.5994 191.588 23.1384 191.588 25.9734C191.588 28.7814 192.56 30.3204 194.315 30.3204Z" fill="#141C53"/>
</svg>
