<svg width="148" height="49" viewBox="0 0 148 49" fill="none" xmlns="http://www.w3.org/2000/svg">
<path d="M20.2 4.23584L24.4861 13.8884L34.3421 10.0937L30.5475 19.9498L40.2 24.2358L30.5475 28.5219L34.3421 38.378L24.4861 34.5833L20.2 44.2358L15.914 34.5833L6.05788 38.378L9.85256 28.5219L0.200012 24.2358L9.85256 19.9498L6.05788 10.0937L15.914 13.8884L20.2 4.23584Z" fill="#141C53"/>
<path d="M67.4662 17.0799C67.9142 17.5279 68.4742 17.7519 69.1462 17.7519C69.8182 17.7519 70.3689 17.5279 70.7982 17.0799C71.2275 16.6132 71.4422 16.0532 71.4422 15.3999C71.4422 14.7279 71.2275 14.1679 70.7982 13.7199C70.3689 13.2719 69.8182 13.0479 69.1462 13.0479C68.4742 13.0479 67.9142 13.2719 67.4662 13.7199C67.0369 14.1679 66.8222 14.7279 66.8222 15.3999C66.8222 16.0532 67.0369 16.6132 67.4662 17.0799Z" fill="#141C53"/>
<path d="M52.596 23.5083L60.156 33.2359H65.616L57.3381 22.8756L65.336 13.4679H59.904L52.596 22.3852V13.4679H48.2V33.2359H52.596V23.5083Z" fill="#141C53"/>
<path d="M78.239 23.8279C77.8656 24.2759 77.679 24.8919 77.679 25.6759V33.2359H73.395V25.5919C73.395 24.3412 73.6656 23.2492 74.207 22.3159C74.767 21.3639 75.5323 20.6265 76.503 20.1039C77.4923 19.5812 78.631 19.3199 79.919 19.3199C81.2256 19.3199 82.3643 19.5812 83.335 20.1039C84.3056 20.6265 85.0616 21.3545 85.603 22.2879C86.1443 23.2212 86.415 24.3225 86.415 25.5919V33.2359H82.131V25.6759C82.131 24.8919 81.935 24.2759 81.543 23.8279C81.1696 23.3612 80.6283 23.1279 79.919 23.1279C79.191 23.1279 78.631 23.3612 78.239 23.8279Z" fill="#141C53"/>
<path d="M92.8541 32.8999C93.6754 33.3292 94.6274 33.5439 95.7101 33.5439C96.7554 33.5439 97.6048 33.3852 98.2581 33.0679C98.9114 32.7505 99.4994 32.2932 100.022 31.6959L97.4181 29.0639C97.2314 29.2692 97.0168 29.4279 96.7741 29.5399C96.5501 29.6332 96.2794 29.6799 95.9621 29.6799C95.5888 29.6799 95.2621 29.5585 94.9821 29.3159C94.7208 29.0732 94.5901 28.7092 94.5901 28.2239V23.2959H99.0421V19.6279H94.5901V13.9999H90.3061V19.6279H87.2821V23.2959H90.3061V28.1959C90.3061 29.2972 90.5301 30.2492 90.9781 31.0519C91.4261 31.8545 92.0514 32.4705 92.8541 32.8999Z" fill="#141C53"/>
<path d="M106.223 33.5719C105.421 33.5719 104.627 33.4692 103.843 33.2639C103.078 33.0585 102.359 32.7692 101.687 32.3959C101.034 32.0039 100.474 31.5559 100.007 31.0519L102.443 28.5879C102.891 29.0732 103.423 29.4559 104.039 29.7359C104.655 29.9972 105.327 30.1279 106.055 30.1279C106.559 30.1279 106.942 30.0532 107.203 29.9039C107.483 29.7545 107.623 29.5492 107.623 29.2879C107.623 28.9519 107.455 28.6999 107.119 28.5319C106.802 28.3452 106.391 28.1865 105.887 28.0559C105.383 27.9065 104.851 27.7479 104.291 27.5799C103.731 27.4119 103.199 27.1785 102.695 26.8799C102.191 26.5812 101.781 26.1705 101.463 25.6479C101.146 25.1065 100.987 24.4252 100.987 23.6039C100.987 22.7265 101.211 21.9705 101.659 21.3359C102.107 20.6825 102.742 20.1692 103.563 19.7959C104.385 19.4225 105.346 19.2359 106.447 19.2359C107.605 19.2359 108.669 19.4412 109.639 19.8519C110.629 20.2439 111.431 20.8319 112.047 21.6159L109.611 24.0799C109.182 23.5759 108.697 23.2212 108.155 23.0159C107.633 22.8105 107.119 22.7079 106.615 22.7079C106.13 22.7079 105.766 22.7825 105.523 22.9319C105.281 23.0625 105.159 23.2585 105.159 23.5199C105.159 23.7999 105.318 24.0239 105.635 24.1919C105.953 24.3599 106.363 24.5092 106.867 24.6399C107.371 24.7705 107.903 24.9292 108.463 25.1159C109.023 25.3025 109.555 25.5545 110.059 25.8719C110.563 26.1892 110.974 26.6185 111.291 27.1599C111.609 27.6825 111.767 28.3732 111.767 29.2319C111.767 30.5572 111.263 31.6119 110.255 32.3959C109.266 33.1799 107.922 33.5719 106.223 33.5719Z" fill="#141C53"/>
<path d="M116.247 32.7879C117.218 33.2919 118.329 33.5439 119.579 33.5439C120.83 33.5439 121.931 33.2919 122.883 32.7879C123.835 32.2652 124.582 31.5559 125.123 30.6599C125.665 29.7452 125.935 28.6905 125.935 27.4959V19.6279H121.651V27.4679C121.651 28.1772 121.465 28.7372 121.091 29.1479C120.718 29.5399 120.214 29.7359 119.579 29.7359C119.131 29.7359 118.749 29.6425 118.431 29.4559C118.114 29.2692 117.871 29.0079 117.703 28.6719C117.554 28.3359 117.479 27.9345 117.479 27.4679V19.6279H113.195V27.5239C113.195 28.6999 113.466 29.7452 114.007 30.6599C114.549 31.5559 115.295 32.2652 116.247 32.7879Z" fill="#141C53"/>
<path fill-rule="evenodd" clip-rule="evenodd" d="M133.441 39.2839C132.191 39.2839 131.061 39.0599 130.053 38.6119C129.064 38.1639 128.28 37.5385 127.701 36.7359C127.141 35.9519 126.861 35.0465 126.861 34.0199C126.861 33.1985 126.973 32.5265 127.197 32.0039C127.44 31.4812 127.804 30.9679 128.289 30.4639L131.341 32.4239C131.173 32.6105 131.043 32.8065 130.949 33.0119C130.856 33.2172 130.809 33.4599 130.809 33.7399C130.809 34.2999 131.043 34.7479 131.509 35.0839C131.976 35.4199 132.629 35.5879 133.469 35.5879C134.365 35.5879 135.056 35.3732 135.541 34.9439C136.027 34.5332 136.269 33.9452 136.269 33.1799C136.269 32.6759 136.148 32.2372 135.905 31.8639C135.663 31.4719 135.317 31.1732 134.869 30.9679C134.44 30.7439 133.945 30.6319 133.385 30.6319C132.321 30.6319 131.36 30.3892 130.501 29.9039C129.661 29.3999 128.989 28.7279 128.485 27.8879C128 27.0292 127.757 26.0679 127.757 25.0039C127.757 23.9025 128.009 22.9319 128.513 22.0919C129.036 21.2332 129.736 20.5612 130.613 20.0759C131.509 19.5905 132.508 19.3479 133.609 19.3479C134.554 19.3479 135.417 19.5265 136.197 19.8839L138.453 17.6679L140.917 20.1319L138.826 22.2233C139.249 22.966 139.461 23.7996 139.461 24.7239C139.461 25.7505 139.209 26.6559 138.705 27.4399C138.391 27.9478 137.998 28.3852 137.527 28.7521C138.256 29.2198 138.845 29.8091 139.293 30.5199C139.835 31.3785 140.105 32.3585 140.105 33.4599C140.105 34.5985 139.825 35.6065 139.265 36.4839C138.705 37.3612 137.931 38.0425 136.941 38.5279C135.952 39.0319 134.785 39.2839 133.441 39.2839ZM133.609 27.1039C134.039 27.1039 134.412 27.0199 134.729 26.8519C135.047 26.6652 135.299 26.4132 135.485 26.0959C135.672 25.7785 135.765 25.4145 135.765 25.0039C135.765 24.5932 135.672 24.2292 135.485 23.9119C135.317 23.5945 135.065 23.3519 134.729 23.1839C134.412 22.9972 134.039 22.9039 133.609 22.9039C133.18 22.9039 132.807 22.9972 132.489 23.1839C132.172 23.3519 131.92 23.5945 131.733 23.9119C131.547 24.2292 131.453 24.5932 131.453 25.0039C131.453 25.4145 131.547 25.7785 131.733 26.0959C131.92 26.4132 132.172 26.6652 132.489 26.8519C132.825 27.0199 133.199 27.1039 133.609 27.1039Z" fill="#141C53"/>
<path d="M142.528 17.0799C142.976 17.5279 143.536 17.7519 144.208 17.7519C144.88 17.7519 145.431 17.5279 145.86 17.0799C146.289 16.6132 146.504 16.0532 146.504 15.3999C146.504 14.7279 146.289 14.1679 145.86 13.7199C145.431 13.2719 144.88 13.0479 144.208 13.0479C143.536 13.0479 142.976 13.2719 142.528 13.7199C142.099 14.1679 141.884 14.7279 141.884 15.3999C141.884 16.0532 142.099 16.6132 142.528 17.0799Z" fill="#141C53"/>
<path d="M66.9902 19.6279V33.2359H71.2742V19.6279H66.9902Z" fill="#141C53"/>
<path d="M142.052 19.6279V33.2359H146.336V19.6279H142.052Z" fill="#141C53"/>
</svg>
