<svg width="199" height="49" viewBox="0 0 199 49" fill="none" xmlns="http://www.w3.org/2000/svg">
<path fill-rule="evenodd" clip-rule="evenodd" d="M27.0797 2.24972C27.5267 2.01646 28.0611 2.02344 28.5019 2.26831L38.6284 7.89332C39.1046 8.15788 39.4 8.65987 39.4 9.20469L39.3993 20.4542C39.3993 21.0131 39.0886 21.5255 38.5932 21.784L12.7196 35.2836C12.2725 35.5169 11.7381 35.5099 11.2972 35.265L1.17344 29.6401C0.697353 29.3756 0.402051 28.8738 0.401956 28.3292L0.399994 17.0795C0.399896 16.5205 0.710583 16.0079 1.20613 15.7493L27.0797 2.24972ZM3.40015 17.9884L3.40152 25.8546L26.2753 13.9201L26.274 6.05389L3.40015 17.9884ZM29.274 6.12893L29.2753 13.9466L36.3994 17.9048L36.3999 10.0872L29.274 6.12893ZM34.7361 20.4126L27.7531 16.5328L5.06512 28.3704L12.0481 32.2502L34.7361 20.4126Z" fill="#141C53"/>
<path opacity="0.5" fill-rule="evenodd" clip-rule="evenodd" d="M12.7203 46.5345C12.2733 46.7677 11.7389 46.7607 11.2981 46.5159L1.17162 40.8909C0.695347 40.6263 0.399968 40.1243 0.400002 39.5795L0.400701 28.3299C0.400736 27.7711 0.711401 27.2587 1.20683 27.0002L27.0804 13.5005C27.5275 13.2673 28.0619 13.2743 28.5027 13.5192L38.6266 19.1441C39.1026 19.4086 39.3979 19.9104 39.398 20.455L39.4 31.7047C39.4001 32.2636 39.0894 32.7763 38.5939 33.0348L12.7203 46.5345ZM36.3998 30.7958L36.3985 22.9296L13.5247 34.8641L13.526 42.7303L36.3998 30.7958ZM10.526 42.6552L10.5247 34.8376L3.40054 30.8793L3.40006 38.6969L10.526 42.6552ZM5.06386 28.3715L12.0469 32.2513L34.7349 20.4138L27.7519 16.534L5.06386 28.3715Z" fill="#141C53"/>
<path d="M65.465 27.2148C65.465 30.9138 62.495 33.5058 57.635 33.5058C52.748 33.5058 49.697 30.8868 49.4 26.7828H53.558C53.666 28.9158 55.043 30.2928 57.554 30.2928C59.633 30.2928 61.118 29.3748 61.118 27.8088C61.118 26.5938 60.173 25.8648 58.526 25.5408L55.34 24.9198C52.397 24.3528 50.129 22.7598 50.129 19.5468C50.129 16.0908 53.18 13.6068 57.365 13.6068C61.712 13.6068 64.898 16.1448 65.168 20.1948H61.01C60.875 18.1698 59.471 16.7928 57.419 16.7928C55.421 16.7928 54.287 17.9268 54.287 19.2768C54.287 20.5998 55.502 21.1668 56.906 21.4368L60.227 22.1118C63.629 22.7868 65.465 24.3528 65.465 27.2148Z" fill="#141C53"/>
<path d="M76.1568 29.5908V32.8578C75.2388 33.3168 74.3748 33.5058 73.2678 33.5058C70.2978 33.5058 68.4348 31.8048 68.4348 28.5648V22.0308H65.5188V18.8178H68.4348V14.5518H72.1608V18.8178H76.2918V22.0308H72.1608V27.7008C72.1608 29.3748 72.9168 30.0498 74.2668 30.0498C74.9688 30.0498 75.6168 29.8878 76.1568 29.5908Z" fill="#141C53"/>
<path d="M86.0894 33.2358V31.4538C85.1444 32.8038 83.7134 33.5058 81.7424 33.5058C78.7454 33.5058 76.7474 31.7508 76.7474 29.0508C76.7474 26.2428 79.0154 24.7308 83.2274 24.7308C84.0374 24.7308 84.7394 24.7848 85.6304 24.8928V24.0288C85.6304 22.4088 84.7124 21.4638 83.1464 21.4638C81.5264 21.4638 80.5544 22.4088 80.4194 24.0288H77.0444C77.2604 20.7078 79.6634 18.5478 83.1464 18.5478C86.9264 18.5478 89.1404 20.6268 89.1404 24.1638V33.2358H86.0894ZM80.2844 28.9428C80.2844 30.1578 81.1484 30.9138 82.5524 30.9138C84.4694 30.9138 85.6304 29.8608 85.6304 28.1868V27.1608C84.7394 27.0258 84.1184 26.9718 83.4704 26.9718C81.3374 26.9718 80.2844 27.6468 80.2844 28.9428Z" fill="#141C53"/>
<path d="M97.3695 33.5058C93.2115 33.5058 90.3495 30.4278 90.3495 26.0268C90.3495 21.7068 93.3195 18.5478 97.3695 18.5478C101.123 18.5478 103.903 21.0858 104.362 24.9738H100.421C100.232 23.0568 99.0705 21.8688 97.3695 21.8688C95.4255 21.8688 94.1835 23.4618 94.1835 26.0268C94.1835 28.6188 95.3985 30.1848 97.3695 30.1848C99.0975 30.1848 100.205 29.0508 100.421 27.0798H104.362C103.931 31.0488 101.23 33.5058 97.3695 33.5058Z" fill="#141C53"/>
<path d="M109.445 33.2358H105.692V13.8498H109.445V24.9198L114.71 18.8178H119.03L113.063 25.7298L119.732 33.2358H114.953L109.445 26.5398V33.2358Z" fill="#141C53"/>
<path d="M133.938 26.0268C133.938 21.7608 136.449 18.5478 140.337 18.5478C142.065 18.5478 143.523 19.3038 144.603 20.6808V13.8498H148.329V33.2358H144.9V31.1568C143.766 32.6688 142.2 33.5058 140.337 33.5058C136.449 33.5058 133.938 30.2388 133.938 26.0268ZM137.799 26.0268C137.799 28.7268 139.338 30.1578 141.174 30.1578C143.037 30.1578 144.576 28.6998 144.576 25.9728C144.576 23.2458 143.01 21.8688 141.174 21.8688C139.338 21.8688 137.799 23.2728 137.799 26.0268Z" fill="#141C53"/>
<path d="M168.013 33.2358H155.485V13.8498H159.589V29.5368H168.013V33.2358Z" fill="#141C53"/>
<path d="M178.013 33.2358V31.4538C177.068 32.8038 175.637 33.5058 173.666 33.5058C170.669 33.5058 168.671 31.7508 168.671 29.0508C168.671 26.2428 170.939 24.7308 175.151 24.7308C175.961 24.7308 176.663 24.7848 177.554 24.8928V24.0288C177.554 22.4088 176.636 21.4638 175.07 21.4638C173.45 21.4638 172.478 22.4088 172.343 24.0288H168.968C169.184 20.7078 171.587 18.5478 175.07 18.5478C178.85 18.5478 181.064 20.6268 181.064 24.1638V33.2358H178.013ZM172.208 28.9428C172.208 30.1578 173.072 30.9138 174.476 30.9138C176.393 30.9138 177.554 29.8608 177.554 28.1868V27.1608C176.663 27.0258 176.042 26.9718 175.394 26.9718C173.261 26.9718 172.208 27.6468 172.208 28.9428Z" fill="#141C53"/>
<path d="M197.609 26.0268C197.609 30.2388 195.098 33.5058 191.21 33.5058C189.347 33.5058 187.781 32.6688 186.674 31.1568V33.2358H183.218V13.8498H186.971V20.6808C188.024 19.2768 189.482 18.5478 191.21 18.5478C195.098 18.5478 197.609 21.7608 197.609 26.0268ZM193.748 26.0268C193.748 23.2728 192.209 21.8688 190.373 21.8688C188.564 21.8688 186.998 23.2458 186.998 25.9728C186.998 28.6998 188.51 30.1578 190.373 30.1578C192.209 30.1578 193.748 28.7268 193.748 26.0268Z" fill="#141C53"/>
<path d="M126.59 33.4788C130.532 33.4788 133.313 31.1568 133.34 27.8628H129.695C129.587 29.5098 128.399 30.5088 126.536 30.5088C124.592 30.5088 123.458 29.5368 123.458 27.9168C123.458 26.3238 124.781 25.3788 127.022 25.3788H128.993V22.4088H127.238C125.402 22.4088 124.295 21.4908 124.295 20.0058C124.295 18.5748 125.24 17.6838 126.806 17.6838C128.345 17.6838 129.317 18.6558 129.344 20.2488H132.989C132.962 17.0898 130.208 14.7138 126.617 14.7138C122.783 14.7138 120.434 16.7928 120.434 19.7358C120.434 21.4098 121.406 22.7328 123.161 23.6508C120.893 24.3798 119.597 25.8378 119.597 27.8088C119.597 31.1838 122.405 33.4788 126.59 33.4788Z" fill="#141C53"/>
</svg>
