<svg width="190" height="49" viewBox="0 0 190 49" fill="none" xmlns="http://www.w3.org/2000/svg">
<rect y="4.23584" width="10" height="10" fill="#141C53"/>
<rect opacity="0.6" x="20" y="4.23584" width="10" height="10" fill="#141C53"/>
<rect opacity="0.6" x="10" y="14.2358" width="10" height="10" fill="#141C53"/>
<rect opacity="0.45" x="20" y="14.2358" width="10" height="10" fill="#141C53"/>
<rect opacity="0.3" x="30" y="14.2358" width="10" height="10" fill="#141C53"/>
<rect opacity="0.6" y="24.2358" width="10" height="10" fill="#141C53"/>
<rect opacity="0.45" x="10" y="24.2358" width="10" height="10" fill="#141C53"/>
<rect opacity="0.3" x="20" y="24.2358" width="10" height="10" fill="#141C53"/>
<rect opacity="0.15" x="30" y="24.2358" width="10" height="10" fill="#141C53"/>
<rect opacity="0.3" x="10" y="34.2358" width="10" height="10" fill="#141C53"/>
<rect opacity="0.15" x="20" y="34.2358" width="10" height="10" fill="#141C53"/>
<path d="M69.92 23.4558C69.92 26.2158 69.03 28.5858 67.25 30.5658C65.49 32.5458 63.03 33.5358 59.87 33.5358C56.69 33.5358 54.25 32.5458 52.55 30.5658C50.85 28.5858 50 26.2358 50 23.5158C50 20.6758 50.9 18.2858 52.7 16.3458C54.5 14.4058 56.93 13.4358 59.99 13.4358C63.11 13.4358 65.54 14.4258 67.28 16.4058C69.04 18.3658 69.92 20.7158 69.92 23.4558ZM65.57 23.5758C65.57 21.4958 65.09 19.8758 64.13 18.7158C63.17 17.5558 61.78 16.9758 59.96 16.9758C58.02 16.9758 56.6 17.5958 55.7 18.8358C54.8 20.0558 54.35 21.5858 54.35 23.4258C54.35 25.2058 54.79 26.7458 55.67 28.0458C56.55 29.3458 58.02 29.9958 60.08 29.9958C61.98 29.9958 63.37 29.4058 64.25 28.2258C65.13 27.0258 65.57 25.4758 65.57 23.5758Z" fill="#141C53"/>
<path d="M86.7174 33.2358H81.0474V30.7158C80.6674 31.4958 80.1074 32.1658 79.3674 32.7258C78.6274 33.2658 77.6474 33.5358 76.4274 33.5358C74.6474 33.5358 73.2474 32.9258 72.2274 31.7058C71.2074 30.4858 70.6974 28.8258 70.6974 26.7258C70.6974 24.7058 71.1974 22.9858 72.1974 21.5658C73.1974 20.1458 74.7074 19.4358 76.7274 19.4358C77.8274 19.4358 78.7274 19.6558 79.4274 20.0958C80.1274 20.5358 80.6674 21.0958 81.0474 21.7758V15.5358H78.3474V12.5958H84.9174V30.3258H86.7174V33.2358ZM81.0474 26.3958V26.0658C81.0474 24.9458 80.7474 24.0758 80.1474 23.4558C79.5674 22.8158 78.8374 22.4958 77.9574 22.4958C77.0974 22.4958 76.3374 22.8158 75.6774 23.4558C75.0374 24.0958 74.7174 25.1058 74.7174 26.4858C74.7174 27.7858 75.0174 28.7758 75.6174 29.4558C76.2174 30.1358 76.9274 30.4758 77.7474 30.4758C78.7674 30.4758 79.5674 30.0458 80.1474 29.1858C80.7474 28.3258 81.0474 27.3958 81.0474 26.3958Z" fill="#141C53"/>
<path d="M100.437 28.9758C100.337 30.1758 99.7468 31.2358 98.6668 32.1558C97.5868 33.0758 96.0768 33.5358 94.1368 33.5358C92.1168 33.5358 90.4468 32.9658 89.1268 31.8258C87.8268 30.6858 87.1768 28.9858 87.1768 26.7258C87.1768 24.6458 87.7668 22.9158 88.9468 21.5358C90.1468 20.1358 91.8168 19.4358 93.9568 19.4358C95.8368 19.4358 97.3568 19.9758 98.5168 21.0558C99.6968 22.1358 100.297 23.5558 100.317 25.3158C100.317 25.9758 100.247 26.6258 100.107 27.2658H91.2268C91.4468 29.4058 92.5068 30.4758 94.4068 30.4758C95.4468 30.4758 96.1468 30.2258 96.5068 29.7258C96.8868 29.2258 97.1168 28.7758 97.1968 28.3758L100.437 28.9758ZM96.3268 25.0158C96.4068 24.3358 96.2568 23.6958 95.8768 23.0958C95.5168 22.4958 94.8768 22.1958 93.9568 22.1958C93.1568 22.1958 92.5368 22.4558 92.0968 22.9758C91.6568 23.4958 91.3768 24.1758 91.2568 25.0158H96.3268Z" fill="#141C53"/>
<path d="M102.489 20.6658C103.669 20.1858 104.649 19.8658 105.429 19.7058C106.229 19.5258 107.179 19.4358 108.279 19.4358C109.739 19.4358 110.999 19.8158 112.059 20.5758C113.119 21.3358 113.649 22.4858 113.649 24.0258V29.9058C113.649 30.6058 113.959 30.9558 114.579 30.9558C114.759 30.9558 114.949 30.9258 115.149 30.8658L115.179 32.9058C114.399 33.3258 113.589 33.5358 112.749 33.5358C110.969 33.5358 109.979 32.6458 109.779 30.8658V30.8358C109.399 31.5158 108.849 32.1358 108.129 32.6958C107.429 33.2558 106.529 33.5358 105.429 33.5358C104.449 33.5358 103.509 33.2458 102.609 32.6658C101.709 32.0858 101.259 31.0858 101.259 29.6658C101.259 28.0058 101.919 26.9058 103.239 26.3658C104.579 25.8258 106.019 25.5558 107.559 25.5558C108.419 25.5558 109.159 25.5958 109.779 25.6758V25.2258C109.779 24.5258 109.679 23.8458 109.479 23.1858C109.299 22.5258 108.659 22.1958 107.559 22.1958C107.159 22.1958 106.789 22.2258 106.449 22.2858C106.129 22.3258 105.809 22.4258 105.489 22.5858L104.979 24.5058L101.889 24.1758L102.489 20.6658ZM109.779 27.7158V27.5358C109.459 27.4958 109.129 27.4558 108.789 27.4158C108.469 27.3758 108.149 27.3558 107.829 27.3558C107.149 27.3558 106.549 27.4858 106.029 27.7458C105.509 27.9858 105.249 28.4758 105.249 29.2158C105.249 29.6558 105.369 30.0258 105.609 30.3258C105.849 30.6258 106.259 30.7758 106.839 30.7758C107.519 30.7758 108.149 30.5358 108.729 30.0558C109.329 29.5558 109.679 28.7758 109.779 27.7158Z" fill="#141C53"/>
<path d="M130.115 26.4858C130.115 28.6258 129.415 30.3358 128.015 31.6158C126.615 32.8958 124.835 33.5358 122.675 33.5358C120.595 33.5358 118.895 32.9358 117.575 31.7358C116.275 30.5158 115.625 28.8158 115.625 26.6358C115.625 24.6558 116.225 22.9558 117.425 21.5358C118.625 20.1158 120.445 19.4058 122.885 19.4058C125.325 19.4058 127.135 20.1158 128.315 21.5358C129.515 22.9358 130.115 24.5858 130.115 26.4858ZM126.125 26.3658C126.125 24.9858 125.805 23.9758 125.165 23.3358C124.525 22.6958 123.745 22.3758 122.825 22.3758C121.825 22.3758 121.035 22.7358 120.455 23.4558C119.895 24.1558 119.615 25.1458 119.615 26.4258C119.615 27.5858 119.875 28.5658 120.395 29.3658C120.935 30.1658 121.735 30.5658 122.795 30.5658C123.795 30.5658 124.595 30.1958 125.195 29.4558C125.815 28.6958 126.125 27.6658 126.125 26.3658Z" fill="#141C53"/>
<path d="M145.293 33.2358H130.653V29.8158H132.753V17.1558H130.653V13.7358H139.503V17.1558H136.773V29.8158H141.873L142.473 26.0358L145.893 26.3358L145.293 33.2358Z" fill="#141C53"/>
<path d="M147.652 20.6658C148.832 20.1858 149.812 19.8658 150.592 19.7058C151.392 19.5258 152.342 19.4358 153.442 19.4358C154.902 19.4358 156.162 19.8158 157.222 20.5758C158.282 21.3358 158.812 22.4858 158.812 24.0258V29.9058C158.812 30.6058 159.122 30.9558 159.742 30.9558C159.922 30.9558 160.112 30.9258 160.312 30.8658L160.342 32.9058C159.562 33.3258 158.752 33.5358 157.912 33.5358C156.132 33.5358 155.142 32.6458 154.942 30.8658V30.8358C154.562 31.5158 154.012 32.1358 153.292 32.6958C152.592 33.2558 151.692 33.5358 150.592 33.5358C149.612 33.5358 148.672 33.2458 147.772 32.6658C146.872 32.0858 146.422 31.0858 146.422 29.6658C146.422 28.0058 147.082 26.9058 148.402 26.3658C149.742 25.8258 151.182 25.5558 152.722 25.5558C153.582 25.5558 154.322 25.5958 154.942 25.6758V25.2258C154.942 24.5258 154.842 23.8458 154.642 23.1858C154.462 22.5258 153.822 22.1958 152.722 22.1958C152.322 22.1958 151.952 22.2258 151.612 22.2858C151.292 22.3258 150.972 22.4258 150.652 22.5858L150.142 24.5058L147.052 24.1758L147.652 20.6658ZM154.942 27.7158V27.5358C154.622 27.4958 154.292 27.4558 153.952 27.4158C153.632 27.3758 153.312 27.3558 152.992 27.3558C152.312 27.3558 151.712 27.4858 151.192 27.7458C150.672 27.9858 150.412 28.4758 150.412 29.2158C150.412 29.6558 150.532 30.0258 150.772 30.3258C151.012 30.6258 151.422 30.7758 152.002 30.7758C152.682 30.7758 153.312 30.5358 153.892 30.0558C154.492 29.5558 154.842 28.7758 154.942 27.7158Z" fill="#141C53"/>
<path d="M176.087 26.1558C176.087 28.1558 175.557 29.8858 174.497 31.3458C173.457 32.8058 171.917 33.5358 169.877 33.5358C167.817 33.5358 166.367 32.7558 165.527 31.1958C165.487 31.5358 165.437 31.8758 165.377 32.2158C165.337 32.5558 165.287 32.8958 165.227 33.2358H161.357C161.497 32.5358 161.617 31.8358 161.717 31.1358C161.817 30.4358 161.867 29.7458 161.867 29.0658V15.5358H160.067V12.5958H165.737V22.2858C166.097 21.5058 166.637 20.8358 167.357 20.2758C168.097 19.7158 169.077 19.4358 170.297 19.4358C171.997 19.4358 173.387 20.0258 174.467 21.2058C175.547 22.3858 176.087 24.0358 176.087 26.1558ZM172.067 26.4858C172.067 25.1858 171.787 24.1958 171.227 23.5158C170.667 22.8358 169.927 22.4958 169.007 22.4958C167.967 22.4958 167.157 22.8758 166.577 23.6358C166.017 24.3958 165.737 25.2758 165.737 26.2758V26.6058C165.737 27.7058 166.007 28.6358 166.547 29.3958C167.107 30.1358 167.897 30.5058 168.917 30.5058C169.797 30.5058 170.537 30.1858 171.137 29.5458C171.757 28.8858 172.067 27.8658 172.067 26.4858Z" fill="#141C53"/>
<path d="M189.161 29.0958C189.161 30.5958 188.561 31.7158 187.361 32.4558C186.181 33.1758 184.641 33.5358 182.741 33.5358C181.761 33.5358 180.771 33.4358 179.771 33.2358C178.791 33.0158 177.851 32.6758 176.951 32.2158L177.491 28.4358L180.491 28.7658V30.4458C180.851 30.5658 181.231 30.6458 181.631 30.6858C182.031 30.7058 182.331 30.7158 182.531 30.7158C183.271 30.7158 183.911 30.5958 184.451 30.3558C184.991 30.1158 185.261 29.7558 185.261 29.2758C185.261 28.6958 184.851 28.3158 184.031 28.1358C183.211 27.9558 182.261 27.7758 181.181 27.5958C180.101 27.4158 179.151 27.0458 178.331 26.4858C177.511 25.9258 177.101 24.9758 177.101 23.6358C177.101 21.9758 177.741 20.8658 179.021 20.3058C180.321 19.7258 181.661 19.4358 183.041 19.4358C184.841 19.4358 186.531 19.8458 188.111 20.6658L188.441 24.1158L185.441 24.4458L185.201 22.5558C184.541 22.3358 183.831 22.2258 183.071 22.2258C182.571 22.2258 182.141 22.3358 181.781 22.5558C181.441 22.7558 181.271 23.0758 181.271 23.5158C181.271 24.0958 181.661 24.4858 182.441 24.6858C183.241 24.8658 184.161 25.0458 185.201 25.2258C186.261 25.4058 187.181 25.7758 187.961 26.3358C188.761 26.8758 189.161 27.7958 189.161 29.0958Z" fill="#141C53"/>
</svg>
